<?xml version="1.0" encoding="UTF-8" standalone="no"?>
<!-- Created with Inkscape (http://www.inkscape.org/) -->

<svg
   xmlns:dc="http://purl.org/dc/elements/1.1/"
   xmlns:cc="http://creativecommons.org/ns#"
   xmlns:rdf="http://www.w3.org/1999/02/22-rdf-syntax-ns#"
   xmlns:svg="http://www.w3.org/2000/svg"
   xmlns="http://www.w3.org/2000/svg"
   version="1.0"
   width="812.625"
   height="812.625"
   id="svg2">
  <defs
     id="defs4" />
  <metadata
     id="metadata7">
    <rdf:RDF>
      <cc:Work
         rdf:about="">
        <dc:format>image/svg+xml</dc:format>
        <dc:type
           rdf:resource="http://purl.org/dc/dcmitype/StillImage" />
        <dc:title></dc:title>
        <dc:creator>
          <cc:Agent>
            <dc:title>Tyler Tidman VA3DGN</dc:title>
          </cc:Agent>
        </dc:creator>
      </cc:Work>
    </rdf:RDF>
  </metadata>
  <g
     id="layer2"
     style="display:inline">
    <path
       d="M 406.3125,6 C 185.22956,6 6,185.22956 6,406.3125 6,627.39544 185.22956,806.625 406.3125,806.625 627.39544,806.625 806.625,627.39544 806.625,406.3125 806.625,185.22956 627.39544,6 406.3125,6 z M 405.75,110.625 c 162.36509,0 293.96875,131.60366 293.96875,293.96875 0,162.36509 -131.60366,294 -293.96875,294 -162.36509,0 -294,-131.63491 -294,-294 0,-162.36509 131.63491,-293.96875 294,-293.96875 z"
       id="circle3016-5"
       style="fill:#ffffff;fill-opacity:1;stroke:#000000;stroke-width:12.00000095;stroke-miterlimit:4;stroke-opacity:1;stroke-dasharray:none" />
    <path
       d="m 160.34884,193.85617 -5.74677,-5.50353 9.89123,-10.32841 c 2.97555,-3.10705 4.47486,-6.21444 4.49793,-9.32217 0.0357,-3.12084 -1.41447,-6.08711 -4.35038,-8.8988 -2.92277,-2.79901 -5.92946,-4.11355 -9.0201,-3.94362 -3.09064,0.17001 -6.13004,1.81511 -9.11822,4.93532 l -9.89124,10.3284 -5.74677,-5.50354 7.67847,-8.01784 c 4.28684,-4.47625 7.7993,-7.49824 10.53739,-9.06597 2.73754,-1.5934 5.62011,-2.44219 8.6477,-2.54638 2.6536,-0.1089 5.17084,0.33306 7.55172,1.32586 2.38088,0.9929 4.67064,2.54212 6.86931,4.64767 2.22496,2.13085 3.89145,4.37042 4.99947,6.71874 1.09481,2.33578 1.64515,4.83156 1.65102,7.48735 0.0142,3.04247 -0.71525,5.97849 -2.18831,8.8081 -1.48627,2.81703 -4.34759,6.43736 -8.58397,10.86098 l -7.67848,8.01784"
       id="path3026"
       style="font-size:56px;font-style:normal;font-variant:normal;font-weight:bold;font-stretch:normal;text-align:start;line-height:125%;writing-mode:lr-tb;text-anchor:start;fill:#000000;fill-opacity:1;stroke:#000000;stroke-opacity:1;font-family:DejaVu Sans;-inkscape-font-specification:DejaVu Sans Bold" />
    <path
       d="m 200.15164,120.66943 -12.24739,18.05406 20.55099,-7.29608 -8.3036,-10.75798 m 24.95755,15.10524 -40.95497,13.75332 -7.66872,-9.93543 23.67947,-36.13512 24.94422,32.31723"
       id="path3028"
       style="font-size:56px;font-style:normal;font-variant:normal;font-weight:bold;font-stretch:normal;text-align:start;line-height:125%;writing-mode:lr-tb;text-anchor:start;fill:#000000;fill-opacity:1;stroke:#000000;stroke-opacity:1;font-family:DejaVu Sans;-inkscape-font-specification:DejaVu Sans Bold" />
    <path
       d="m 233.65503,120.93634 c -0.588,1.03949 -0.66828,1.94098 -0.24085,2.70447 0.42742,0.76351 1.23788,1.16633 2.4314,1.20848 1.1935,0.0422 2.41855,-0.2885 3.67516,-0.99198 1.25658,-0.70346 2.17887,-1.57493 2.76688,-2.61441 0.58798,-1.03946 0.66826,-1.94095 0.24085,-2.70447 -0.42744,-0.76348 -1.2379,-1.16631 -2.4314,-1.20848 -1.19352,-0.0421 -2.41857,0.28853 -3.67516,0.99198 -1.2566,0.70348 -2.17889,1.57495 -2.76688,2.61441 m -5.3026,3.62659 -5.48632,-34.877672 10.95147,-6.130863 33.13625,28.235665 -9.23359,5.16916 -24.69151,-21.99528 3.44623,19.25449 c 1.85844,-0.7479 3.7006,-1.05843 5.5265,-0.9316 2.43152,0.16385 4.11034,1.0729 5.03644,2.72713 0.92606,1.65427 0.82338,3.56063 -0.30807,5.7191 -1.11557,2.14958 -2.92199,3.92339 -5.41926,5.32141 -2.49729,1.39804 -4.9617,2.01514 -7.39324,1.8513 -2.42454,-0.18864 -4.0954,-1.10214 -5.01258,-2.74049 -0.29385,-0.5249 -0.47796,-1.05902 -0.55232,-1.60235"
       id="path3030"
       style="font-size:56px;font-style:normal;font-variant:normal;font-weight:bold;font-stretch:normal;text-align:start;line-height:125%;writing-mode:lr-tb;text-anchor:start;fill:#000000;fill-opacity:1;stroke:#000000;stroke-opacity:1;font-family:DejaVu Sans;-inkscape-font-specification:DejaVu Sans Bold" />
    <path
       d="m 282.90925,85.666878 -5.79386,2.446126 -3.03106,-7.179344 -4.35799,1.839912 c -3.00609,1.269177 -5.56824,1.668241 -7.68647,1.197193 -2.10851,-0.494875 -3.62009,-1.825526 -4.53473,-3.991954 -0.91463,-2.166364 -0.81046,-4.169278 0.31251,-6.008747 1.13269,-1.863276 3.20207,-3.429507 6.20815,-4.698698 l 10.15185,-4.286037 1.66974,3.954937 -9.49688,4.009519 c -1.25954,0.531805 -2.12237,1.183001 -2.58851,1.953592 -0.46613,0.770665 -0.51131,1.601014 -0.13553,2.491049 0.38997,0.923692 1.01038,1.502713 1.86125,1.737066 0.86767,0.227327 1.95646,0.06446 3.26637,-0.488613 l 9.49689,-4.009519 4.65827,11.033518"
       id="path3032"
       style="font-size:56px;font-style:normal;font-variant:normal;font-weight:bold;font-stretch:normal;text-align:start;line-height:125%;writing-mode:lr-tb;text-anchor:start;fill:#000000;fill-opacity:1;stroke:#000000;stroke-opacity:1;font-family:DejaVu Sans;-inkscape-font-specification:DejaVu Sans Bold" />
    <path
       d="m 311.18572,76.739045 c -1.33781,-0.644817 -2.98905,-0.689599 -4.95374,-0.134347 -1.96472,0.5553 -3.34824,1.457785 -4.15057,2.707459 -0.80235,1.249717 -0.95563,2.751664 -0.45984,4.505848 0.49577,1.754217 1.41504,2.962509 2.75779,3.624879 1.33777,0.644854 2.98902,0.689636 4.95374,0.134347 1.96469,-0.555263 3.34821,-1.457748 4.15057,-2.707459 0.79736,-1.267222 0.94816,-2.777941 0.4524,-4.532161 -0.4958,-1.75418 -1.41259,-2.953701 -2.75035,-3.598566 m 0.31147,18.495278 c -5.45558,1.541888 -9.98411,1.571514 -13.58559,0.08888 -3.26629,-1.368988 -5.51172,-4.219922 -6.7363,-8.55281 -1.16013,-4.104815 -0.71935,-7.63917 1.32235,-10.603076 2.05429,-2.986356 5.94077,-5.287672 11.65948,-6.903953 5.71868,-1.616218 10.22604,-1.687221 13.52209,-0.213007 3.30859,1.451778 5.54296,4.230065 6.70312,8.33487 0.57508,2.034896 0.7511,3.964713 0.52807,5.789456 l 14.31429,-4.045586 2.16409,7.657092 -29.8916,8.448136"
       id="path3034"
       style="font-size:56px;font-style:normal;font-variant:normal;font-weight:bold;font-stretch:normal;text-align:start;line-height:125%;writing-mode:lr-tb;text-anchor:start;fill:#000000;fill-opacity:1;stroke:#000000;stroke-opacity:1;font-family:DejaVu Sans;-inkscape-font-specification:DejaVu Sans Bold" />
    <path
       d="m 364.60709,65.321898 -6.21664,0.951671 -1.17925,-7.703229 -4.67599,0.715823 c -3.22546,0.493793 -5.80728,0.252798 -7.74548,-0.722986 -1.92294,-0.996505 -3.06233,-2.657012 -3.41817,-4.981527 -0.35584,-2.324447 0.23599,-4.240757 1.77551,-5.748936 1.55477,-1.528879 3.94488,-2.54022 7.17033,-3.034028 l 10.89263,-1.667495 0.64962,4.243534 -10.18988,1.559914 c -1.35145,0.206923 -2.34756,0.626814 -2.98833,1.259673 -0.64078,0.632934 -0.88807,1.426892 -0.74186,2.381876 0.15171,0.991093 0.61131,1.704499 1.3788,2.140222 0.7855,0.433029 1.881,0.541947 3.28651,0.326755 l 10.18988,-1.559915 1.81232,11.838648"
       id="path3036"
       style="font-size:56px;font-style:normal;font-variant:normal;font-weight:bold;font-stretch:normal;text-align:start;line-height:125%;writing-mode:lr-tb;text-anchor:start;fill:#000000;fill-opacity:1;stroke:#000000;stroke-opacity:1;font-family:DejaVu Sans;-inkscape-font-specification:DejaVu Sans Bold" />
    <path
       d="m 372.14044,57.107601 -1.01728,-15.443093 6.30274,-0.415182 0.57155,8.676508 c 2.0025,-0.661669 3.43121,-1.020678 4.28613,-1.077028 3.74708,-0.246799 6.53566,0.208911 8.36577,1.367131 1.82887,1.140095 2.82599,2.965217 2.99137,5.475372 0.16893,2.564778 -0.65842,4.564891 -2.48205,6.000342 -1.80668,1.416107 -4.42894,2.23738 -7.86679,2.463824 -3.05588,0.201319 -5.63708,-0.295455 -7.74361,-1.490323 -2.10773,-1.213017 -3.24367,-3.065532 -3.40783,-5.557551 m 10.86175,3.066118 c 1.00042,-0.06588 1.93441,-0.447106 2.80198,-1.143681 0.88452,-0.715915 1.28665,-1.683241 1.20639,-2.901979 -0.0755,-1.145926 -0.56108,-1.99997 -1.45672,-2.562134 -0.87748,-0.563303 -1.89828,-0.806626 -3.06242,-0.729971 -1.2551,0.08271 -2.27274,0.442041 -3.05293,1.078003 -0.76201,0.634822 -1.10287,1.561574 -1.02258,2.780259 0.0767,1.164169 0.60102,2.052196 1.57304,2.664083 0.9708,0.593745 1.97521,0.865551 3.01324,0.81542"
       id="path3038"
       style="font-size:56px;font-style:normal;font-variant:normal;font-weight:bold;font-stretch:normal;text-align:start;line-height:125%;writing-mode:lr-tb;text-anchor:start;fill:#000000;fill-opacity:1;stroke:#000000;stroke-opacity:1;font-family:DejaVu Sans;-inkscape-font-specification:DejaVu Sans Bold" />
    <path
       d="m 402.64956,80.741106 0.38441,-7.94774 14.28409,0.690884 c 4.29703,0.207844 7.62597,-0.698796 9.98681,-2.719923 2.37899,-2.020227 3.6667,-5.060522 3.86312,-9.120894 0.19547,-4.042127 -0.78458,-7.173857 -2.94017,-9.3952 -2.15565,-2.221287 -5.39109,-3.436303 -9.70633,-3.645053 l -14.28408,-0.690884 0.38441,-7.94774 11.0886,0.536326 c 6.19065,0.299467 10.77567,0.968369 13.75505,2.006707 2.99841,1.021087 5.52992,2.640067 7.59454,4.856945 1.82284,1.931497 3.14045,4.121406 3.95285,6.569731 0.81231,2.448378 1.14495,5.192911 0.99792,8.233606 -0.14888,3.077147 -0.74616,5.804077 -1.79184,8.180799 -1.0449,2.358534 -2.56771,4.411058 -4.56844,6.157578 -2.28714,2.006436 -4.98173,3.381769 -8.08377,4.126002 -3.10122,0.726025 -7.71074,0.941086 -13.82857,0.645183 l -11.0886,-0.536327"
       id="path3040"
       style="font-size:56px;font-style:normal;font-variant:normal;font-weight:bold;font-stretch:normal;text-align:start;line-height:125%;writing-mode:lr-tb;text-anchor:start;fill:#000000;fill-opacity:1;stroke:#000000;stroke-opacity:1;font-family:DejaVu Sans;-inkscape-font-specification:DejaVu Sans Bold" />
    <path
       d="m 497.63741,74.843309 -30.41063,-6.330284 c -1.99885,-0.416061 -3.64474,-0.246623 -4.93768,0.508314 -1.28927,0.737118 -2.11964,1.998 -2.49112,3.78265 -0.29722,1.427737 -0.0725,2.628957 0.67428,3.603664 0.75042,0.956872 2.30351,1.680492 4.65928,2.170862 l -1.62158,7.790047 c -6.19279,-1.289093 -10.33338,-3.268194 -12.4218,-5.937311 -2.08843,-2.669113 -2.72771,-5.948949 -1.91784,-9.839519 0.91759,-4.408097 3.03815,-7.439291 6.3617,-9.093591 3.32725,-1.672104 7.76602,-1.930492 13.31633,-0.775163 l 30.41063,6.330284 -1.62157,7.790047"
       id="path3042"
       style="font-size:56px;font-style:normal;font-variant:normal;font-weight:bold;font-stretch:normal;text-align:start;line-height:125%;writing-mode:lr-tb;text-anchor:start;fill:#000000;fill-opacity:1;stroke:#000000;stroke-opacity:1;font-family:DejaVu Sans;-inkscape-font-specification:DejaVu Sans Bold" />
    <path
       d="m 513.24205,99.492444 -9.78763,-3.876505 5.03443,-12.711204 c 1.60429,-4.050622 4.08527,-6.626644 7.44294,-7.728075 3.37457,-1.09468 7.77359,-0.56802 13.19706,1.579984 5.42342,2.148037 8.97153,4.798348 10.64437,7.950939 1.69641,3.142374 1.75927,6.696502 0.18857,10.662395 l -2.10439,5.313282 13.14339,5.2056 -2.93004,7.39792 -22.93101,-9.08211 5.03443,-12.711201 c 0.67122,-1.694824 0.67117,-3.204572 -1.7e-4,-4.529251 -0.67139,-1.324666 -1.95618,-2.362905 -3.85436,-3.114722 -1.89823,-0.751798 -3.54549,-0.874832 -4.94179,-0.369102 -1.39635,0.505749 -2.43013,1.606032 -3.10137,3.30085 l -5.03443,12.7112"
       id="path3044"
       style="font-size:56px;font-style:normal;font-variant:normal;font-weight:bold;font-stretch:normal;text-align:start;line-height:125%;writing-mode:lr-tb;text-anchor:start;fill:#000000;fill-opacity:1;stroke:#000000;stroke-opacity:1;font-family:DejaVu Sans;-inkscape-font-specification:DejaVu Sans Bold" />
    <path
       d="m 566.62998,114.54502 c 0.43496,1.41995 1.52331,2.66258 3.26503,3.72789 1.74168,1.06529 3.34365,1.46817 4.80591,1.20864 1.46221,-0.25955 2.6689,-1.16687 3.62009,-2.72195 0.95114,-1.5551 1.20923,-3.04262 0.77428,-4.46258 -0.4255,-1.43551 -1.50908,-2.68592 -3.25076,-3.75122 -1.74173,-1.0653 -3.34845,-1.4604 -4.82018,-1.18531 -1.46225,0.25954 -2.66895,1.16686 -3.62009,2.72195 -0.95118,1.55509 -1.20927,3.04262 -0.77428,4.46258 m 13.36637,-12.7872 26.49879,16.2078 -4.15182,6.78798 -12.68956,-7.76148 c -0.27814,1.81718 -0.96886,3.62773 -2.07217,5.43165 -2.22575,3.6389 -5.13224,5.71821 -8.71948,6.23791 -3.56223,0.51364 -7.87813,-0.77993 -12.94771,-3.88071 -5.06962,-3.10079 -8.19483,-6.35853 -9.37565,-9.77322 -1.15578,-3.42073 -0.6208,-6.95056 1.60493,-10.58948 2.34935,-3.84107 5.28136,-5.979553 8.79602,-6.415465 3.86807,-0.454755 8.22028,0.796919 13.05665,3.755015"
       id="path3046"
       style="font-size:56px;font-style:normal;font-variant:normal;font-weight:bold;font-stretch:normal;text-align:start;line-height:125%;writing-mode:lr-tb;text-anchor:start;fill:#000000;fill-opacity:1;stroke:#000000;stroke-opacity:1;font-family:DejaVu Sans;-inkscape-font-specification:DejaVu Sans Bold" />
    <path
       d="m 626.97421,144.69365 -4.90189,-3.94002 4.88219,-6.07408 -3.68707,-2.96358 c -2.54333,-2.04423 -4.11008,-4.11042 -4.70027,-6.19859 -0.5646,-2.09092 -0.11028,-4.05283 1.36297,-5.88574 1.4732,-1.83285 3.28581,-2.6913 5.43785,-2.57536 2.17761,0.11322 4.53807,1.19193 7.08141,3.23615 l 8.58897,6.9036 -2.6895,3.34607 -8.03484,-6.4582 c -1.06566,-0.85651 -2.04823,-1.30716 -2.94773,-1.35195 -0.89955,-0.0447 -1.65195,0.30939 -2.2572,1.06241 -0.62815,0.78148 -0.84356,1.60232 -0.64622,2.46253 0.21149,0.87166 0.87137,1.75288 1.97966,2.64365 l 8.03484,6.4582 -7.50317,9.33491"
       id="path3048"
       style="font-size:56px;font-style:normal;font-variant:normal;font-weight:bold;font-stretch:normal;text-align:start;line-height:125%;writing-mode:lr-tb;text-anchor:start;fill:#000000;fill-opacity:1;stroke:#000000;stroke-opacity:1;font-family:DejaVu Sans;-inkscape-font-specification:DejaVu Sans Bold" />
    <path
       d="m 660.50871,145.10755 7.53379,7.35303 -28.51448,29.21543 -20.33143,-19.84363 5.55774,-5.69436 12.79765,12.4906 22.95673,-23.52107"
       id="path3050"
       style="font-size:56px;font-style:normal;font-variant:normal;font-weight:bold;font-stretch:normal;text-align:start;line-height:125%;writing-mode:lr-tb;text-anchor:start;fill:#000000;fill-opacity:1;stroke:#000000;stroke-opacity:1;font-family:DejaVu Sans;-inkscape-font-specification:DejaVu Sans Bold" />
    <path
       d="m 672.47665,191.91036 -2.15204,-2.54895 c -2.48135,-2.93896 -4.1642,-5.29954 -5.04857,-7.08174 -0.87049,-1.79396 -1.30687,-3.59654 -1.30916,-5.40776 0.004,-1.57783 0.31905,-3.01297 0.94562,-4.30541 0.64046,-1.30417 1.60839,-2.50309 2.90378,-3.59677 1.36499,-1.15244 2.73709,-1.92917 4.1163,-2.33017 1.39308,-0.41273 2.86771,-0.48873 4.4239,-0.228 1.77339,0.29204 3.45856,1.01643 5.05552,2.17318 1.97663,1.40874 4.08214,3.43634 6.31655,6.08278 l 2.15204,2.54896 -3.28021,2.76943 -3.43975,-4.07415 c -1.63465,-1.93608 -3.49434,-3.12149 -5.57907,-3.55624 -1.85578,-0.38952 -3.68205,0.17423 -5.47883,1.69123 -1.67147,1.41119 -2.49165,3.08181 -2.46055,5.01186 0.0193,1.91614 0.91094,3.91886 2.67494,6.00817 l 3.43975,4.07415 -3.28022,2.76943"
       id="path3052"
       style="font-size:56px;font-style:normal;font-variant:normal;font-weight:bold;font-stretch:normal;text-align:start;line-height:125%;writing-mode:lr-tb;text-anchor:start;fill:#000000;fill-opacity:1;stroke:#000000;stroke-opacity:1;font-family:DejaVu Sans;-inkscape-font-specification:DejaVu Sans Bold" />
    <path
       d="m 262.10469,741.59286 2.74837,-7.46732 13.42064,4.9395 c 4.03729,1.48594 7.48493,1.61851 10.34293,0.39771 2.87505,-1.2145 5.01463,-3.72921 6.41876,-7.54413 1.39775,-3.7978 1.40119,-7.0793 0.0103,-9.84451 -1.39096,-2.76517 -4.11363,-4.89388 -8.16802,-6.38614 l -13.42064,-4.9395 2.74836,-7.46732 10.41832,3.83449 c 5.81644,2.14079 9.99031,4.1529 12.52163,6.03632 2.55464,1.87267 4.48468,4.17584 5.79011,6.90953 1.16028,2.38897 1.76112,4.87308 1.80252,7.45234 0.0413,2.57928 -0.46377,5.29737 -1.51522,8.15427 -1.06413,2.89113 -2.45111,5.31377 -4.16096,7.26792 -1.70363,1.93704 -3.77152,3.43892 -6.20367,4.50564 -2.78329,1.22887 -5.76618,1.73354 -8.94869,1.51401 -3.17627,-0.23664 -7.63841,-1.41275 -13.38643,-3.52832 l -10.41832,-3.83449"
       id="path3011"
       style="font-size:56px;font-style:normal;font-variant:normal;font-weight:bold;font-stretch:normal;text-align:start;line-height:125%;writing-mode:lr-tb;text-anchor:start;fill:#000000;fill-opacity:1;stroke:#000000;stroke-opacity:1;font-family:DejaVu Sans;-inkscape-font-specification:DejaVu Sans Bold" />
    <path
       d="m 329.08299,759.84284 c 1.2288,-5.68521 0.74164,-10.11276 -1.4615,-13.28265 -2.18546,-3.16563 -5.91979,-5.38039 -11.20299,-6.64427 l -5.74417,-1.37414 5.07033,-21.19494 10.23846,2.44928 -3.2954,13.77538 c 4.62646,1.03181 9.07105,3.96004 13.33378,8.78469 4.26266,4.82469 5.61364,10.49914 4.05292,17.02338 l -1.30416,5.45165 -10.23845,-2.44928 0.55118,-2.5391"
       id="path3013"
       style="font-size:56px;font-style:normal;font-variant:normal;font-weight:bold;font-stretch:normal;text-align:start;line-height:125%;writing-mode:lr-tb;text-anchor:start;fill:#000000;fill-opacity:1;stroke:#000000;stroke-opacity:1;font-family:DejaVu Sans;-inkscape-font-specification:DejaVu Sans Bold" />
    <path
       d="m 346.17436,766.01245 2.66032,-21.62999 16.22927,1.99608 c 2.02638,0.24925 3.65149,-0.0468 4.87534,-0.88806 1.22603,-0.85934 1.95032,-2.19366 2.17287,-4.00297 0.2225,-1.80926 -0.15798,-3.27027 -1.14145,-4.38306 -0.98353,-1.11272 -2.48847,-1.79372 -4.51484,-2.04298 l -16.22927,-1.99607 0.93128,-7.57186 17.34198,2.13294 c 5.15642,0.63424 8.9684,2.26936 11.43593,4.90535 2.48778,2.6202 3.47133,6.04714 2.95066,10.28084 -0.52299,4.25183 -2.30986,7.3564 -5.36064,9.3137 -3.03053,1.94147 -7.124,2.59509 -12.28043,1.96088 l -6.89337,-0.84784 -1.72904,14.05814 -10.44861,-1.2851"
       id="path3015"
       style="font-size:56px;font-style:normal;font-variant:normal;font-weight:bold;font-stretch:normal;text-align:start;line-height:125%;writing-mode:lr-tb;text-anchor:start;fill:#000000;fill-opacity:1;stroke:#000000;stroke-opacity:1;font-family:DejaVu Sans;-inkscape-font-specification:DejaVu Sans Bold" />
    <path
       d="m 386.96411,770.54476 0.0869,-24.4725 c 0.0205,-5.77858 1.48499,-10.07549 4.39344,-12.89074 2.90843,-2.81517 7.32488,-4.21226 13.24933,-4.19128 5.94265,0.0211 10.35817,1.44957 13.2466,4.28532 2.88835,2.83583 4.32229,7.14302 4.30182,12.9216 l -0.0869,24.47251 -10.52728,-0.0374 0.0869,-24.4725 c 0.0119,-3.37235 -0.5355,-5.78055 -1.64234,-7.22462 -1.08859,-1.46218 -2.89068,-2.19774 -5.40626,-2.20671 -2.4974,-0.009 -4.30466,0.71393 -5.42179,2.16827 -1.09887,1.43625 -1.65429,3.84054 -1.66624,7.21289 l -0.0869,24.4725 -10.52728,-0.0374"
       id="path3017"
       style="font-size:56px;font-style:normal;font-variant:normal;font-weight:bold;font-stretch:normal;text-align:start;line-height:125%;writing-mode:lr-tb;text-anchor:start;fill:#000000;fill-opacity:1;stroke:#000000;stroke-opacity:1;font-family:DejaVu Sans;-inkscape-font-specification:DejaVu Sans Bold" />
    <path
       d="m 458.64424,739.39666 -19.68817,9.39805 21.42251,4.08067 -1.73434,-13.47872 m 13.91343,25.64107 -42.29454,-8.81114 -1.60173,-12.44815 38.68627,-19.23112 5.21,40.49041"
       id="path3019"
       style="font-size:56px;font-style:normal;font-variant:normal;font-weight:bold;font-stretch:normal;text-align:start;line-height:125%;writing-mode:lr-tb;text-anchor:start;fill:#000000;fill-opacity:1;stroke:#000000;stroke-opacity:1;font-family:DejaVu Sans;-inkscape-font-specification:DejaVu Sans Bold" />
    <path
       d="m 483.53255,724.11752 7.22505,-1.9828 1.78018,6.48672 -7.22505,1.9828 -1.78018,-6.48672 m 40.89122,19.23103 2.10583,7.67332 -29.95496,8.22068 c -5.46714,1.50037 -9.91097,1.52902 -13.3315,0.0859 -3.42537,-1.46066 -5.73385,-4.36202 -6.92546,-8.70409 -1.05171,-3.83225 -0.6189,-7.14566 1.29842,-9.94024 1.91733,-2.79453 5.92598,-5.02884 12.02596,-6.70291 l 2.10583,7.67332 c -2.32047,0.63684 -3.82283,1.465 -4.50708,2.48451 -0.68911,1.00197 -0.84068,2.20611 -0.45472,3.61242 0.48242,1.75794 1.39247,2.97318 2.73015,3.64574 1.33284,0.655 2.98369,0.71234 4.95258,0.172 l 29.95495,-8.22068"
       id="path3021"
       style="font-size:56px;font-style:normal;font-variant:normal;font-weight:bold;font-stretch:normal;text-align:start;line-height:125%;writing-mode:lr-tb;text-anchor:start;fill:#000000;fill-opacity:1;stroke:#000000;stroke-opacity:1;font-family:DejaVu Sans;-inkscape-font-specification:DejaVu Sans Bold" />
    <path
       d="m 543.39664,724.20279 -3.10383,1.22258 c -3.57875,1.40966 -6.35389,2.24807 -8.32543,2.51523 -1.97823,0.25024 -3.82564,0.0865 -5.54223,-0.49131 -1.49353,-0.50885 -2.75218,-1.26699 -3.77595,-2.27441 -1.03044,-1.02433 -1.85631,-2.32519 -2.47763,-3.90257 -0.6547,-1.66213 -0.9512,-3.21069 -0.88947,-4.64569 0.0551,-1.45189 0.45523,-2.87322 1.20051,-4.26399 0.8445,-1.58652 2.07034,-2.95102 3.67753,-4.09352 1.96748,-1.42148 4.5625,-2.76692 7.78506,-4.03631 l 3.10383,-1.22258 1.57332,3.99428 -4.96104,1.95412 c -2.35756,0.92867 -4.07603,2.31089 -5.15541,4.14666 -0.96322,1.63335 -1.01392,3.54398 -0.1521,5.73189 0.80169,2.03533 2.12173,3.34726 3.96013,3.93578 1.82144,0.59526 4.00422,0.39182 6.54835,-0.61032 l 4.96104,-1.95412 1.57332,3.99428"
       id="path3023"
       style="font-size:56px;font-style:normal;font-variant:normal;font-weight:bold;font-stretch:normal;text-align:start;line-height:125%;writing-mode:lr-tb;text-anchor:start;fill:#000000;fill-opacity:1;stroke:#000000;stroke-opacity:1;font-family:DejaVu Sans;-inkscape-font-specification:DejaVu Sans Bold" />
    <path
       d="m 557.28872,692.03833 c -1.02578,0.61114 -1.87144,1.36427 -2.53703,2.25941 -0.66557,0.89519 -1.14714,1.93004 -1.44468,3.10458 -0.29755,1.17457 -0.36601,2.32405 -0.20541,3.44844 0.15595,1.11658 0.53714,2.18384 1.14358,3.20178 0.60178,1.01012 1.35649,1.84954 2.26414,2.51827 0.903,0.66092 1.94177,1.14015 3.11633,1.43769 1.17454,0.29755 2.31619,0.37069 3.42495,0.2194 1.10407,-0.15911 2.16899,-0.5442 3.19478,-1.15533 1.03359,-0.61575 1.88317,-1.37122 2.54877,-2.26639 0.66872,-0.90765 1.15187,-1.94876 1.44943,-3.12332 0.29437,-1.16204 0.35808,-2.29277 0.19116,-3.39221 -0.15913,-1.10406 -0.54423,-2.16898 -1.15532,-3.19477 -0.62045,-1.04142 -1.37825,-1.89492 -2.2734,-2.56053 -0.89983,-0.67337 -1.92686,-1.1596 -3.08108,-1.45867 -1.17456,-0.29753 -2.31779,-0.36441 -3.4297,-0.20067 -1.10408,0.15915 -2.17292,0.54658 -3.20652,1.16232 m -0.72073,-1.20978 c 1.19021,-0.70904 2.42648,-1.15379 3.70883,-1.33426 1.29017,-0.18507 2.61625,-0.10511 3.97824,0.23989 1.36197,0.34506 2.55993,0.90451 3.59388,1.67835 1.03393,0.77389 1.9101,1.76376 2.62852,2.96961 0.70905,1.19023 1.15772,2.42417 1.346,3.70184 0.18358,1.26986 0.10288,2.58577 -0.24214,3.94774 -0.34504,1.362 -0.90608,2.56621 -1.68309,3.61263 -0.76922,1.04178 -1.74892,1.91721 -2.93912,2.62627 -1.19022,0.70908 -2.43042,1.15615 -3.72058,1.34125 -1.28236,0.18045 -2.60451,0.0982 -3.9665,-0.24689 -1.36198,-0.34502 -2.55761,-0.90055 -3.58688,-1.66659 -1.03394,-0.77387 -1.90545,-1.7559 -2.61452,-2.94612 -0.7184,-1.20586 -1.17173,-2.44764 -1.36,-3.72533 -0.18826,-1.27766 -0.10988,-2.59749 0.23514,-3.95949 0.34504,-1.36197 0.90215,-2.56384 1.67135,-3.60564 0.77704,-1.04641 1.76066,-1.92417 2.95087,-2.63326 m 2.57979,5.05157 -1.44469,0.86068 1.93127,3.24175 1.4447,-0.86068 c 0.86133,-0.51312 1.38804,-0.99135 1.58014,-1.4347 0.19992,-0.44798 0.12494,-0.96562 -0.22492,-1.55291 -0.35454,-0.59509 -0.77638,-0.91139 -1.26553,-0.94888 -0.49381,-0.0453 -1.16747,0.18628 -2.02097,0.69474 m -0.63852,-1.25877 c 1.37814,-0.821 2.54778,-1.19953 3.50891,-1.13558 0.95646,0.0562 1.71693,0.55796 2.28139,1.50541 0.40118,0.67343 0.52488,1.35301 0.37112,2.03872 -0.14595,0.6811 -0.55513,1.31211 -1.22752,1.89304 0.22522,-0.0493 0.55803,0.002 0.99837,0.15319 0.44348,0.13896 1.0156,0.38695 1.71635,0.74395 l 3.16954,1.66061 -2.02022,1.20355 -2.97762,-1.55214 c -0.90983,-0.47647 -1.56792,-0.72628 -1.97425,-0.74946 -0.40319,-0.0356 -0.8162,0.0725 -1.23903,0.32438 l -0.7752,0.46182 2.49107,4.1814 -1.82056,1.0846 -5.84982,-9.81923 3.34747,-1.99426"
       id="path3008"
       style="font-size:28px;font-style:normal;font-variant:normal;font-weight:normal;font-stretch:normal;text-align:start;line-height:125%;writing-mode:lr-tb;text-anchor:start;fill:#000000;fill-opacity:1;stroke:#000000;stroke-opacity:1;font-family:DejaVu Sans;-inkscape-font-specification:DejaVu Sans" />
  </g>
</svg>
