<?xml version="1.0" encoding="UTF-8" standalone="no"?>
<!-- Created with Inkscape (http://www.inkscape.org/) -->

<svg
   xmlns:dc="http://purl.org/dc/elements/1.1/"
   xmlns:cc="http://creativecommons.org/ns#"
   xmlns:rdf="http://www.w3.org/1999/02/22-rdf-syntax-ns#"
   xmlns:svg="http://www.w3.org/2000/svg"
   xmlns="http://www.w3.org/2000/svg"
   version="1.0"
   width="599.97601"
   height="599.97601"
   id="svg2">
  <defs
     id="defs4" />
  <metadata
     id="metadata7">
    <rdf:RDF>
      <cc:Work
         rdf:about="">
        <dc:format>image/svg+xml</dc:format>
        <dc:type
           rdf:resource="http://purl.org/dc/dcmitype/StillImage" />
        <dc:title></dc:title>
        <dc:creator>
          <cc:Agent>
            <dc:title>Tyler Tidman VA3DGN</dc:title>
          </cc:Agent>
        </dc:creator>
      </cc:Work>
    </rdf:RDF>
  </metadata>
  <g
     transform="translate(-231.11366,-199.38194)"
     id="layer1"
     style="display:inline">
    <circle
       cx="70.722"
       cy="70.722"
       r="68.195999"
       transform="matrix(4.3109275,0,0,4.3109275,226.22425,194.49253)"
       id="circle3016"
       style="fill:#ffffff;fill-opacity:1;stroke:#000000;stroke-width:2.78362346;stroke-miterlimit:4;stroke-opacity:1;stroke-dasharray:none" />
    <path
       d="m 620.22931,460.54029 -17.99415,75.6453 -3.30036,0 0.13593,3.75052 13.91473,0.12271 -0.32741,-3.96979 -4.59682,-0.0965 3.70961,-20.06523 13.49232,-0.0965 4.50183,20.46284 -4.50183,0 0.20463,3.51961 32.45406,0 -0.0818,-3.60146 -4.82923,0 -17.43434,-75.5488 -15.34712,-0.12271 z m -2.07257,27.64842 5.99994,22.23998 -11.16823,0.10962 5.16829,-22.34961 z"
       id="path3272"
       style="fill:#000000;fill-opacity:1;fill-rule:evenodd;stroke:none" />
    <path
       d="m 579.01715,460.70399 c -17.12058,0.0682 -34.24115,0.13643 -51.36173,0.20463 5.33399,12.22313 10.66796,24.44628 16.00194,36.66941 -6.07065,14.05115 -12.14128,28.10229 -18.21193,42.15345 14.51497,0.0409 29.02996,0.0818 43.54493,0.12271 -0.31514,-1.07479 0.45749,-3.24996 -0.56285,-3.61139 -1.66769,-0.0376 -3.33536,-0.0752 -5.00305,-0.11289 0.0272,-12.49597 0.0546,-24.99194 0.0819,-37.48792 3.92235,1.04568 5.43584,4.86021 5.60211,8.71536 0.97592,8.05991 -0.37924,16.39765 1.8435,24.28296 1.86306,5.68517 6.74547,11.08551 13.13611,10.94464 4.74216,0.21729 9.65487,-1.67215 12.85455,-5.18634 1.43074,-1.53277 2.9136,-6.1033 1.34277,-6.60327 -1.71255,3.02025 -7.01885,3.70606 -5.76825,-0.90738 -0.19155,-6.1862 0.19105,-12.43675 -0.61681,-18.57839 -1.38695,-5.80076 -5.64934,-10.46012 -10.38669,-13.85442 4.48421,0.82979 7.70434,-3.2288 9.85163,-6.55503 2.86103,-5.71065 2.80597,-12.60995 1.21481,-18.68011 -1.75043,-6.13287 -7.23446,-10.75358 -13.5629,-11.51612 z m -15.59121,3.89092 c 2.4754,0.51781 4.53746,0.54367 5.64082,2.61768 1.32805,2.88608 0.55216,25.16916 -0.0583,25.84223 l -1.92022,2.11713 -3.45507,0.0341 c -0.36846,0.004 -0.21124,-21.13831 -0.20723,-30.61115 z"
       id="path4287"
       style="fill:#000000;fill-opacity:1;fill-rule:evenodd;stroke:none" />
    <path
       d="m 537.52232,546.91872 91.89868,54.7359 -14.11608,9.21869 68.56392,44.94105 -95.64379,-37.45088 19.01352,-18.72544 -69.71625,-52.71932 z"
       id="path4054"
       style="fill:#000000;fill-opacity:1;fill-rule:evenodd;stroke:none" />
    <path
       d="m 529.16788,450.41068 83.83235,-65.10692 4.32127,16.70886 65.68309,-47.24573 -68.27585,74.61366 -11.52334,-24.77517 -74.03752,45.8053 z"
       id="path4056"
       style="fill:#000000;fill-opacity:1;fill-rule:evenodd;stroke:none" />
    <path
       d="m 430.61027,388.19695 c -0.11564,0.14767 -2.04644,4.66658 -2.12814,4.74737 0.40805,0.56281 19.80622,26.81763 20.42191,27.37928 -0.0546,21.51326 -0.27283,43.31302 -0.3274,64.82628 -11.65017,-3.58782 -23.30036,-7.17564 -34.95053,-10.76346 3.54689,7.96686 7.09379,15.93374 10.64068,23.9006 -12.48234,2.30548 -24.96467,4.61096 -37.447,6.91644 11.04993,5.57954 22.09987,11.15906 33.1498,16.7386 -2.40097,6.71181 -4.80195,13.42362 -7.20292,20.13544 11.89573,0.0819 23.79147,0.1637 35.68719,0.24555 -0.0409,13.51912 -0.0818,40.50081 -0.12271,40.55735 -0.12101,-0.0136 -24.41978,0.24746 -24.67818,-0.0409 -0.0504,0.29127 2.74668,5.42838 2.82387,5.93422 0.39038,0.0702 48.80655,0.0833 49.15174,0.20463 0.0308,-0.10752 2.41859,-5.61387 2.61924,-5.93423 -0.77907,-0.17953 -25.32622,-0.24719 -25.33299,-0.12271 -0.0964,-0.34491 0.0819,-27.06552 0.12271,-40.59827 3.84701,0.0272 7.69403,0.0546 11.54104,0.0819 -3.53326,6.02972 -7.0665,12.05943 -10.59975,18.08915 12.98708,0.0955 25.97416,0.19098 38.96124,0.28648 9.35834,-20.10815 25.74956,-60.79332 26.28917,-61.83878 -0.67276,-1.36801 -32.53513,-75.55254 -33.00821,-76.65128 -2.05993,11.02266 -4.03076,21.51083 -6.09069,32.53348 -8.8263,-3.46504 -17.65262,-6.93009 -26.47892,-10.39512 4.70646,15.55176 9.41291,31.10351 14.11936,46.65527 -4.87015,-1.5006 -9.74031,-3.00122 -14.61047,-4.50182 0.0546,-22.18172 0.1091,-44.36344 0.16371,-66.54516 6.61978,-8.72488 13.27009,-17.42662 19.88988,-26.1515 l 0.3274,-0.49111 c -0.74209,-1.64118 -1.50881,-3.26991 -2.25091,-4.91108 -13.50547,-0.0955 -27.17465,-0.19099 -40.68012,-0.28648 z m 2.94665,4.58367 c 5.07478,0.0409 10.14956,0.0818 15.22435,0.12271 -0.0136,6.68453 -0.0272,13.36905 -0.0409,20.05359 -5.06114,-6.72546 -10.12229,-13.45091 -15.18343,-20.17636 z m 19.80802,0.1637 c 4.84288,0.0272 9.68574,0.0546 14.52862,0.0819 -4.85651,6.45261 -9.71303,13.43726 -14.56954,19.88988 0.0136,-6.47991 0.0272,-13.49183 0.0409,-19.97174 z m -24.26892,202.33656 c 0.74292,2.12824 2.16024,4.25361 3.06942,5.77052 0.4626,0.12245 25.43765,0.13512 38.14273,0.0819 1.00788,-2.42562 2.3212,-5.57413 2.20999,-5.68867 -13.46926,-0.0792 -29.42889,-0.13725 -43.42214,-0.1637 z m 21.28135,11.50011 c -8.07853,0.0118 -16.14055,0.0748 -16.32935,0.0409 0.25628,0.48404 2.3909,5.75165 2.82387,6.17978 0.55366,0.2859 27.33051,0.30108 27.95224,0.1637 -0.21453,-0.53337 2.6092,-5.57701 2.04629,-6.2207 -0.31032,-0.1501 -8.41452,-0.1751 -16.49305,-0.1637 z m 0.0818,11.7866 c -5.05117,0.024 -10.06874,0.075 -10.5179,0.0819 0.25563,0.4951 2.32166,5.63014 2.7011,6.09793 0.45348,0.24744 14.26484,-0.0145 15.6336,0.12271 0.61199,-1.18014 2.43113,-5.08149 2.90573,-6.26163 -0.58654,-0.0619 -5.67136,-0.065 -10.72253,-0.0409 z m -0.32741,12.64603 c -2.14284,0.0166 -4.28607,0.0409 -4.70645,0.0409 0.2963,0.54353 4.18075,8.81843 4.99293,9.00365 0.52776,-0.12127 4.61302,-7.96179 4.50183,-8.9218 -0.49141,-0.12179 -2.64546,-0.13941 -4.78831,-0.12271 z"
       id="path4326"
       style="fill:#000000;fill-opacity:1;fill-rule:evenodd;stroke:none" />
    <path
       d="m 451.2397,307.98763 c -27.93859,63.63943 -55.87718,126.26053 -83.81579,189.89996 27.93861,63.65303 55.8772,128.32442 83.81579,191.97747 27.95224,-63.65305 55.90448,-127.3061 83.85672,-190.95914 C 507.14418,435.26649 479.19194,371.62706 451.2397,307.98763 z m -0.24555,33.55906 c 24.20274,51.5448 44.17232,105.25766 67.27337,157.39535 -21.10103,53.11648 -44.29176,103.64004 -67.75967,155.83646 -23.29984,-51.28428 -44.92533,-104.28045 -67.78254,-155.86777 21.41503,-53.33408 44.9513,-104.73774 68.26884,-157.36404 z"
       id="path4419"
       style="fill:#000000;fill-opacity:1;fill-rule:evenodd;stroke:none" />
    <path
       d="m 706.50323,513.72932 c -0.11892,2.96527 0.17732,5.98024 -0.74045,8.84991 -0.72873,3.09119 -1.13158,6.30271 -2.83943,9.06319 -2.25364,4.67139 -6.26281,8.54999 -10.97793,10.68778 -5.18585,1.4607 -10.72959,-0.12441 -15.18921,-2.90728 -4.64586,-2.87532 -9.28711,-6.5518 -11.53924,-11.67139 -2.25948,-6.05834 -4.37064,-12.26465 -4.83127,-18.75936 -1.05249,-7.77821 -1.38649,-15.8855 1.0071,-23.45853 0.56333,-3.55833 2.16453,-6.72728 3.8819,-9.83863 2.22264,-4.09084 4.30752,-8.62358 8.44562,-11.13626 2.1587,-2.06693 4.94121,-3.1311 7.66337,-4.18622 3.27014,-1.01013 6.54614,-0.82976 9.86707,-0.17941 3.6927,-0.92976 5.85373,5.01498 9.0427,3.15146 1.42716,-1.59475 2.55879,-4.8248 5.11877,-4.26449 1.71666,-0.48379 1.45892,0.948 1.41599,2.17137 0.0618,8.80398 0.12376,17.60795 0.18555,26.41192 -2.88829,0.36951 -3.67717,-0.56438 -3.4706,-3.31558 -0.41172,-3.28748 -1.85858,-6.41238 -3.37892,-9.3441 -1.19166,-3.40595 -3.79766,-5.85752 -6.51715,-8.0378 -2.46206,-2.14336 -6.2097,-0.0617 -7.86441,2.2526 -3.47369,4.08485 -3.85434,9.74982 -3.65167,14.8821 0.39125,10.51813 -0.31254,21.03767 -0.0549,31.5579 -0.0377,5.81191 0.0233,11.98614 3.33807,17.02708 1.04643,3.1992 4.7232,4.05413 7.63044,3.04469 2.90235,-1.48045 5.78585,-3.52586 7.03743,-6.66353 1.69226,-3.42493 2.53773,-7.25458 3.25041,-10.99665 0.55255,-2.19024 -0.50805,-5.21408 2.63219,-4.34077 0.17953,0 0.35905,0 0.53858,0 z"
       id="path3277"
       style="fill:#000000;fill-opacity:1;fill-rule:evenodd;stroke:none" />
    <path
       d="m 276.27221,429.0765 8.41615,1.95677 c -1.4843,1.95692 -2.71654,3.91627 -3.69672,5.87804 -0.98013,1.96185 -1.68488,3.86604 -2.11424,5.71258 -0.56966,2.45031 -0.65338,4.33981 -0.25116,5.66852 0.40228,1.32876 1.31363,2.15826 2.73405,2.4885 1.06536,0.2477 1.99069,0.0511 2.776,-0.58979 0.77172,-0.66276 1.61214,-1.9833 2.52125,-3.96166 l 1.89444,-4.16352 c 1.91571,-4.2147 3.99583,-7.04369 6.24034,-8.48699 2.24454,-1.44322 5.03583,-1.77679 8.37387,-1.00072 4.38563,1.0197 7.34923,3.08432 8.89081,6.19387 1.52795,3.08772 1.67063,7.30378 0.42805,12.64819 -0.58621,2.5213 -1.41418,4.99574 -2.48391,7.42331 -1.06973,2.4276 -2.37029,4.80152 -3.90166,7.12176 l -8.65585,-2.0125 c 1.93977,-2.22529 3.5304,-4.43819 4.77191,-6.63869 1.2279,-2.22236 2.09779,-4.43439 2.60968,-6.6361 0.52016,-2.23718 0.54566,-4.03728 0.0765,-5.40032 -0.46915,-1.36298 -1.39619,-2.20548 -2.78112,-2.52751 -1.24289,-0.28895 -2.29664,-0.1035 -3.16125,0.55637 -0.86048,0.64216 -1.83777,2.10868 -2.93188,4.39956 l -1.80155,3.76403 c -1.77697,3.77911 -3.81229,6.37521 -6.10598,7.78832 -2.28952,1.39537 -5.01453,1.72565 -8.17505,0.99082 -3.95946,-0.92058 -6.70731,-2.90697 -8.24355,-5.95917 -1.53617,-3.05216 -1.74697,-6.97525 -0.63239,-11.76928 0.5078,-2.18391 1.19869,-4.39077 2.07268,-6.62059 0.8563,-2.23388 1.89982,-4.50848 3.13056,-6.8238"
       id="path3074"
       style="font-size:56px;font-style:normal;font-variant:normal;font-weight:bold;font-stretch:normal;text-align:start;line-height:125%;writing-mode:lr-tb;text-anchor:start;fill:#000000;fill-opacity:1;stroke:#000000;stroke-opacity:1;font-family:DejaVu Sans;-inkscape-font-specification:DejaVu Sans Bold" />
    <path
       d="m 280.91125,410.56089 11.16233,-26.12545 7.31713,3.12631 -7.02614,16.4447 6.99026,2.98665 6.60715,-15.46405 7.31714,3.12631 -6.60716,15.46406 8.59953,3.67422 7.2625,-16.99789 7.31714,3.12631 -11.39869,26.67864 -37.54119,-16.03981"
       id="path3076"
       style="font-size:56px;font-style:normal;font-variant:normal;font-weight:bold;font-stretch:normal;text-align:start;line-height:125%;writing-mode:lr-tb;text-anchor:start;fill:#000000;fill-opacity:1;stroke:#000000;stroke-opacity:1;font-family:DejaVu Sans;-inkscape-font-specification:DejaVu Sans Bold" />
    <path
       d="m 323.52086,366.61225 c 1.21992,-1.83765 1.75028,-3.3782 1.5911,-4.62167 -0.14908,-1.25859 -1.00578,-2.4071 -2.57009,-3.44558 -1.54911,-1.02832 -2.92496,-1.36183 -4.12756,-1.00054 -1.19249,0.34618 -2.3987,1.43809 -3.61862,3.27573 l -2.44991,3.69054 8.72518,5.79206 2.4499,-3.69054 m 3.60988,7.71321 12.87134,8.54442 -5.8223,8.77074 -34.01223,-22.57842 8.89224,-13.39531 c 2.97418,-4.48025 5.90364,-7.26166 8.7884,-8.34429 2.89487,-1.09771 5.96735,-0.56781 9.21745,1.58966 2.24774,1.49216 3.73006,3.26387 4.44697,5.31509 0.72699,2.03613 0.7063,4.37451 -0.0621,7.01514 1.06985,-1.01829 2.4033,-1.67565 4.00038,-1.97206 1.59196,-0.32161 3.69015,-0.31815 6.29458,0.0104 l 12.81988,1.65083 -6.20037,9.34027 -11.20416,-1.46441 c -2.2555,-0.29384 -3.98193,-0.21461 -5.17928,0.23769 -1.18727,0.43716 -2.25475,1.36954 -3.20245,2.79713 l -1.64839,2.48314"
       id="path3078"
       style="font-size:56px;font-style:normal;font-variant:normal;font-weight:bold;font-stretch:normal;text-align:start;line-height:125%;writing-mode:lr-tb;text-anchor:start;fill:#000000;fill-opacity:1;stroke:#000000;stroke-opacity:1;font-family:DejaVu Sans;-inkscape-font-specification:DejaVu Sans Bold" />
    <path
       d="m 326.37531,331.05729 7.4299,-7.53498 29.0589,13.44675 -13.87272,-28.84773 7.4299,-7.53498 18.45219,39.43072 -8.81221,8.93684 -39.68596,-17.89663"
       id="path3081"
       style="font-size:56px;font-style:normal;font-variant:normal;font-weight:bold;font-stretch:normal;text-align:start;line-height:125%;writing-mode:lr-tb;text-anchor:start;fill:#000000;fill-opacity:1;stroke:#000000;stroke-opacity:1;font-family:DejaVu Sans;-inkscape-font-specification:DejaVu Sans Bold" />
    <path
       d="m 365.60743,294.03325 8.37896,-6.37323 24.71487,32.49295 -8.37896,6.37323 -24.71487,-32.49295"
       id="path3083"
       style="font-size:56px;font-style:normal;font-variant:normal;font-weight:bold;font-stretch:normal;text-align:start;line-height:125%;writing-mode:lr-tb;text-anchor:start;fill:#000000;fill-opacity:1;stroke:#000000;stroke-opacity:1;font-family:DejaVu Sans;-inkscape-font-specification:DejaVu Sans Bold" />
    <path
       d="m 434.10306,296.01784 c -1.19154,1.8219 -2.5753,3.46963 -4.15128,4.94318 -1.57604,1.47359 -3.35671,2.76952 -5.34203,3.88784 -5.92428,3.33708 -11.54807,4.32898 -16.87138,2.9757 -5.33227,-1.36912 -9.59536,-4.88877 -12.78929,-10.55892 -3.20286,-5.68599 -4.00351,-11.15598 -2.40197,-16.40997 1.59261,-5.2698 5.35105,-9.57326 11.27531,-12.91037 1.98534,-1.11827 4.01651,-1.9695 6.09354,-2.55368 2.07701,-0.58409 4.20333,-0.91355 6.37898,-0.98839 l 4.14673,7.36166 c -2.35257,-0.20212 -4.50684,-0.10798 -6.46282,0.2824 -1.95599,0.39047 -3.84724,1.10012 -5.67375,2.12893 -3.27185,1.84303 -5.25438,4.34063 -5.9476,7.49281 -0.69321,3.15225 -0.002,6.57075 2.07358,10.25552 2.06665,3.66893 4.62753,6.0238 7.68265,7.06461 3.05509,1.04085 6.21857,0.63977 9.49043,-1.20324 1.82649,-1.02884 3.41356,-2.27849 4.76121,-3.74897 1.34759,-1.47043 2.54458,-3.26402 3.59096,-5.38076 l 4.14673,7.36165"
       id="path3085"
       style="font-size:56px;font-style:normal;font-variant:normal;font-weight:bold;font-stretch:normal;text-align:start;line-height:125%;writing-mode:lr-tb;text-anchor:start;fill:#000000;fill-opacity:1;stroke:#000000;stroke-opacity:1;font-family:DejaVu Sans;-inkscape-font-specification:DejaVu Sans Bold" />
    <path
       d="m 429.86838,256.03315 26.81779,-9.37777 2.6265,7.51105 -16.8805,5.90285 2.50917,7.1755 15.87386,-5.55084 2.6265,7.51105 -15.87387,5.55084 3.08682,8.82742 17.44834,-6.10142 2.6265,7.51105 -27.38564,9.57634 -13.47547,-38.53607"
       id="path3087"
       style="font-size:56px;font-style:normal;font-variant:normal;font-weight:bold;font-stretch:normal;text-align:start;line-height:125%;writing-mode:lr-tb;text-anchor:start;fill:#000000;fill-opacity:1;stroke:#000000;stroke-opacity:1;font-family:DejaVu Sans;-inkscape-font-specification:DejaVu Sans Bold" />
    <path
       d="m 507.49423,245.4629 1.4806,24.86613 3.76677,-0.22429 c 4.29445,-0.2557 7.50651,-1.51524 9.63619,-3.77865 2.14781,-2.26447 3.10093,-5.42566 2.85934,-9.48361 -0.24057,-4.03969 -1.55189,-7.04779 -3.93397,-9.02431 -2.38213,-1.97646 -5.72952,-2.83631 -10.04217,-2.57955 l -3.76676,0.22428 m -10.98168,-7.31724 11.08193,-0.65985 c 6.18694,-0.36835 10.81731,-0.19665 13.89111,0.5151 3.09087,0.69254 5.78188,2.02975 8.07303,4.01162 2.02008,1.72416 3.56566,3.75959 4.63677,6.10629 1.07102,2.34677 1.69703,5.03958 1.87801,8.07844 0.18307,3.0753 -0.11734,5.85067 -0.90124,8.3261 -0.78506,2.45727 -2.07819,4.66172 -3.87939,6.61337 -2.05799,2.24087 -4.58895,3.89814 -7.59292,4.97181 -3.0051,1.05549 -7.56472,1.76525 -13.67887,2.12931 l -11.08193,0.65985 -2.4265,-40.75204"
       id="path3089"
       style="font-size:56px;font-style:normal;font-variant:normal;font-weight:bold;font-stretch:normal;text-align:start;line-height:125%;writing-mode:lr-tb;text-anchor:start;fill:#000000;fill-opacity:1;stroke:#000000;stroke-opacity:1;font-family:DejaVu Sans;-inkscape-font-specification:DejaVu Sans Bold" />
    <path
       d="m 555.37076,237.76698 -1.24415,15.1247 -6.45865,-0.53129 1.24415,-15.1247 6.45865,0.53129"
       id="path3091"
       style="font-size:56px;font-style:normal;font-variant:normal;font-weight:bold;font-stretch:normal;text-align:start;line-height:125%;writing-mode:lr-tb;text-anchor:start;fill:#000000;fill-opacity:1;stroke:#000000;stroke-opacity:1;font-family:DejaVu Sans;-inkscape-font-specification:DejaVu Sans Bold" />
    <path
       d="m 571.48065,239.21071 10.27403,2.29547 -5.33622,23.88379 c -0.73537,3.29127 -0.72832,5.76775 0.0211,7.42947 0.77119,1.64793 2.37545,2.74416 4.81277,3.28871 2.45507,0.54853 4.37334,0.23931 5.75481,-0.92765 1.40318,-1.18077 2.47246,-3.41678 3.20784,-6.70804 l 5.33622,-23.88379 10.27404,2.29547 -5.33623,23.88379 c -1.26007,5.6396 -3.61247,9.52217 -7.05723,11.6477 -3.44483,2.12553 -8.06708,2.54039 -13.86677,1.2446 -5.78194,-1.29183 -9.77919,-3.6325 -11.99177,-7.02203 -2.21261,-3.38953 -2.68889,-7.90409 -1.42886,-13.5437 l 5.33623,-23.88379"
       id="path3093"
       style="font-size:56px;font-style:normal;font-variant:normal;font-weight:bold;font-stretch:normal;text-align:start;line-height:125%;writing-mode:lr-tb;text-anchor:start;fill:#000000;fill-opacity:1;stroke:#000000;stroke-opacity:1;font-family:DejaVu Sans;-inkscape-font-specification:DejaVu Sans Bold" />
    <path
       d="m 629.65373,275.3674 c 2.01643,0.89396 3.62418,1.15806 4.82324,0.7923 1.21567,-0.35835 2.204,-1.39577 2.965,-3.11227 0.75354,-1.69981 0.85124,-3.11213 0.2931,-4.23697 -0.54154,-1.11741 -1.82052,-2.1231 -3.83694,-3.01706 l -4.04958,-1.79528 -4.2444,9.57401 4.04958,1.79527 m -6.99738,4.85404 -6.26131,14.12354 -9.62401,-4.26657 16.54538,-37.32114 14.69848,6.51621 c 4.91612,2.17948 8.15004,4.60019 9.70177,7.26215 1.5683,2.66939 1.56196,5.78722 -0.019,9.3535 -1.09346,2.46643 -2.59104,4.22525 -4.49273,5.27647 -1.88511,1.05863 -4.19374,1.43097 -6.92592,1.11702 1.18351,0.88362 2.05548,2.08774 2.61592,3.61234 0.58441,1.51534 0.93338,3.58431 1.04693,6.20692 l 0.5257,12.91503 -10.24894,-4.54361 -0.43811,-11.29095 c -0.0892,-2.27282 -0.45721,-3.96141 -1.10417,-5.06579 -0.63036,-1.09698 -1.72877,-1.99271 -3.29525,-2.68719 l -2.72472,-1.20793"
       id="path3095"
       style="font-size:56px;font-style:normal;font-variant:normal;font-weight:bold;font-stretch:normal;text-align:start;line-height:125%;writing-mode:lr-tb;text-anchor:start;fill:#000000;fill-opacity:1;stroke:#000000;stroke-opacity:1;font-family:DejaVu Sans;-inkscape-font-specification:DejaVu Sans Bold" />
    <path
       d="m 677.55011,327.12963 c -2.87953,-0.47685 -5.65636,-1.27193 -8.33049,-2.38524 -2.67419,-1.11336 -5.23824,-2.53965 -7.69217,-4.27891 -5.54743,-3.93182 -8.84595,-8.59343 -9.89559,-13.98482 -1.03912,-5.40628 0.3229,-10.76415 4.08607,-16.07361 3.8053,-5.36892 8.44979,-8.42263 13.93349,-9.16113 5.48364,-0.73845 11.09584,0.92673 16.83664,4.99554 2.21594,1.57063 4.18768,3.28094 5.91523,5.13095 1.74232,1.86056 3.22341,3.83755 4.44327,5.93099 l -4.88578,6.89336 c -1.11069,-2.37356 -2.40363,-4.47416 -3.87882,-6.30179 -1.46042,-1.81708 -3.11269,-3.37916 -4.95683,-4.68626 -3.42069,-2.42443 -6.74044,-3.33619 -9.95925,-2.7353 -3.19346,0.5966 -6.04983,2.67214 -8.56912,6.22664 -2.49825,3.52476 -3.53491,6.87888 -3.11,10.06234 0.42488,3.18346 2.28072,5.93998 5.56755,8.26956 0.89232,0.63245 1.75463,1.16543 2.58694,1.59892 0.85766,0.42915 1.67572,0.74084 2.45418,0.93507 l 4.58536,-6.46949 -5.24253,-3.71572 4.07938,-5.75562 13.38518,9.48694 -11.35271,16.01758"
       id="path3097"
       style="font-size:56px;font-style:normal;font-variant:normal;font-weight:bold;font-stretch:normal;text-align:start;line-height:125%;writing-mode:lr-tb;text-anchor:start;fill:#000000;fill-opacity:1;stroke:#000000;stroke-opacity:1;font-family:DejaVu Sans;-inkscape-font-specification:DejaVu Sans Bold" />
    <path
       d="m 711.95882,307.70724 19.71463,20.45655 -5.7294,5.52161 -12.40941,-12.87641 -5.47345,5.27495 11.66939,12.10854 -5.72941,5.52162 -11.66939,-12.10855 -6.73353,6.48932 12.82684,13.30956 -5.7294,5.52161 -20.13208,-20.88968 29.39521,-28.32912"
       id="path3099"
       style="font-size:56px;font-style:normal;font-variant:normal;font-weight:bold;font-stretch:normal;text-align:start;line-height:125%;writing-mode:lr-tb;text-anchor:start;fill:#000000;fill-opacity:1;stroke:#000000;stroke-opacity:1;font-family:DejaVu Sans;-inkscape-font-specification:DejaVu Sans Bold" />
    <path
       d="m 742.95146,341.73255 6.4275,9.84546 -15.32937,27.73921 23.44597,-15.30644 5.4559,8.35721 -34.1844,22.3169 -6.4275,-9.84548 15.32937,-27.7392 -23.44597,15.30643 -5.4559,-8.3572 34.1844,-22.31689"
       id="path3101"
       style="font-size:56px;font-style:normal;font-variant:normal;font-weight:bold;font-stretch:normal;text-align:start;line-height:125%;writing-mode:lr-tb;text-anchor:start;fill:#000000;fill-opacity:1;stroke:#000000;stroke-opacity:1;font-family:DejaVu Sans;-inkscape-font-specification:DejaVu Sans Bold" />
    <path
       d="m 747.52526,433.24731 c -1.65201,-1.41773 -3.1064,-3.00347 -4.36315,-4.75722 -1.25678,-1.75381 -2.31088,-3.6875 -3.16231,-5.80107 -2.5407,-6.30698 -2.79498,-12.01191 -0.76286,-17.1148 2.04901,-5.10971 6.09173,-8.88042 12.12817,-11.31213 6.0533,-2.43852 11.58093,-2.52311 16.58289,-0.25381 5.01879,2.26252 8.79855,6.54724 11.33929,12.85422 0.85139,2.11358 1.43205,4.23799 1.74197,6.37322 0.30983,2.13521 0.36079,4.28632 0.15288,6.45328 l -7.83721,3.15715 c 0.50547,-2.30651 0.69147,-4.45479 0.55801,-6.44487 -0.13354,-1.99012 -0.59195,-3.95742 -1.37523,-5.90191 -1.40321,-3.48321 -3.62265,-5.77287 -6.65832,-6.86898 -3.03575,-1.09612 -6.51501,-0.85404 -10.43782,0.72623 -3.90594,1.57345 -6.573,3.80735 -8.00118,6.70171 -1.42821,2.89434 -1.44072,6.0831 -0.0375,9.56633 0.78331,1.94448 1.81661,3.6802 3.09992,5.20713 1.28328,1.52689 2.90651,2.94635 4.8697,4.25838 l -7.83721,3.15713"
       id="path3103"
       style="font-size:56px;font-style:normal;font-variant:normal;font-weight:bold;font-stretch:normal;text-align:start;line-height:125%;writing-mode:lr-tb;text-anchor:start;fill:#000000;fill-opacity:1;stroke:#000000;stroke-opacity:1;font-family:DejaVu Sans;-inkscape-font-specification:DejaVu Sans Bold" />
    <path
       d="m 787.72341,434.27165 5.79596,27.81266 -7.78969,1.62331 -3.64827,-17.50672 -7.4417,1.5508 3.43072,16.46273 -7.78968,1.62332 -3.43072,-16.46274 -9.15489,1.90782 3.771,18.09562 -7.78968,1.62332 -5.91869,-28.40157 39.96564,-8.32855"
       id="path3105"
       style="font-size:56px;font-style:normal;font-variant:normal;font-weight:bold;font-stretch:normal;text-align:start;line-height:125%;writing-mode:lr-tb;text-anchor:start;fill:#000000;fill-opacity:1;stroke:#000000;stroke-opacity:1;font-family:DejaVu Sans;-inkscape-font-specification:DejaVu Sans Bold" />
    <path
       d="m 340.12682,651.18196 c 1.37633,1.72361 2.68077,2.69983 3.91331,2.9287 1.24385,0.2431 2.5994,-0.22117 4.06665,-1.39277 1.45293,-1.16026 2.19136,-2.36811 2.2153,-3.62357 0.0352,-1.24123 -0.63532,-2.72365 -2.01165,-4.44727 l -2.7641,-3.46147 -8.18362,6.5349 2.76411,3.46148 m -8.44777,1.07712 -12.07244,9.64025 -6.56903,-8.22635 31.90116,-25.47417 10.03269,12.56389 c 3.35556,4.20221 5.10742,7.84213 5.25561,10.91978 0.15946,3.0919 -1.28498,5.85496 -4.33331,8.2892 -2.10827,1.68348 -4.2485,2.55272 -6.42071,2.60773 -2.16091,0.0692 -4.38085,-0.66584 -6.65982,-2.2052 0.64218,1.33007 0.86008,2.8007 0.6537,4.41189 -0.18084,1.61402 -0.82602,3.61056 -1.93557,5.98961 l -5.49363,11.70019 -6.99558,-8.76053 4.82185,-10.21898 c 0.96977,-2.05746 1.4225,-3.72535 1.35818,-5.00366 -0.053,-1.26409 -0.61408,-2.56563 -1.6833,-3.90463 l -1.8598,-2.32902"
       id="path3049"
       style="font-size:56px;font-style:normal;font-variant:normal;font-weight:bold;font-stretch:normal;text-align:start;line-height:125%;writing-mode:lr-tb;text-anchor:start;fill:#000000;fill-opacity:1;stroke:#000000;stroke-opacity:1;font-family:DejaVu Sans;-inkscape-font-specification:DejaVu Sans Bold" />
    <path
       d="m 363.96545,697.92647 -12.22374,-11.02464 -6.91023,3.78325 -7.85812,-7.08727 38.57062,-20.1884 9.3201,8.40583 -16.11306,40.44298 -7.85812,-7.08727 3.07255,-7.24447 m -5.20164,-14.8911 8.30483,7.49015 6.73587,-15.79722 -15.0407,8.30706"
       id="path3051"
       style="font-size:56px;font-style:normal;font-variant:normal;font-weight:bold;font-stretch:normal;text-align:start;line-height:125%;writing-mode:lr-tb;text-anchor:start;fill:#000000;fill-opacity:1;stroke:#000000;stroke-opacity:1;font-family:DejaVu Sans;-inkscape-font-specification:DejaVu Sans Bold" />
    <path
       d="m 399.73901,693.17538 -13.30355,21.0602 3.19024,2.01525 c 3.63715,2.29757 6.98079,3.14837 10.03093,2.5524 3.06549,-0.58625 5.68376,-2.59778 7.85481,-6.0346 2.16124,-3.42141 2.85101,-6.6296 2.0693,-9.62457 -0.78178,-2.99496 -2.99894,-5.64609 -6.6515,-7.95342 l -3.19023,-2.01525 m -4.65076,-12.34948 9.38577,5.92891 c 5.23996,3.31009 8.90062,6.15076 10.98198,8.52201 2.10641,2.3656 3.51198,5.02154 4.21672,7.96782 0.6349,2.57882 0.70283,5.13366 0.2038,7.66452 -0.49914,2.53086 -1.56159,5.08317 -3.18737,7.65694 -1.64534,2.60458 -3.5084,4.6835 -5.58918,6.23677 -2.07112,1.53783 -4.40742,2.57393 -7.00891,3.10831 -2.97876,0.61949 -6.00123,0.48905 -9.06742,-0.39132 -3.0565,-0.89581 -7.17391,-2.97927 -12.35225,-6.25038 l -9.38577,-5.92892 21.80263,-34.51466"
       id="path3053"
       style="font-size:56px;font-style:normal;font-variant:normal;font-weight:bold;font-stretch:normal;text-align:start;line-height:125%;writing-mode:lr-tb;text-anchor:start;fill:#000000;fill-opacity:1;stroke:#000000;stroke-opacity:1;font-family:DejaVu Sans;-inkscape-font-specification:DejaVu Sans Bold" />
    <path
       d="m 430.56998,701.88934 9.54274,4.44535 -17.23872,37.00599 -9.54274,-4.44535 17.23872,-37.00599"
       id="path3055"
       style="font-size:56px;font-style:normal;font-variant:normal;font-weight:bold;font-stretch:normal;text-align:start;line-height:125%;writing-mode:lr-tb;text-anchor:start;fill:#000000;fill-opacity:1;stroke:#000000;stroke-opacity:1;font-family:DejaVu Sans;-inkscape-font-specification:DejaVu Sans Bold" />
    <path
       d="m 460.27775,721.20884 c -3.05818,-0.9701 -5.78826,-0.59308 -8.19026,1.13108 -2.40205,1.72421 -4.25349,4.63664 -5.55432,8.73732 -1.29536,4.08333 -1.45859,7.52175 -0.48969,10.31527 0.96887,2.79354 2.98238,4.67536 6.04055,5.64549 3.07549,0.97564 5.81426,0.60137 8.21632,-1.12282 2.40199,-1.72418 4.25067,-4.62793 5.54605,-8.71125 1.30081,-4.10068 1.4668,-7.54778 0.49796,-10.34133 -0.96893,-2.79351 -2.99113,-4.67809 -6.06661,-5.65376 m 2.30681,-7.27179 c 6.25525,1.98438 10.58749,5.3285 12.99671,10.03237 2.40913,4.70389 2.61327,10.20955 0.61244,16.51697 -1.99543,6.29004 -5.33319,10.66254 -10.01331,13.11749 -4.68019,2.45496 -10.14791,2.69025 -16.40318,0.70591 -6.23794,-1.97884 -10.57018,-5.32296 -12.99672,-10.03235 -2.40918,-4.70388 -2.61608,-10.20085 -0.6207,-16.49091 2.00088,-6.3074 5.3414,-10.68858 10.02157,-13.14357 4.69751,-2.44941 10.16524,-2.68471 16.40319,-0.7059"
       id="path3057"
       style="font-size:56px;font-style:normal;font-variant:normal;font-weight:bold;font-stretch:normal;text-align:start;line-height:125%;writing-mode:lr-tb;text-anchor:start;fill:#000000;fill-opacity:1;stroke:#000000;stroke-opacity:1;font-family:DejaVu Sans;-inkscape-font-specification:DejaVu Sans Bold" />
    <path
       d="m 522.37529,758.598 -16.42753,-1.04823 -3.066,7.25699 -10.56055,-0.67387 17.69009,-39.77845 12.5253,0.79924 12.49072,41.70427 -10.56055,-0.67386 -2.09148,-7.58609 m -13.32553,-8.43992 11.1609,0.71218 -4.5325,-16.56444 -6.6284,15.85226"
       id="path3059"
       style="font-size:56px;font-style:normal;font-variant:normal;font-weight:bold;font-stretch:normal;text-align:start;line-height:125%;writing-mode:lr-tb;text-anchor:start;fill:#000000;fill-opacity:1;stroke:#000000;stroke-opacity:1;font-family:DejaVu Sans;-inkscape-font-specification:DejaVu Sans Bold" />
    <path
       d="m 535.52597,726.31273 13.29716,-1.64431 11.90783,20.54156 6.59964,-22.83016 13.27002,-1.64095 5.01011,40.51563 -9.87789,1.22148 -3.66446,-29.63366 -6.63378,22.9997 -6.62144,0.8188 -12.03651,-20.69096 3.66445,29.63366 -9.90502,1.22483 -5.01011,-40.51562"
       id="path3061"
       style="font-size:56px;font-style:normal;font-variant:normal;font-weight:bold;font-stretch:normal;text-align:start;line-height:125%;writing-mode:lr-tb;text-anchor:start;fill:#000000;fill-opacity:1;stroke:#000000;stroke-opacity:1;font-family:DejaVu Sans;-inkscape-font-specification:DejaVu Sans Bold" />
    <path
       d="m 617.09697,743.83713 -15.71266,4.90661 -0.26262,7.87371 -10.10099,3.15426 2.26496,-43.47568 11.98025,-3.74109 26.60247,34.46118 -10.10099,3.15426 -4.67042,-6.33325 m -15.46468,-3.10574 10.67521,-3.33357 -10.16598,-13.84114 -0.50923,17.17471"
       id="path3063"
       style="font-size:56px;font-style:normal;font-variant:normal;font-weight:bold;font-stretch:normal;text-align:start;line-height:125%;writing-mode:lr-tb;text-anchor:start;fill:#000000;fill-opacity:1;stroke:#000000;stroke-opacity:1;font-family:DejaVu Sans;-inkscape-font-specification:DejaVu Sans Bold" />
    <path
       d="m 610.51223,711.29125 33.89889,-16.32502 3.45246,7.16903 -12.19473,5.87274 14.26065,29.61225 -9.48479,4.56769 -14.26065,-29.61226 -12.21937,5.8846 -3.45246,-7.16903"
       id="path3065"
       style="font-size:56px;font-style:normal;font-variant:normal;font-weight:bold;font-stretch:normal;text-align:start;line-height:125%;writing-mode:lr-tb;text-anchor:start;fill:#000000;fill-opacity:1;stroke:#000000;stroke-opacity:1;font-family:DejaVu Sans;-inkscape-font-specification:DejaVu Sans Bold" />
    <path
       d="m 643.9156,694.84011 23.57878,-15.8486 4.43883,6.60388 -14.8417,9.97592 4.24053,6.30886 13.95664,-9.38103 4.43883,6.60387 -13.95664,9.38103 5.21677,7.76125 15.34095,-10.3115 4.43883,6.60388 -24.07804,16.18417 -22.77378,-33.88173"
       id="path3067"
       style="font-size:56px;font-style:normal;font-variant:normal;font-weight:bold;font-stretch:normal;text-align:start;line-height:125%;writing-mode:lr-tb;text-anchor:start;fill:#000000;fill-opacity:1;stroke:#000000;stroke-opacity:1;font-family:DejaVu Sans;-inkscape-font-specification:DejaVu Sans Bold" />
    <path
       d="m 670.42792,677.00563 7.71284,-7.16499 16.65626,17.92988 c 2.29527,2.4708 4.33985,3.8682 6.13374,4.19222 1.79483,0.29829 3.6071,-0.40245 5.43683,-2.10221 1.84305,-1.71213 2.67518,-3.46796 2.49638,-5.26749 -0.17787,-1.82524 -1.41444,-3.97326 -3.7097,-6.44407 l -16.65626,-17.92986 7.71285,-7.16499 16.65626,17.92987 c 3.93296,4.23375 5.79922,8.37201 5.59877,12.41479 -0.20049,4.04284 -2.47768,8.08656 -6.83158,12.13119 -4.34057,4.03225 -8.53415,5.99966 -12.58075,5.90223 -4.04661,-0.0974 -8.0364,-2.26297 -11.96939,-6.4967 l -16.65625,-17.92986"
       id="path3069"
       style="font-size:56px;font-style:normal;font-variant:normal;font-weight:bold;font-stretch:normal;text-align:start;line-height:125%;writing-mode:lr-tb;text-anchor:start;fill:#000000;fill-opacity:1;stroke:#000000;stroke-opacity:1;font-family:DejaVu Sans;-inkscape-font-specification:DejaVu Sans Bold" />
    <path
       d="m 721.98142,649.52988 c 1.3423,-1.75025 1.9764,-3.25108 1.90232,-4.5025 -0.063,-1.26582 -0.83943,-2.47005 -2.32934,-3.6127 -1.47544,-1.13148 -2.82537,-1.55797 -4.04979,-1.27946 -1.21331,0.26412 -2.49111,1.2713 -3.83342,3.02155 l -2.69568,3.51503 8.31023,6.37312 2.69568,-3.51504 m 3.07592,7.94127 12.25922,9.4016 -6.4064,8.35362 -32.39471,-24.84349 9.78431,-12.75826 c 3.27255,-4.26719 6.38473,-6.84253 9.33655,-7.72607 2.96294,-0.89791 5.99217,-0.1599 9.08771,2.21402 2.14084,1.64186 3.499,3.51044 4.07447,5.60577 0.58656,2.08092 0.40659,4.41246 -0.53991,6.9946 1.13674,-0.94303 2.51189,-1.508 4.12545,-1.69489 1.61017,-0.2124 3.70325,-0.066 6.27924,0.43926 l 12.6776,2.52053 -6.8224,8.89607 -11.07833,-2.22446 c -2.23024,-0.44683 -3.95805,-0.48542 -5.18344,-0.11577 -1.21429,0.35525 -2.34283,1.21272 -3.3856,2.57242 l -1.81376,2.36505"
       id="path3071"
       style="font-size:56px;font-style:normal;font-variant:normal;font-weight:bold;font-stretch:normal;text-align:start;line-height:125%;writing-mode:lr-tb;text-anchor:start;fill:#000000;fill-opacity:1;stroke:#000000;stroke-opacity:1;font-family:DejaVu Sans;-inkscape-font-specification:DejaVu Sans Bold" />
    <path
       d="m 729.57878,610.35071 c -0.63096,1.01371 -1.03672,2.07093 -1.21731,3.17168 -0.18057,1.1008 -0.13355,2.24124 0.14107,3.42135 0.27463,1.18014 0.74129,2.23286 1.39996,3.15817 0.65095,0.92051 1.4794,1.69383 2.48534,2.31997 0.99821,0.62133 2.05397,1.02082 3.16729,1.19847 1.1056,0.17284 2.24844,0.12195 3.42857,-0.15268 1.18012,-0.27462 2.22803,-0.73353 3.14373,-1.37675 0.90794,-0.64802 1.67739,-1.47886 2.30836,-2.49256 0.63577,-1.0214 1.04394,-2.0825 1.22453,-3.18329 0.17764,-1.1133 0.12915,-2.26004 -0.14546,-3.44018 -0.27171,-1.16754 -0.73398,-2.20143 -1.38682,-3.10167 -0.64803,-0.90792 -1.47887,-1.67737 -2.49255,-2.30835 -1.02916,-0.64057 -2.09412,-1.05116 -3.19489,-1.23176 -1.10852,-0.18537 -2.24415,-0.14608 -3.4069,0.11786 -1.18012,0.27464 -2.22657,0.73984 -3.13934,1.39557 -0.90794,0.64806 -1.67981,1.48277 -2.31558,2.50417 m -1.19554,-0.74415 c 0.73212,-1.17615 1.62644,-2.13863 2.683,-2.88743 1.06137,-0.75648 2.27627,-1.29397 3.6447,-1.61244 1.36845,-0.31842 2.68955,-0.37109 3.96332,-0.15801 1.27378,0.21313 2.50649,0.69055 3.69815,1.43226 1.17617,0.73213 2.14106,1.62259 2.89466,2.67139 0.74584,1.04401 1.278,2.25022 1.59645,3.61865 0.31844,1.36846 0.37257,2.69584 0.1624,3.98215 -0.20538,1.27861 -0.67411,2.50599 -1.40621,3.68215 -0.73211,1.1762 -1.62885,2.14254 -2.69022,2.89905 -1.05655,0.74878 -2.26904,1.28239 -3.63748,1.60084 -1.36844,0.31845 -2.68568,0.37353 -3.95172,0.16523 -1.27377,-0.2131 -2.49874,-0.6857 -3.67492,-1.41782 -1.19166,-0.74173 -2.16427,-1.637 -2.91788,-2.68583 -0.75358,-1.04879 -1.2896,-2.25742 -1.60806,-3.62588 -0.31844,-1.36843 -0.37498,-2.69193 -0.16962,-3.97054 0.21019,-1.28631 0.68134,-2.51757 1.41343,-3.69377 m 4.61026,3.30443 -0.88864,1.42767 3.20354,1.99402 0.88864,-1.42766 c 0.52982,-0.85117 0.77833,-1.51778 0.74556,-1.99984 -0.0279,-0.48977 -0.33211,-0.91529 -0.91245,-1.27654 -0.5881,-0.36603 -1.10804,-0.45348 -1.55985,-0.26233 -0.45953,0.18636 -0.95181,0.70126 -1.4768,1.54468 m -1.14495,-0.82539 c 0.8477,-1.36188 1.71321,-2.23493 2.59652,-2.61917 0.87557,-0.38901 1.78151,-0.29214 2.71782,0.29063 0.66547,0.41424 1.08723,0.96128 1.26529,1.64109 0.18287,0.67212 0.10889,1.42054 -0.22195,2.24525 0.17748,-0.14718 0.49662,-0.25451 0.95735,-0.32204 0.45779,-0.0801 1.07992,-0.12226 1.86635,-0.12663 l 3.57816,0.021 -1.24266,1.99641 -3.35785,-0.0127 c -1.02703,-0.006 -1.72637,0.0742 -2.09803,0.24008 -0.37459,0.15336 -0.69192,0.43896 -0.95201,0.8568 l -0.47683,0.76606 4.13211,2.572 -1.11984,1.7991 -9.70348,-6.03987 2.05905,-3.30801"
       id="path3045"
       style="font-size:28px;font-style:normal;font-variant:normal;font-weight:normal;font-stretch:normal;text-align:start;line-height:125%;writing-mode:lr-tb;text-anchor:start;fill:#000000;fill-opacity:1;stroke:none;font-family:DejaVu Sans;-inkscape-font-specification:DejaVu Sans" />
  </g>
</svg>
