<?xml version="1.0" encoding="UTF-8" standalone="no"?>
<!-- Created with Inkscape (http://www.inkscape.org/) -->

<svg
   xmlns:dc="http://purl.org/dc/elements/1.1/"
   xmlns:cc="http://creativecommons.org/ns#"
   xmlns:rdf="http://www.w3.org/1999/02/22-rdf-syntax-ns#"
   xmlns:svg="http://www.w3.org/2000/svg"
   xmlns="http://www.w3.org/2000/svg"
   version="1.0"
   width="812.625"
   height="812.625"
   id="svg2">
  <defs
     id="defs4" />
  <metadata
     id="metadata7">
    <rdf:RDF>
      <cc:Work
         rdf:about="">
        <dc:format>image/svg+xml</dc:format>
        <dc:type
           rdf:resource="http://purl.org/dc/dcmitype/StillImage" />
        <dc:title></dc:title>
        <dc:creator>
          <cc:Agent>
            <dc:title>Tyler Tidman VA3DGN</dc:title>
          </cc:Agent>
        </dc:creator>
      </cc:Work>
    </rdf:RDF>
  </metadata>
  <g
     id="layer2"
     style="display:inline">
    <path
       d="M 406.3125,6 C 185.22956,6 6,185.22956 6,406.3125 6,627.39544 185.22956,806.625 406.3125,806.625 627.39544,806.625 806.625,627.39544 806.625,406.3125 806.625,185.22956 627.39544,6 406.3125,6 z M 405.75,110.625 c 162.36509,0 293.96875,131.60366 293.96875,293.96875 0,162.36509 -131.60366,294 -293.96875,294 -162.36509,0 -294,-131.63491 -294,-294 0,-162.36509 131.63491,-293.96875 294,-293.96875 z"
       id="circle3016-5"
       style="fill:#ffffff;fill-opacity:1;stroke:#000000;stroke-width:12.00000095;stroke-miterlimit:4;stroke-opacity:1;stroke-dasharray:none" />
    <path
       d="m 123.99995,176.1829 6.92721,5.1647 c -2.14399,1.19833 -4.058,2.49987 -5.74205,3.90462 -1.68402,1.40483 -3.09262,2.86718 -4.22582,4.38703 -1.50363,2.01682 -2.33735,3.71451 -2.50116,5.09307 -0.16377,1.37863 0.33891,2.50377 1.50804,3.37542 0.87688,0.65378 1.80347,0.84438 2.77977,0.57178 0.9726,-0.29805 2.27169,-1.17128 3.89725,-2.61968 l 3.40383,-3.05579 c 3.44382,-3.09414 6.4831,-4.85279 9.11785,-5.27594 2.63473,-0.42308 5.32586,0.38958 8.07337,2.43799 3.60973,2.69134 5.49792,5.77036 5.66456,9.23706 0.1629,3.44124 -1.39549,7.36131 -4.67517,11.76021 -1.54724,2.07526 -3.29721,4.01071 -5.24992,5.80636 -1.95272,1.79567 -4.09542,3.44968 -6.42811,4.96205 l -7.1245,-5.3118 c 2.66882,-1.26175 5.01279,-2.65201 7.03192,-4.17079 2.0154,-1.54426 3.69866,-3.22249 5.04977,-5.03469 1.37288,-1.84139 2.11744,-3.48049 2.23368,-4.91731 0.11622,-1.43677 -0.39563,-2.58011 -1.53554,-3.43002 -1.02301,-0.76269 -2.06279,-1.01495 -3.11935,-0.75676 -1.04567,0.24362 -2.52864,1.19576 -4.44893,2.85641 l -3.15866,2.72696 c -3.14219,2.75063 -6.04713,4.31384 -8.71483,4.68964 -2.65678,0.36122 -5.28586,-0.42792 -7.88723,-2.36743 -3.25898,-2.42978 -4.98084,-5.35068 -5.16556,-8.76269 -0.18468,-3.41196 1.19393,-7.09089 4.13582,-11.0368 1.34023,-1.79753 2.85741,-3.54273 4.55154,-5.23562 1.67955,-1.7037 3.54696,-3.36969 5.60222,-4.99798"
       id="path3032"
       style="font-size:56px;font-style:normal;font-variant:normal;font-weight:bold;font-stretch:normal;text-align:start;line-height:125%;writing-mode:lr-tb;text-anchor:start;fill:#000000;fill-opacity:1;stroke:#000000;stroke-opacity:1;font-family:DejaVu Sans;-inkscape-font-specification:DejaVu Sans Bold" />
    <path
       d="m 133.8736,162.43886 19.62497,-20.54257 5.7535,5.4965 -12.35296,12.93055 5.49647,5.25096 11.61632,-12.15947 5.75351,5.49651 -11.61633,12.15946 6.76185,6.45981 12.76851,-13.36553 5.75351,5.49651 -20.04052,20.97755 -29.51883,-28.20028"
       id="path3034"
       style="font-size:56px;font-style:normal;font-variant:normal;font-weight:bold;font-stretch:normal;text-align:start;line-height:125%;writing-mode:lr-tb;text-anchor:start;fill:#000000;fill-opacity:1;stroke:#000000;stroke-opacity:1;font-family:DejaVu Sans;-inkscape-font-specification:DejaVu Sans Bold" />
    <path
       d="m 187.52961,136.21754 c 1.71372,-1.38862 2.68061,-2.70001 2.90065,-3.93415 0.23419,-1.24556 -0.23975,-2.59775 -1.42182,-4.05659 -1.17061,-1.44459 -2.38371,-2.17437 -3.63932,-2.18933 -1.24144,-0.0263 -2.71903,0.65478 -4.43276,2.04339 l -3.44163,2.78879 6.59325,8.13668 3.44163,-2.78879 m 1.1375,8.43986 9.72633,12.0032 -8.17917,6.62768 -25.70163,-31.71819 12.49183,-10.12228 c 4.17811,-3.38551 7.80541,-5.16337 10.88193,-5.33355 3.09067,-0.18157 5.86399,1.24307 8.31997,4.27392 1.69851,2.09618 2.58303,4.23014 2.65357,6.4019 0.0847,2.16036 -0.63449,4.3855 -2.15752,6.67542 1.32545,-0.65168 2.79448,-0.88009 4.4071,-0.68523 1.61527,0.16929 3.61637,0.80019 6.00329,1.89269 l 11.73918,5.40983 -8.71029,7.05805 -10.25319,-4.74866 c -2.06435,-0.95503 -3.73543,-1.39582 -5.01325,-1.32237 -1.26367,0.062 -2.56117,0.63241 -3.89249,1.71118 l -2.31566,1.87641"
       id="path3036"
       style="font-size:56px;font-style:normal;font-variant:normal;font-weight:bold;font-stretch:normal;text-align:start;line-height:125%;writing-mode:lr-tb;text-anchor:start;fill:#000000;fill-opacity:1;stroke:#000000;stroke-opacity:1;font-family:DejaVu Sans;-inkscape-font-specification:DejaVu Sans Bold" />
    <path
       d="m 198.79064,104.3197 9.044,-5.494116 24.8991,20.131316 -6.41381,-31.360904 9.04401,-5.494123 8.27233,42.741457 -10.72661,6.51629 -34.11902,-27.03992"
       id="path3038"
       style="font-size:56px;font-style:normal;font-variant:normal;font-weight:bold;font-stretch:normal;text-align:start;line-height:125%;writing-mode:lr-tb;text-anchor:start;fill:#000000;fill-opacity:1;stroke:#000000;stroke-opacity:1;font-family:DejaVu Sans;-inkscape-font-specification:DejaVu Sans Bold" />
    <path
       d="m 244.09181,78.297148 9.49792,-4.540313 17.60698,36.832195 -9.49792,4.54032 -17.60698,-36.832202"
       id="path3040"
       style="font-size:56px;font-style:normal;font-variant:normal;font-weight:bold;font-stretch:normal;text-align:start;line-height:125%;writing-mode:lr-tb;text-anchor:start;fill:#000000;fill-opacity:1;stroke:#000000;stroke-opacity:1;font-family:DejaVu Sans;-inkscape-font-specification:DejaVu Sans Bold" />
    <path
       d="m 310.21848,92.917616 c -1.47173,1.604094 -3.10482,3.005092 -4.89928,4.203 -1.79453,1.19793 -3.76211,2.187328 -5.90275,2.968194 -6.38776,2.33016 -12.09798,2.39513 -17.13068,0.19491 -5.03896,-2.217325 -8.67353,-6.38286 -10.90373,-12.496617 -2.23643,-6.130842 -2.13769,-11.658233 0.29624,-16.582189 2.42769,-4.941009 6.83541,-8.576605 13.22316,-10.906799 2.14065,-0.780833 4.28315,-1.290724 6.42749,-1.529674 2.14431,-0.238852 4.29591,-0.21845 6.4548,0.06121 l 2.89551,7.93759 c -2.28847,-0.581673 -4.4294,-0.838814 -6.42282,-0.771424 -1.99345,0.06747 -3.97487,0.460394 -5.94427,1.178763 -3.52782,1.286932 -5.88982,3.429223 -7.08599,6.426881 -1.19618,2.997726 -1.06962,6.483109 0.3797,10.456157 1.44307,3.955971 3.5873,6.69564 6.43271,8.219015 2.84538,1.523405 6.03198,1.641655 9.55982,0.354749 1.96939,-0.718394 3.73841,-1.693576 5.30707,-2.925547 1.56861,-1.231935 3.04111,-2.807202 4.41752,-4.725806 l 2.8955,7.93759"
       id="path3042"
       style="font-size:56px;font-style:normal;font-variant:normal;font-weight:bold;font-stretch:normal;text-align:start;line-height:125%;writing-mode:lr-tb;text-anchor:start;fill:#000000;fill-opacity:1;stroke:#000000;stroke-opacity:1;font-family:DejaVu Sans;-inkscape-font-specification:DejaVu Sans Bold" />
    <path
       d="m 310.26919,52.924383 27.68092,-6.395606 1.79126,7.752788 -17.42379,4.025724 1.71124,7.406443 16.38476,-3.785657 1.79126,7.752788 -16.38476,3.785658 2.1052,9.111524 18.00991,-4.161145 1.79126,7.752788 -28.26704,6.531028 -9.19022,-39.776333"
       id="path3044"
       style="font-size:56px;font-style:normal;font-variant:normal;font-weight:bold;font-stretch:normal;text-align:start;line-height:125%;writing-mode:lr-tb;text-anchor:start;fill:#000000;fill-opacity:1;stroke:#000000;stroke-opacity:1;font-family:DejaVu Sans;-inkscape-font-specification:DejaVu Sans Bold" />
    <path
       d="m 385.57635,48.874878 0.89311,24.894141 3.77101,-0.135291 c 4.2993,-0.154236 7.5402,-1.3376 9.72272,-3.550096 2.20068,-2.213124 3.22816,-5.350935 3.08245,-9.413443 -0.14513,-4.044248 -1.38506,-7.082471 -3.71981,-9.11468 -2.33481,-2.032147 -5.66096,-2.970787 -9.97847,-2.815922 l -3.77101,0.135291 m -10.80587,-7.574472 11.09443,-0.398031 c 6.19391,-0.222175 10.81893,0.0588 13.87508,0.842915 3.07365,0.765329 5.73234,2.165697 7.97606,4.201106 1.97881,1.771371 3.47591,3.842722 4.49131,6.21406 1.01532,2.371398 1.57758,5.078237 1.68677,8.120526 0.11041,3.078767 -0.25544,5.846265 -1.09757,8.302502 -0.84285,2.438046 -2.18767,4.611356 -4.03445,6.519935 -2.11032,2.191658 -4.67971,3.788712 -7.70818,4.791165 -3.02918,0.98424 -7.60429,1.58616 -13.72533,1.805762 l -11.09442,0.398031 -1.4637,-40.797971"
       id="path3046"
       style="font-size:56px;font-style:normal;font-variant:normal;font-weight:bold;font-stretch:normal;text-align:start;line-height:125%;writing-mode:lr-tb;text-anchor:start;fill:#000000;fill-opacity:1;stroke:#000000;stroke-opacity:1;font-family:DejaVu Sans;-inkscape-font-specification:DejaVu Sans Bold" />
    <path
       d="m 431.92375,41.337613 -0.95428,15.145749 -6.46765,-0.407503 0.95428,-15.145748 6.46765,0.407502"
       id="path3048"
       style="font-size:56px;font-style:normal;font-variant:normal;font-weight:bold;font-stretch:normal;text-align:start;line-height:125%;writing-mode:lr-tb;text-anchor:start;fill:#000000;fill-opacity:1;stroke:#000000;stroke-opacity:1;font-family:DejaVu Sans;-inkscape-font-specification:DejaVu Sans Bold" />
    <path
       d="m 446.41232,42.255474 10.39178,1.68397 -3.91468,24.157528 c -0.53947,3.328981 -0.38601,5.80072 0.4604,7.415225 0.86728,1.599438 2.53355,2.598898 4.9988,2.998382 2.48321,0.402406 4.37984,-0.01969 5.68989,-1.266299 1.33091,-1.261675 2.26611,-3.556998 2.80559,-6.885976 l 3.91469,-24.157528 10.39178,1.68397 -3.91468,24.157528 c -0.92441,5.70424 -3.04313,9.719103 -6.35618,12.044601 -3.31312,2.325495 -7.90276,3.012941 -13.76891,2.062341 -5.84821,-0.947692 -9.97687,-3.047923 -12.386,-6.300697 -2.40915,-3.252771 -3.15154,-7.731272 -2.22717,-13.435517 l 3.91469,-24.157528"
       id="path3050"
       style="font-size:56px;font-style:normal;font-variant:normal;font-weight:bold;font-stretch:normal;text-align:start;line-height:125%;writing-mode:lr-tb;text-anchor:start;fill:#000000;fill-opacity:1;stroke:#000000;stroke-opacity:1;font-family:DejaVu Sans;-inkscape-font-specification:DejaVu Sans Bold" />
    <path
       d="m 505.67497,73.317267 c 2.10768,0.650246 3.73534,0.723152 4.88299,0.218716 1.165,-0.499031 2.02426,-1.645636 2.5778,-3.43982 0.54809,-1.776726 0.47878,-3.190724 -0.20795,-4.241998 -0.66938,-1.045854 -2.05791,-1.893908 -4.16559,-2.544165 l -4.23283,-1.305836 -3.08726,10.007266 4.23284,1.305837 m -6.37699,5.64438 -4.55431,14.762677 -10.05952,-3.103377 12.03465,-39.010049 15.36364,4.739703 c 5.13859,1.585306 8.63511,3.608293 10.48956,6.068966 1.87178,2.4661 2.23269,5.562977 1.08274,9.290641 -0.79536,2.57804 -2.07537,4.501 -3.84001,5.768886 -1.74731,1.273283 -3.99603,1.914934 -6.74616,1.924954 1.27935,0.738084 2.28706,1.831119 3.02316,3.27911 0.75881,1.435957 1.34904,3.449425 1.77068,6.040409 l 2.04314,12.763223 -10.71274,-3.304888 -1.76489,-11.160774 c -0.35621,-2.246493 -0.92058,-3.879985 -1.69311,-4.900481 -0.75517,-1.015108 -1.95144,-1.775235 -3.58881,-2.280382 l -2.84802,-0.878618"
       id="path3052"
       style="font-size:56px;font-style:normal;font-variant:normal;font-weight:bold;font-stretch:normal;text-align:start;line-height:125%;writing-mode:lr-tb;text-anchor:start;fill:#000000;fill-opacity:1;stroke:#000000;stroke-opacity:1;font-family:DejaVu Sans;-inkscape-font-specification:DejaVu Sans Bold" />
    <path
       d="m 560.22198,116.75149 c -2.91846,0.0416 -5.7923,-0.24814 -8.62154,-0.8693 -2.8293,-0.62119 -5.60574,-1.56991 -8.32933,-2.84616 -6.15704,-2.88514 -10.23036,-6.88751 -12.21995,-12.00713 -1.98189,-5.136115 -1.59214,-10.650633 1.16924,-16.54356 2.79229,-5.95892 6.82126,-9.788261 12.08691,-11.488035 5.26561,-1.699716 11.08422,-1.056749 17.45587,1.928904 2.45946,1.15253 4.70339,2.485851 6.73178,3.999966 2.0448,1.521896 3.85317,3.204731 5.42512,5.04851 l -3.58514,7.650887 c -1.51422,-2.138834 -3.15936,-3.97669 -4.93543,-5.513572 -1.75965,-1.529116 -3.66287,-2.773247 -5.70967,-3.732396 -3.79659,-1.779013 -7.22544,-2.087276 -10.28656,-0.92479 -3.03694,1.153754 -5.47972,3.703178 -7.32834,7.648279 -1.8332,3.912112 -2.25828,7.396943 -1.27526,10.454501 0.98299,3.057566 3.29849,5.441046 6.9465,7.150476 0.99038,0.46409 1.93358,0.8356 2.8296,1.11454 0.9202,0.27016 1.78058,0.43175 2.58115,0.48478 l 3.36469,-7.18044 -5.81863,-2.726562 2.99342,-6.388119 14.85609,6.961435 -8.33052,17.777786"
       id="path3054"
       style="font-size:56px;font-style:normal;font-variant:normal;font-weight:bold;font-stretch:normal;text-align:start;line-height:125%;writing-mode:lr-tb;text-anchor:start;fill:#000000;fill-opacity:1;stroke:#000000;stroke-opacity:1;font-family:DejaVu Sans;-inkscape-font-specification:DejaVu Sans Bold" />
    <path
       d="m 588.86981,89.8488 23.94878,15.28374 -4.28062,6.7075 -15.0746,-9.62037 -4.08939,6.40785 14.17565,9.04668 -4.28063,6.70751 -14.17565,-9.04668 -5.03083,7.88304 15.58169,9.944 -4.28063,6.7075 -24.45588,-15.60736 21.96211,-34.41341"
       id="path3056"
       style="font-size:56px;font-style:normal;font-variant:normal;font-weight:bold;font-stretch:normal;text-align:start;line-height:125%;writing-mode:lr-tb;text-anchor:start;fill:#000000;fill-opacity:1;stroke:#000000;stroke-opacity:1;font-family:DejaVu Sans;-inkscape-font-specification:DejaVu Sans Bold" />
    <path
       d="m 625.2727,113.94928 9.00002,7.5661 -6.65272,30.987 18.01786,-21.43261 7.63955,6.42239 -26.27019,31.2489 -9.00002,-7.5661 6.65273,-30.98699 -18.01787,21.4326 -7.63955,-6.42238 26.27019,-31.24891"
       id="path3058"
       style="font-size:56px;font-style:normal;font-variant:normal;font-weight:bold;font-stretch:normal;text-align:start;line-height:125%;writing-mode:lr-tb;text-anchor:start;fill:#000000;fill-opacity:1;stroke:#000000;stroke-opacity:1;font-family:DejaVu Sans;-inkscape-font-specification:DejaVu Sans Bold" />
    <path
       d="m 657.70794,198.61061 c -2.03917,-0.76217 -3.95064,-1.75013 -5.73443,-2.96388 -1.78382,-1.2138 -3.43931,-2.66627 -4.96645,-4.3574 -4.55707,-5.04641 -6.76024,-10.31489 -6.60953,-15.80546 0.16423,-5.50278 2.66131,-10.43496 7.49125,-14.79655 4.84345,-4.37378 10.0039,-6.35659 15.48138,-5.94843 5.49094,0.39597 10.51495,3.11714 15.07205,8.16353 1.52711,1.69116 2.80378,3.48571 3.83,5.38365 1.02612,1.89794 1.81467,3.89994 2.36565,6.00599 l -6.27079,5.66272 c -0.31967,-2.33949 -0.88478,-4.42045 -1.69534,-6.24288 -0.81065,-1.82242 -1.91845,-3.51157 -3.3234,-5.06743 -2.5168,-2.78701 -5.38893,-4.1724 -8.61639,-4.15618 -3.22753,0.0162 -6.41067,1.44157 -9.54942,4.27598 -3.12528,2.8222 -4.86001,5.83786 -5.2042,9.047 -0.34424,3.20912 0.74204,6.2072 3.25882,8.99423 1.40497,1.55584 2.97276,2.8296 4.70338,3.82127 1.73056,0.99163 3.7433,1.76533 6.03822,2.32112 l -6.2708,5.66272"
       id="path3060"
       style="font-size:56px;font-style:normal;font-variant:normal;font-weight:bold;font-stretch:normal;text-align:start;line-height:125%;writing-mode:lr-tb;text-anchor:start;fill:#000000;fill-opacity:1;stroke:#000000;stroke-opacity:1;font-family:DejaVu Sans;-inkscape-font-specification:DejaVu Sans Bold" />
    <path
       d="m 694.82743,183.70586 16.28041,23.28272 -6.52096,4.55977 -10.24772,-14.65534 -6.22965,4.35606 9.63662,13.7814 -6.52095,4.55977 -9.63662,-13.7814 -7.66381,5.3589 10.59245,15.14834 -6.52096,4.55977 -16.62513,-23.77572 33.45632,-23.39427"
       id="path3062"
       style="font-size:56px;font-style:normal;font-variant:normal;font-weight:bold;font-stretch:normal;text-align:start;line-height:125%;writing-mode:lr-tb;text-anchor:start;fill:#000000;fill-opacity:1;stroke:#000000;stroke-opacity:1;font-family:DejaVu Sans;-inkscape-font-specification:DejaVu Sans Bold" />
    <path
       d="m 198.06775,675.78822 c 1.76107,1.32808 3.26699,1.95001 4.51777,1.86579 1.26526,-0.0732 2.46317,-0.85941 3.59371,-2.35853 1.11949,-1.48455 1.53503,-2.83789 1.24662,-4.06001 -0.27394,-1.21113 -1.29144,-2.48074 -3.0525,-3.80882 l -3.53675,-2.66712 -6.3056,8.36157 3.53675,2.66712 m -7.91609,3.14014 -9.302,12.33496 -8.40524,-6.33852 24.58031,-32.59487 12.8371,9.68066 c 4.29354,3.23788 6.89401,6.3291 7.80142,9.27366 0.92187,2.95557 0.20842,5.99068 -2.14035,9.10535 -1.62446,2.15407 -3.48198,3.52731 -5.57257,4.11974 -2.07611,0.60339 -4.40902,0.44231 -6.99875,-0.48325 0.95221,1.12907 1.52829,2.4996 1.72826,4.11159 0.22542,1.6084 0.096,3.7026 -0.38839,6.28259 l -2.41777,12.6976 -8.95104,-6.75012 2.13465,-11.09599 c 0.42877,-2.23378 0.45336,-3.96185 0.0738,-5.1842 -0.36507,-1.21138 -1.23166,-2.33293 -2.59976,-3.36466 l -2.37966,-1.79454"
       id="path3007"
       style="font-size:56px;font-style:normal;font-variant:normal;font-weight:bold;font-stretch:normal;text-align:start;line-height:125%;writing-mode:lr-tb;text-anchor:start;fill:#000000;fill-opacity:1;stroke:#000000;stroke-opacity:1;font-family:DejaVu Sans;-inkscape-font-specification:DejaVu Sans Bold" />
    <path
       d="m 232.36194,716.481 -14.21418,-8.30178 -5.99407,5.11228 -9.13769,-5.33686 33.64617,-27.62607 10.83772,6.32976 -7.53174,42.87817 -9.13769,-5.33685 1.53148,-7.71865 m -8.12755,-13.51832 9.65714,5.64025 3.37469,-16.83852 -13.03183,11.19827"
       id="path3009"
       style="font-size:56px;font-style:normal;font-variant:normal;font-weight:bold;font-stretch:normal;text-align:start;line-height:125%;writing-mode:lr-tb;text-anchor:start;fill:#000000;fill-opacity:1;stroke:#000000;stroke-opacity:1;font-family:DejaVu Sans;-inkscape-font-specification:DejaVu Sans Bold" />
    <path
       d="m 267.54585,705.75132 -9.82359,22.89133 3.46762,1.4881 c 3.9534,1.69657 7.38927,2.01058 10.30762,0.94205 2.93503,-1.06135 5.20413,-3.45985 6.80728,-7.1955 1.59589,-3.71889 1.7722,-6.99565 0.52893,-9.83029 -1.24335,-2.83461 -3.85009,-5.10381 -7.82023,-6.80759 l -3.46763,-1.4881 m -6.53621,-11.46373 10.20184,4.37802 c 5.69557,2.44425 9.75764,4.67345 12.18623,6.68762 2.45244,2.00465 4.25845,4.4063 5.41806,7.20496 1.03281,2.44678 1.50194,4.9591 1.4074,7.53695 -0.0946,2.57788 -0.7422,5.26559 -1.94269,8.06313 -1.21497,2.83105 -2.72766,5.17726 -4.53808,7.03861 -1.80331,1.8446 -3.94745,3.23545 -6.43243,4.17256 -2.84416,1.08053 -5.84949,1.42736 -9.01602,1.04048 -3.15939,-0.40366 -7.55337,-1.81321 -13.18195,-4.22866 l -10.20185,-4.37803 16.09949,-37.51564"
       id="path3011"
       style="font-size:56px;font-style:normal;font-variant:normal;font-weight:bold;font-stretch:normal;text-align:start;line-height:125%;writing-mode:lr-tb;text-anchor:start;fill:#000000;fill-opacity:1;stroke:#000000;stroke-opacity:1;font-family:DejaVu Sans;-inkscape-font-specification:DejaVu Sans Bold" />
    <path
       d="m 300.58783,710.29999 10.01651,3.23954 -12.56268,38.84322 -10.01651,-3.23954 12.56268,-38.84322"
       id="path3013"
       style="font-size:56px;font-style:normal;font-variant:normal;font-weight:bold;font-stretch:normal;text-align:start;line-height:125%;writing-mode:lr-tb;text-anchor:start;fill:#000000;fill-opacity:1;stroke:#000000;stroke-opacity:1;font-family:DejaVu Sans;-inkscape-font-specification:DejaVu Sans Bold" />
    <path
       d="m 333.46426,726.64387 c -3.13173,-0.69701 -5.818,-0.081 -8.05883,1.84798 -2.24087,1.92905 -3.82863,4.99322 -4.76328,9.19252 -0.93072,4.18154 -0.79051,7.62098 0.42064,10.31832 1.21112,2.69736 3.38253,4.39455 6.51425,5.09159 3.14947,0.701 5.84464,0.087 8.08552,-1.84204 2.24082,-1.92902 3.8266,-4.98429 4.75734,-9.16583 0.93463,-4.1993 0.79639,-7.64764 -0.4147,-10.34501 -1.21117,-2.69732 -3.39149,-4.3965 -6.54094,-5.09753 m 1.65744,-7.44668 c 6.40571,1.4258 11.01562,4.3754 13.82973,8.84881 2.81402,4.47347 3.50224,9.93975 2.06464,16.39886 -1.43373,6.44134 -4.37346,11.09079 -8.81919,13.94837 -4.44581,2.85758 -9.87157,3.57348 -16.27729,2.14773 -6.38797,-1.42181 -10.99787,-4.37141 -13.82972,-8.84881 -2.81408,-4.47344 -3.50427,-9.93082 -2.07058,-16.37217 1.43763,-6.4591 4.37934,-11.11745 8.82513,-13.97506 4.46355,-2.85359 9.8893,-3.56949 16.27728,-2.14773"
       id="path3015"
       style="font-size:56px;font-style:normal;font-variant:normal;font-weight:bold;font-stretch:normal;text-align:start;line-height:125%;writing-mode:lr-tb;text-anchor:start;fill:#000000;fill-opacity:1;stroke:#000000;stroke-opacity:1;font-family:DejaVu Sans;-inkscape-font-specification:DejaVu Sans Bold" />
    <path
       d="m 398.93444,761.11508 -16.44635,-0.69294 -2.90844,7.32155 -10.57265,-0.44547 16.82625,-40.15148 12.53965,0.52834 13.38913,41.42458 -10.57265,-0.44547 -2.25494,-7.53911 m -13.50482,-8.14995 11.17368,0.4708 -4.88944,-16.46261 -6.28424,15.99181"
       id="path3017"
       style="font-size:56px;font-style:normal;font-variant:normal;font-weight:bold;font-stretch:normal;text-align:start;line-height:125%;writing-mode:lr-tb;text-anchor:start;fill:#000000;fill-opacity:1;stroke:#000000;stroke-opacity:1;font-family:DejaVu Sans;-inkscape-font-specification:DejaVu Sans Bold" />
    <path
       d="m 413.44935,728.40106 13.34142,-1.2348 11.27079,20.89788 7.29829,-22.61652 13.31419,-1.23228 3.76235,40.65048 -9.91077,0.91728 -2.75183,-29.7323 -7.33763,22.78492 -6.64348,0.61488 -11.39481,-21.05116 2.75183,29.7323 -9.93799,0.9198 -3.76236,-40.65048"
       id="path3019"
       style="font-size:56px;font-style:normal;font-variant:normal;font-weight:bold;font-stretch:normal;text-align:start;line-height:125%;writing-mode:lr-tb;text-anchor:start;fill:#000000;fill-opacity:1;stroke:#000000;stroke-opacity:1;font-family:DejaVu Sans;-inkscape-font-specification:DejaVu Sans Bold" />
    <path
       d="m 495.17623,750.03373 -16.06135,3.60492 -0.90579,7.82584 -10.32516,2.31745 5.81358,-43.14471 12.24611,-2.74861 23.69449,36.52172 -10.32516,2.31745 -4.13672,-6.69406 m -15.15882,-4.3603 10.91212,-2.4492 -8.99974,-14.62631 -1.91238,17.07551"
       id="path3021"
       style="font-size:56px;font-style:normal;font-variant:normal;font-weight:bold;font-stretch:normal;text-align:start;line-height:125%;writing-mode:lr-tb;text-anchor:start;fill:#000000;fill-opacity:1;stroke:#000000;stroke-opacity:1;font-family:DejaVu Sans;-inkscape-font-specification:DejaVu Sans Bold" />
    <path
       d="m 492.83297,716.52295 35.64626,-12.04096 2.54646,7.53856 -12.82333,4.3316 10.51834,31.13867 -9.9737,3.36901 -10.51834,-31.13866 -12.84923,4.34034 -2.54646,-7.53856"
       id="path3023"
       style="font-size:56px;font-style:normal;font-variant:normal;font-weight:bold;font-stretch:normal;text-align:start;line-height:125%;writing-mode:lr-tb;text-anchor:start;fill:#000000;fill-opacity:1;stroke:#000000;stroke-opacity:1;font-family:DejaVu Sans;-inkscape-font-specification:DejaVu Sans Bold" />
    <path
       d="m 529.47998,703.81644 25.82034,-11.85103 3.3192,7.23168 -16.25265,7.45965 3.17092,6.90862 15.28345,-7.01481 3.31921,7.23168 -15.28346,7.01481 3.90092,8.49909 16.79938,-7.71058 3.3192,7.23168 -26.36707,12.10197 -17.02944,-37.10276"
       id="path3025"
       style="font-size:56px;font-style:normal;font-variant:normal;font-weight:bold;font-stretch:normal;text-align:start;line-height:125%;writing-mode:lr-tb;text-anchor:start;fill:#000000;fill-opacity:1;stroke:#000000;stroke-opacity:1;font-family:DejaVu Sans;-inkscape-font-specification:DejaVu Sans Bold" />
    <path
       d="m 559.98791,689.68837 9.00051,-5.46038 12.6936,20.92327 c 1.74921,2.8833 3.46958,4.6647 5.16112,5.34419 1.69766,0.65449 3.61408,0.33405 5.74928,-0.96133 2.15075,-1.3048 3.32022,-2.85648 3.50839,-4.65505 0.19427,-1.82357 -0.58319,-4.177 -2.33238,-7.06031 l -12.6936,-20.92328 9.00051,-5.46037 12.6936,20.92327 c 2.99727,4.94057 3.98967,9.37039 2.97719,13.28946 -1.01254,3.91912 -4.05919,7.41986 -9.13998,10.50224 -5.06524,3.07295 -9.56966,4.15324 -13.51326,3.24089 -3.94363,-0.91234 -7.41408,-3.83878 -10.41138,-8.77933 l -12.6936,-20.92327"
       id="path3027"
       style="font-size:56px;font-style:normal;font-variant:normal;font-weight:bold;font-stretch:normal;text-align:start;line-height:125%;writing-mode:lr-tb;text-anchor:start;fill:#000000;fill-opacity:1;stroke:#000000;stroke-opacity:1;font-family:DejaVu Sans;-inkscape-font-specification:DejaVu Sans Bold" />
    <path
       d="m 617.40492,673.2795 c 1.73302,-1.36446 2.71819,-2.66217 2.95551,-3.89311 0.25163,-1.24215 -0.20331,-2.60086 -1.36482,-4.07612 -1.15024,-1.46086 -2.353,-2.20756 -3.60827,-2.24012 -1.24095,-0.0438 -2.72794,0.61659 -4.46097,1.98105 l -3.48038,2.74028 6.47855,8.2283 3.48038,-2.74028 m 1.01908,8.45497 9.55713,12.13835 -8.27127,6.51238 -25.2545,-32.07533 12.63248,-9.94618 c 4.22516,-3.32662 7.87703,-5.05345 10.95562,-5.1805 3.09291,-0.13822 5.84599,1.32515 8.25925,4.39013 1.66896,2.11978 2.52348,4.26593 2.56357,6.43846 0.0544,2.16134 -0.6959,4.37618 -2.25088,6.64452 1.33445,-0.63303 2.80654,-0.84082 4.41627,-0.62338 1.61275,0.19191 3.6048,0.8508 5.97618,1.97665 l 11.66219,5.57385 -8.80836,6.93526 -10.18562,-4.89192 c -2.05076,-0.98387 -3.7155,-1.44804 -4.99423,-1.39251 -1.26442,0.0443 -2.56978,0.59646 -3.91609,1.65646 l -2.34174,1.84376"
       id="path3029"
       style="font-size:56px;font-style:normal;font-variant:normal;font-weight:bold;font-stretch:normal;text-align:start;line-height:125%;writing-mode:lr-tb;text-anchor:start;fill:#000000;fill-opacity:1;stroke:#000000;stroke-opacity:1;font-family:DejaVu Sans;-inkscape-font-specification:DejaVu Sans Bold" />
    <path
       d="m 633.07664,635.86514 c -0.81354,0.87398 -1.41441,1.83384 -1.80262,2.87957 -0.38819,1.04578 -0.56062,2.17409 -0.51727,3.38496 0.0434,1.21089 0.29959,2.33354 0.76871,3.36794 0.46245,1.02821 1.12732,1.94598 1.99461,2.7533 0.86062,0.80114 1.82024,1.39557 2.87888,1.7833 1.05197,0.38154 2.18338,0.55062 3.39427,0.50727 1.21087,-0.0434 2.32731,-0.29291 3.34931,-0.7487 1.0153,-0.46198 1.92974,-1.12995 2.74329,-2.00393 0.81975,-0.88061 1.42372,-1.84381 1.81194,-2.88957 0.38773,-1.05863 0.55992,-2.19339 0.51658,-3.40428 -0.0429,-1.19798 -0.29844,-2.3013 -0.76664,-3.30998 -0.462,-1.01529 -1.12997,-1.92972 -2.00392,-2.74329 -0.88731,-0.82594 -1.85383,-1.43302 -2.89959,-1.82125 -1.05243,-0.39438 -2.17453,-0.57348 -3.36632,-0.53729 -1.21089,0.0434 -2.32708,0.29938 -3.34862,0.76802 -1.01531,0.46202 -1.93285,1.13332 -2.75261,2.01393 m -1.03074,-0.95949 c 0.94397,-1.01403 2.00618,-1.78726 3.18665,-2.31968 1.1867,-0.53903 2.48209,-0.8337 3.88619,-0.884 1.40411,-0.0502 2.71082,0.15127 3.92014,0.60453 1.2093,0.45331 2.32766,1.15814 3.35507,2.1145 1.01405,0.94398 1.79038,2.00286 2.329,3.17665 0.53192,1.16761 0.82302,2.45346 0.8733,3.85754 0.0503,1.40413 -0.15102,2.71728 -0.60384,3.93946 -0.44662,1.21553 -1.14191,2.33033 -2.08586,3.34438 -0.94397,1.01407 -2.00929,1.79062 -3.19597,2.32968 -1.18048,0.53241 -2.47276,0.82374 -3.87687,0.874 -1.40411,0.0503 -2.70748,-0.14813 -3.91012,-0.59521 -1.20932,-0.45328 -2.321,-1.15191 -3.33506,-2.09587 -1.0274,-0.95638 -1.81041,-2.02147 -2.34902,-3.19528 -0.53859,-1.17379 -0.83303,-2.46274 -0.88331,-3.86687 -0.0503,-1.40409 0.14792,-2.7139 0.59452,-3.92945 0.45284,-1.22217 1.15123,-2.34029 2.09518,-3.35438 m 3.89146,4.12678 -1.1458,1.23088 2.76198,2.57104 1.14579,-1.23088 c 0.68314,-0.73383 1.05481,-1.34046 1.11504,-1.81987 0.0664,-0.48604 -0.15053,-0.96196 -0.65088,-1.42775 -0.50704,-0.47196 -1.00058,-0.65744 -1.48065,-0.55643 -0.48673,0.0948 -1.06857,0.50584 -1.74548,1.23301 m -0.96554,-1.02954 c 1.09301,-1.17415 2.10981,-1.86514 3.05039,-2.07296 0.9339,-0.21399 1.80448,0.0547 2.61172,0.80614 0.57375,0.53411 0.88285,1.15184 0.92731,1.85317 0.0507,0.69472 -0.16539,1.41508 -0.64816,2.16109 0.2024,-0.11043 0.53619,-0.15461 1.00132,-0.13258 0.46466,0.009 1.08333,0.087 1.85602,0.23343 l 3.50781,0.70635 -1.60225,1.72124 -3.29318,-0.656 c -1.00687,-0.20255 -1.70858,-0.25804 -2.10515,-0.16648 -0.39703,0.0787 -0.76322,0.29821 -1.09857,0.65845 l -0.61482,0.66047 3.56255,3.31629 -1.44388,1.55111 -8.366,-7.78768 2.65489,-2.85204"
       id="path3004"
       style="font-size:28px;font-style:normal;font-variant:normal;font-weight:normal;font-stretch:normal;text-align:start;line-height:125%;writing-mode:lr-tb;text-anchor:start;fill:#000000;fill-opacity:1;stroke:none;font-family:DejaVu Sans;-inkscape-font-specification:DejaVu Sans" />
  </g>
</svg>
