<?xml version="1.0" encoding="UTF-8" standalone="no"?>
<!-- Created with Inkscape (http://www.inkscape.org/) -->

<svg
   xmlns:dc="http://purl.org/dc/elements/1.1/"
   xmlns:cc="http://creativecommons.org/ns#"
   xmlns:rdf="http://www.w3.org/1999/02/22-rdf-syntax-ns#"
   xmlns:svg="http://www.w3.org/2000/svg"
   xmlns="http://www.w3.org/2000/svg"
   version="1.0"
   width="599.97601"
   height="599.97601"
   id="svg2">
  <defs
     id="defs4" />
  <metadata
     id="metadata7">
    <rdf:RDF>
      <cc:Work
         rdf:about="">
        <dc:format>image/svg+xml</dc:format>
        <dc:type
           rdf:resource="http://purl.org/dc/dcmitype/StillImage" />
        <dc:title></dc:title>
        <dc:creator>
          <cc:Agent>
            <dc:title>Tyler Tidman VA3DGN</dc:title>
          </cc:Agent>
        </dc:creator>
      </cc:Work>
    </rdf:RDF>
  </metadata>
  <g
     transform="translate(-231.11366,-199.38194)"
     id="layer1"
     style="display:inline">
    <circle
       cx="70.722"
       cy="70.722"
       r="68.195999"
       transform="matrix(4.3109275,0,0,4.3109275,226.22425,194.49253)"
       id="circle3016"
       style="fill:#000000;fill-opacity:1;stroke:#ffdf27;stroke-width:2.7836237;stroke-miterlimit:4;stroke-opacity:1;stroke-dasharray:none;display:inline" />
    <path
       d="m 620.22931,460.54029 -17.99415,75.6453 -3.30036,0 0.13593,3.75052 13.91473,0.12271 -0.32741,-3.96979 -4.59682,-0.0965 3.70961,-20.06523 13.49232,-0.0965 4.50183,20.46284 -4.50183,0 0.20463,3.51961 32.45406,0 -0.0818,-3.60146 -4.82923,0 -17.43434,-75.5488 -15.34712,-0.12271 z m -2.07257,27.64842 5.99994,22.23998 -11.16823,0.10962 5.16829,-22.34961 z"
       id="path3272"
       style="fill:#fddf27;fill-opacity:1;fill-rule:evenodd;stroke:none" />
    <path
       d="m 579.01715,460.70399 c -17.12058,0.0682 -34.24115,0.13643 -51.36173,0.20463 5.33399,12.22313 10.66796,24.44628 16.00194,36.66941 -6.07065,14.05115 -12.14128,28.10229 -18.21193,42.15345 14.51497,0.0409 29.02996,0.0818 43.54493,0.12271 -0.31514,-1.07479 0.45749,-3.24996 -0.56285,-3.61139 -1.66769,-0.0376 -3.33536,-0.0752 -5.00305,-0.11289 0.0272,-12.49597 0.0546,-24.99194 0.0819,-37.48792 3.92235,1.04568 5.43584,4.86021 5.60211,8.71536 0.97592,8.05991 -0.37924,16.39765 1.8435,24.28296 1.86306,5.68517 6.74547,11.08551 13.13611,10.94464 4.74216,0.21729 9.65487,-1.67215 12.85455,-5.18634 1.43074,-1.53277 2.9136,-6.1033 1.34277,-6.60327 -1.71255,3.02025 -7.01885,3.70606 -5.76825,-0.90738 -0.19155,-6.1862 0.19105,-12.43675 -0.61681,-18.57839 -1.38695,-5.80076 -5.64934,-10.46012 -10.38669,-13.85442 4.48421,0.82979 7.70434,-3.2288 9.85163,-6.55503 2.86103,-5.71065 2.80597,-12.60995 1.21481,-18.68011 -1.75043,-6.13287 -7.23446,-10.75358 -13.5629,-11.51612 z m -15.59121,3.89092 c 2.4754,0.51781 4.53746,0.54367 5.64082,2.61768 1.32805,2.88608 0.55216,25.16916 -0.0583,25.84223 l -1.92022,2.11713 -3.45507,0.0341 c -0.36846,0.004 -0.21124,-21.13831 -0.20723,-30.61115 z"
       id="path4287"
       style="fill:#fddf27;fill-opacity:1;fill-rule:evenodd;stroke:none" />
    <path
       d="m 537.52232,546.91872 91.89868,54.7359 -14.11608,9.21869 68.56392,44.94105 -95.64379,-37.45088 19.01352,-18.72544 -69.71625,-52.71932 z"
       id="path4054"
       style="fill:#fddf27;fill-opacity:1;fill-rule:evenodd;stroke:none" />
    <path
       d="m 529.16788,450.41068 83.83235,-65.10692 4.32127,16.70886 65.68309,-47.24573 -68.27585,74.61366 -11.52334,-24.77517 -74.03752,45.8053 z"
       id="path4056"
       style="fill:#fddf27;fill-opacity:1;fill-rule:evenodd;stroke:none" />
    <path
       d="m 430.61027,388.19695 c -0.11564,0.14767 -2.04644,4.66658 -2.12814,4.74737 0.40805,0.56281 19.80622,26.81763 20.42191,27.37928 -0.0546,21.51326 -0.27283,43.31302 -0.3274,64.82628 -11.65017,-3.58782 -23.30036,-7.17564 -34.95053,-10.76346 3.54689,7.96686 7.09379,15.93374 10.64068,23.9006 -12.48234,2.30548 -24.96467,4.61096 -37.447,6.91644 11.04993,5.57954 22.09987,11.15906 33.1498,16.7386 -2.40097,6.71181 -4.80195,13.42362 -7.20292,20.13544 11.89573,0.0819 23.79147,0.1637 35.68719,0.24555 -0.0409,13.51912 -0.0818,40.50081 -0.12271,40.55735 -0.12101,-0.0136 -24.41978,0.24746 -24.67818,-0.0409 -0.0504,0.29127 2.74668,5.42838 2.82387,5.93422 0.39038,0.0702 48.80655,0.0833 49.15174,0.20463 0.0308,-0.10752 2.41859,-5.61387 2.61924,-5.93423 -0.77907,-0.17953 -25.32622,-0.24719 -25.33299,-0.12271 -0.0964,-0.34491 0.0819,-27.06552 0.12271,-40.59827 3.84701,0.0272 7.69403,0.0546 11.54104,0.0819 -3.53326,6.02972 -7.0665,12.05943 -10.59975,18.08915 12.98708,0.0955 25.97416,0.19098 38.96124,0.28648 9.35834,-20.10815 25.74956,-60.79332 26.28917,-61.83878 -0.67276,-1.36801 -32.53513,-75.55254 -33.00821,-76.65128 -2.05993,11.02266 -4.03076,21.51083 -6.09069,32.53348 -8.8263,-3.46504 -17.65262,-6.93009 -26.47892,-10.39512 4.70646,15.55176 9.41291,31.10351 14.11936,46.65527 -4.87015,-1.5006 -9.74031,-3.00122 -14.61047,-4.50182 0.0546,-22.18172 0.1091,-44.36344 0.16371,-66.54516 6.61978,-8.72488 13.27009,-17.42662 19.88988,-26.1515 l 0.3274,-0.49111 c -0.74209,-1.64118 -1.50881,-3.26991 -2.25091,-4.91108 -13.50547,-0.0955 -27.17465,-0.19099 -40.68012,-0.28648 z m 2.94665,4.58367 c 5.07478,0.0409 10.14956,0.0818 15.22435,0.12271 -0.0136,6.68453 -0.0272,13.36905 -0.0409,20.05359 -5.06114,-6.72546 -10.12229,-13.45091 -15.18343,-20.17636 z m 19.80802,0.1637 c 4.84288,0.0272 9.68574,0.0546 14.52862,0.0819 -4.85651,6.45261 -9.71303,13.43726 -14.56954,19.88988 0.0136,-6.47991 0.0272,-13.49183 0.0409,-19.97174 z m -24.26892,202.33656 c 0.74292,2.12824 2.16024,4.25361 3.06942,5.77052 0.4626,0.12245 25.43765,0.13512 38.14273,0.0819 1.00788,-2.42562 2.3212,-5.57413 2.20999,-5.68867 -13.46926,-0.0792 -29.42889,-0.13725 -43.42214,-0.1637 z m 21.28135,11.50011 c -8.07853,0.0118 -16.14055,0.0748 -16.32935,0.0409 0.25628,0.48404 2.3909,5.75165 2.82387,6.17978 0.55366,0.2859 27.33051,0.30108 27.95224,0.1637 -0.21453,-0.53337 2.6092,-5.57701 2.04629,-6.2207 -0.31032,-0.1501 -8.41452,-0.1751 -16.49305,-0.1637 z m 0.0818,11.7866 c -5.05117,0.024 -10.06874,0.075 -10.5179,0.0819 0.25563,0.4951 2.32166,5.63014 2.7011,6.09793 0.45348,0.24744 14.26484,-0.0145 15.6336,0.12271 0.61199,-1.18014 2.43113,-5.08149 2.90573,-6.26163 -0.58654,-0.0619 -5.67136,-0.065 -10.72253,-0.0409 z m -0.32741,12.64603 c -2.14284,0.0166 -4.28607,0.0409 -4.70645,0.0409 0.2963,0.54353 4.18075,8.81843 4.99293,9.00365 0.52776,-0.12127 4.61302,-7.96179 4.50183,-8.9218 -0.49141,-0.12179 -2.64546,-0.13941 -4.78831,-0.12271 z"
       id="path4326"
       style="fill:#fddf27;fill-opacity:1;fill-rule:evenodd;stroke:none" />
    <path
       d="m 451.2397,307.98763 c -27.93859,63.63943 -55.87718,126.26053 -83.81579,189.89996 27.93861,63.65303 55.8772,128.32442 83.81579,191.97747 27.95224,-63.65305 55.90448,-127.3061 83.85672,-190.95914 C 507.14418,435.26649 479.19194,371.62706 451.2397,307.98763 z m -0.24555,33.55906 c 24.20274,51.5448 44.17232,105.25766 67.27337,157.39535 -21.10103,53.11648 -44.29176,103.64004 -67.75967,155.83646 -23.29984,-51.28428 -44.92533,-104.28045 -67.78254,-155.86777 21.41503,-53.33408 44.9513,-104.73774 68.26884,-157.36404 z"
       id="path4419"
       style="fill:#fddf27;fill-opacity:1;fill-rule:evenodd;stroke:none" />
    <path
       d="m 706.50323,513.72932 c -0.11892,2.96527 0.17732,5.98024 -0.74045,8.84991 -0.72873,3.09119 -1.13158,6.30271 -2.83943,9.06319 -2.25364,4.67139 -6.26281,8.54999 -10.97793,10.68778 -5.18585,1.4607 -10.72959,-0.12441 -15.18921,-2.90728 -4.64586,-2.87532 -9.28711,-6.5518 -11.53924,-11.67139 -2.25948,-6.05834 -4.37064,-12.26465 -4.83127,-18.75936 -1.05249,-7.77821 -1.38649,-15.8855 1.0071,-23.45853 0.56333,-3.55833 2.16453,-6.72728 3.8819,-9.83863 2.22264,-4.09084 4.30752,-8.62358 8.44562,-11.13626 2.1587,-2.06693 4.94121,-3.1311 7.66337,-4.18622 3.27014,-1.01013 6.54614,-0.82976 9.86707,-0.17941 3.6927,-0.92976 5.85373,5.01498 9.0427,3.15146 1.42716,-1.59475 2.55879,-4.8248 5.11877,-4.26449 1.71666,-0.48379 1.45892,0.948 1.41599,2.17137 0.0618,8.80398 0.12376,17.60795 0.18555,26.41192 -2.88829,0.36951 -3.67717,-0.56438 -3.4706,-3.31558 -0.41172,-3.28748 -1.85858,-6.41238 -3.37892,-9.3441 -1.19166,-3.40595 -3.79766,-5.85752 -6.51715,-8.0378 -2.46206,-2.14336 -6.2097,-0.0617 -7.86441,2.2526 -3.47369,4.08485 -3.85434,9.74982 -3.65167,14.8821 0.39125,10.51813 -0.31254,21.03767 -0.0549,31.5579 -0.0377,5.81191 0.0233,11.98614 3.33807,17.02708 1.04643,3.1992 4.7232,4.05413 7.63044,3.04469 2.90235,-1.48045 5.78585,-3.52586 7.03743,-6.66353 1.69226,-3.42493 2.53773,-7.25458 3.25041,-10.99665 0.55255,-2.19024 -0.50805,-5.21408 2.63219,-4.34077 0.17953,0 0.35905,0 0.53858,0 z"
       id="path3277"
       style="fill:#fddf27;fill-opacity:1;fill-rule:evenodd;stroke:none" />
    <path
       d="m 316.43637,430.5558 -7.35412,-3.0383 5.46059,-13.21719 c 1.6427,-3.97609 1.91,-7.41591 0.80191,-10.31947 -1.10113,-2.92035 -3.53024,-5.15664 -7.28733,-6.70889 -3.74023,-1.54521 -7.01908,-1.67698 -9.83657,-0.39531 -2.81745,1.28175 -5.05102,3.91909 -6.7007,7.91201 l -5.46059,13.2172 -7.35412,-3.0383 4.23901,-10.26039 c 2.36663,-5.72826 4.54043,-9.82024 6.52141,-12.27597 1.97114,-2.47945 4.34804,-4.31793 7.13069,-5.51545 2.43252,-1.06597 4.93822,-1.5692 7.51713,-1.50969 2.57892,0.0596 5.27518,0.67059 8.08878,1.83296 2.8473,1.17639 5.21384,2.65706 7.09962,4.44202 1.86893,1.77808 3.28879,3.90313 4.25957,6.37514 1.11908,2.82921 1.50671,5.82956 1.16289,9.00105 -0.36069,3.16459 -1.71041,7.57731 -4.04916,13.2382 l -4.23901,10.26038"
       id="path3062"
       style="font-size:56px;font-style:normal;font-variant:normal;font-weight:bold;font-stretch:normal;text-align:start;line-height:125%;writing-mode:lr-tb;text-anchor:start;fill:#fddf27;fill-opacity:1;stroke:#fddf27;stroke-opacity:1;font-family:DejaVu Sans;-inkscape-font-specification:DejaVu Sans Bold" />
    <path
       d="m 329.78596,347.52885 -6.22905,20.90804 17.39168,-13.15694 -11.16263,-7.7511 m 28.35209,6.87069 -34.89632,25.46979 -10.30915,-7.15846 11.67267,-41.59582 33.5328,23.28449"
       id="path3064"
       style="font-size:56px;font-style:normal;font-variant:normal;font-weight:bold;font-stretch:normal;text-align:start;line-height:125%;writing-mode:lr-tb;text-anchor:start;fill:#fddf27;fill-opacity:1;stroke:#fddf27;stroke-opacity:1;font-family:DejaVu Sans;-inkscape-font-specification:DejaVu Sans Bold" />
    <path
       d="m 362.75157,337.75305 c -0.32013,1.15056 -0.18077,2.04483 0.41808,2.68279 0.59884,0.63798 1.4825,0.83359 2.65099,0.58683 1.16848,-0.24674 2.27772,-0.86291 3.32773,-1.84852 1.04999,-0.98558 1.73505,-2.05366 2.05518,-3.20422 0.32011,-1.15053 0.18075,-2.04479 -0.41808,-2.68278 -0.59885,-0.63796 -1.48252,-0.83357 -2.65099,-0.58684 -1.16849,0.24677 -2.27773,0.86295 -3.32773,1.84853 -1.05,0.98561 -1.73506,2.05368 -2.05518,3.20421 m -4.2722,4.79772 -13.73084,-32.52716 9.15095,-8.58966 38.96479,19.41673 -7.71551,7.24227 -29.26494,-15.39568 7.98538,17.85625 c 1.6234,-1.17377 3.33641,-1.91915 5.13904,-2.23614 2.39934,-0.42702 4.24776,0.0506 5.54527,1.43285 1.29748,1.38229 1.65729,3.25721 1.07944,5.62474 -0.56459,2.3551 -1.89023,4.51199 -3.97693,6.4707 -2.08671,1.95872 -4.32974,3.1516 -6.72908,3.57865 -2.39853,0.40128 -4.24031,-0.0826 -5.52533,-1.45156 -0.4117,-0.4386 -0.71911,-0.9126 -0.92224,-1.42199"
       id="path3066"
       style="font-size:56px;font-style:normal;font-variant:normal;font-weight:bold;font-stretch:normal;text-align:start;line-height:125%;writing-mode:lr-tb;text-anchor:start;fill:#fddf27;fill-opacity:1;stroke:#fddf27;stroke-opacity:1;font-family:DejaVu Sans;-inkscape-font-specification:DejaVu Sans Bold" />
    <path
       d="m 403.55309,292.21943 -5.20433,3.5309 -4.37525,-6.44884 -3.91456,2.65586 c -2.70021,1.832 -5.13503,2.72393 -7.30446,2.67578 -2.16457,-0.0734 -3.90698,-1.08311 -5.22724,-3.0291 -1.32024,-1.94594 -1.60937,-3.93061 -0.86741,-5.95402 0.74685,-2.04866 2.47037,-3.98899 5.17057,-5.82101 l 9.11889,-6.18676 2.41022,3.55252 -8.53057,5.78761 c -1.13136,0.76763 -1.85035,1.57484 -2.15696,2.42165 -0.30659,0.84688 -0.18868,1.67006 0.35374,2.46953 0.56291,0.82971 1.28449,1.27636 2.16475,1.33997 0.89535,0.0534 1.93134,-0.31901 3.10797,-1.11733 l 8.53057,-5.78761 6.72407,9.91085"
       id="path3068"
       style="font-size:56px;font-style:normal;font-variant:normal;font-weight:bold;font-stretch:normal;text-align:start;line-height:125%;writing-mode:lr-tb;text-anchor:start;fill:#fddf27;fill-opacity:1;stroke:#fddf27;stroke-opacity:1;font-family:DejaVu Sans;-inkscape-font-specification:DejaVu Sans Bold" />
    <path
       d="m 430.84649,278.36827 c -1.41649,-0.44617 -3.05707,-0.25353 -4.92175,0.57791 -1.86469,0.8315 -3.10439,1.92318 -3.71908,3.27505 -0.61471,1.35193 -0.55087,2.86032 0.19152,4.5252 0.74237,1.66492 1.82551,2.72879 3.24942,3.19162 1.41647,0.44621 3.05705,0.25357 4.92175,-0.57791 1.86467,-0.83146 3.10436,-1.92314 3.71908,-3.27506 0.60726,-1.36853 0.53971,-2.88525 -0.20265,-4.55017 -0.7424,-1.66488 -1.82183,-2.72042 -3.23829,-3.16664 m 2.96236,18.25916 c -5.17786,2.30881 -9.65526,2.98798 -13.43223,2.03751 -3.42893,-0.8861 -6.06024,-3.3853 -7.89392,-7.49762 -1.73717,-3.89585 -1.80814,-7.45688 -0.2129,-10.68309 1.60448,-3.25024 5.1205,-6.08546 10.54807,-8.50566 5.42757,-2.42013 9.87809,-3.13721 13.35158,-2.15124 3.48267,0.96196 6.09261,3.39086 7.82981,7.28669 0.86113,1.93131 1.31227,3.8159 1.3534,5.65376 l 13.58559,-6.05784 3.2405,7.26729 -28.3699,12.6502"
       id="path3070"
       style="font-size:56px;font-style:normal;font-variant:normal;font-weight:bold;font-stretch:normal;text-align:start;line-height:125%;writing-mode:lr-tb;text-anchor:start;fill:#fddf27;fill-opacity:1;stroke:#fddf27;stroke-opacity:1;font-family:DejaVu Sans;-inkscape-font-specification:DejaVu Sans Bold" />
    <path
       d="m 483.5064,260.70519 -6.10537,1.50891 -1.86973,-7.56534 -4.5923,1.13496 c -3.16772,0.78291 -5.76075,0.77594 -7.77911,-0.0209 -2.00504,-0.81887 -3.28966,-2.36976 -3.85387,-4.65267 -0.56419,-2.28284 -0.14774,-4.24474 1.24936,-5.88573 1.41042,-1.66297 3.69949,-2.88592 6.8672,-3.66884 l 10.69766,-2.64388 1.03,4.16758 -10.00749,2.4733 c -1.32726,0.32806 -2.2814,0.83615 -2.86243,1.52426 -0.58103,0.68819 -0.75565,1.50123 -0.52384,2.43912 0.24055,0.97335 0.76266,1.64236 1.56635,2.00703 0.82138,0.36036 1.92224,0.36995 3.30259,0.0288 l 10.00749,-2.4733 2.87349,11.62674"
       id="path3072"
       style="font-size:56px;font-style:normal;font-variant:normal;font-weight:bold;font-stretch:normal;text-align:start;line-height:125%;writing-mode:lr-tb;text-anchor:start;fill:#fddf27;fill-opacity:1;stroke:#fddf27;stroke-opacity:1;font-family:DejaVu Sans;-inkscape-font-specification:DejaVu Sans Bold" />
    <path
       d="m 491.27758,251.82857 -1.81815,-15.3694 6.27266,-0.74204 1.02151,8.6351 c 1.96542,-0.7648 3.37355,-1.19754 4.2244,-1.29823 3.72919,-0.44112 6.53768,-0.13089 8.42549,0.9307 1.88563,1.04355 2.97621,2.81441 3.27177,5.31258 0.30193,2.55254 -0.4204,4.59293 -2.167,6.12118 -1.73067,1.50805 -4.30673,2.46444 -7.72817,2.86916 -3.0413,0.3598 -5.64482,-0.002 -7.81057,-1.08604 -2.1679,-1.10188 -3.39855,-2.89289 -3.69194,-5.37301 m 11.00636,2.49772 c 0.99565,-0.11776 1.90858,-0.54699 2.73879,-1.28769 0.84614,-0.7609 1.19747,-1.74781 1.05401,-2.96073 -0.13494,-1.14046 -0.66422,-1.96812 -1.58785,-2.483 -0.90556,-0.51696 -1.93763,-0.70693 -3.09621,-0.5699 -1.24911,0.1478 -2.24671,0.55951 -2.99281,1.23514 -0.728,0.67355 -1.02026,1.61676 -0.87677,2.82963 0.13705,1.15861 0.70682,2.0182 1.70931,2.57877 1.00034,0.54251 2.01752,0.76177 3.05153,0.65778"
       id="path3074"
       style="font-size:56px;font-style:normal;font-variant:normal;font-weight:bold;font-stretch:normal;text-align:start;line-height:125%;writing-mode:lr-tb;text-anchor:start;fill:#fddf27;fill-opacity:1;stroke:#fddf27;stroke-opacity:1;font-family:DejaVu Sans;-inkscape-font-specification:DejaVu Sans Bold" />
    <path
       d="m 523.01768,273.8305 0.37924,-7.94799 14.28453,0.68159 c 4.29717,0.20505 7.62552,-0.70375 9.98504,-2.72641 2.37768,-2.02177 3.66341,-5.06291 3.85719,-9.1234 0.19285,-4.04226 -0.78924,-7.17335 -2.94627,-9.39329 -2.1571,-2.21989 -5.39333,-3.4328 -9.7087,-3.63874 l -14.28453,-0.6816 0.37924,-7.94799 11.08895,0.52912 c 6.19085,0.29544 10.77629,0.96136 13.75635,1.99776 2.99907,1.01914 5.53164,2.63647 7.59769,4.85201 1.8241,1.93031 3.14314,4.11936 3.95713,6.56716 0.8139,2.44785 1.14832,5.19216 1.00327,8.23295 -0.14687,3.07725 -0.74238,5.80456 -1.78652,8.18197 -1.04336,2.35921 -2.56484,4.41272 -4.56444,6.16054 -2.28583,2.00793 -4.97952,3.38501 -8.08108,4.13126 -3.10075,0.72804 -7.71013,0.9461 -13.82815,0.65417 l -11.08894,-0.52911"
       id="path3076"
       style="font-size:56px;font-style:normal;font-variant:normal;font-weight:bold;font-stretch:normal;text-align:start;line-height:125%;writing-mode:lr-tb;text-anchor:start;fill:#fddf27;fill-opacity:1;stroke:#fddf27;stroke-opacity:1;font-family:DejaVu Sans;-inkscape-font-specification:DejaVu Sans Bold" />
    <path
       d="m 618.53008,271.37535 -29.92033,-8.34581 c -1.96662,-0.54854 -3.62015,-0.48933 -4.9606,0.17763 -1.33559,0.64943 -2.24826,1.85208 -2.73802,3.60795 -0.39184,1.40472 -0.24775,2.61827 0.43227,3.64064 0.68488,1.00482 2.18621,1.83048 4.504,2.47698 l -2.13788,7.66446 c -6.09294,-1.69954 -10.09222,-3.95057 -11.99783,-6.75312 -1.90564,-2.80255 -2.32459,-6.11774 -1.25687,-9.94558 1.20974,-4.33703 3.52788,-7.21994 6.95443,-8.64873 3.43143,-1.44631 7.87755,-1.40787 13.33838,0.11531 l 29.92033,8.34582 -2.13788,7.66445"
       id="path3078"
       style="font-size:56px;font-style:normal;font-variant:normal;font-weight:bold;font-stretch:normal;text-align:start;line-height:125%;writing-mode:lr-tb;text-anchor:start;fill:#fddf27;fill-opacity:1;stroke:#fddf27;stroke-opacity:1;font-family:DejaVu Sans;-inkscape-font-specification:DejaVu Sans Bold" />
    <path
       d="m 632.06414,298.05471 -9.15745,-5.19288 6.744,-11.8928 c 2.14908,-3.78983 4.96247,-5.99798 8.4402,-6.62446 3.49354,-0.61746 7.77745,0.51252 12.85174,3.38995 5.07422,2.87745 8.22171,5.99299 9.44247,9.34664 1.24552,3.34679 0.81624,6.87546 -1.28785,10.58602 l -2.81899,4.97119 12.29715,6.97329 -3.92501,6.92161 -21.4546,-12.16618 6.744,-11.89279 c 0.89917,-1.58571 1.10791,-3.08096 0.62623,-4.48575 -0.48174,-1.40479 -1.61059,-2.61074 -3.38655,-3.61785 -1.77602,-1.0071 -3.39044,-1.35676 -4.84326,-1.049 -1.45287,0.30777 -2.6289,1.25451 -3.52808,2.84021 l -6.744,11.8928"
       id="path3081"
       style="font-size:56px;font-style:normal;font-variant:normal;font-weight:bold;font-stretch:normal;text-align:start;line-height:125%;writing-mode:lr-tb;text-anchor:start;fill:#fddf27;fill-opacity:1;stroke:#fddf27;stroke-opacity:1;font-family:DejaVu Sans;-inkscape-font-specification:DejaVu Sans Bold" />
    <path
       d="m 682.71033,321.65831 c 0.12468,1.47984 0.92547,2.92461 2.40237,4.33431 1.47685,1.40968 2.95732,2.14238 4.44138,2.1981 1.48402,0.0557 2.85537,-0.57576 4.11405,-1.8944 1.25862,-1.31865 1.8256,-2.71789 1.70093,-4.19773 -0.11214,-1.49303 -0.90664,-2.94439 -2.38349,-4.35408 -1.47691,-1.40969 -2.96366,-2.1358 -4.46027,-2.17833 -1.48406,-0.0557 -2.85541,0.57576 -4.11404,1.8944 -1.25867,1.31864 -1.82565,2.71789 -1.70093,4.19773 m 15.76926,-9.66968 22.46967,21.44745 -5.49402,5.75587 -10.76013,-10.27061 c -0.65631,1.7172 -1.71447,3.34062 -3.17447,4.87026 -2.94528,3.08561 -6.2259,4.50288 -9.84189,4.25184 -3.59026,-0.25168 -7.53476,-2.42911 -11.83352,-6.5323 -4.29878,-4.10322 -6.66398,-7.94844 -7.09559,-11.53566 -0.40585,-3.58782 0.86384,-6.92455 3.8091,-10.01018 3.10886,-3.25703 6.42694,-4.72676 9.95427,-4.40917 3.87672,0.37394 7.86557,2.5181 11.96658,6.4325"
       id="path3083"
       style="font-size:56px;font-style:normal;font-variant:normal;font-weight:bold;font-stretch:normal;text-align:start;line-height:125%;writing-mode:lr-tb;text-anchor:start;fill:#fddf27;fill-opacity:1;stroke:#fddf27;stroke-opacity:1;font-family:DejaVu Sans;-inkscape-font-specification:DejaVu Sans Bold" />
    <path
       d="m 734.56379,365.83898 -3.67442,-5.10401 6.32453,-4.55309 -2.76381,-3.8391 c -1.90647,-2.64816 -2.86584,-5.05721 -2.87811,-7.22714 0.0131,-2.16577 0.97392,-3.93562 2.8824,-5.30955 1.90842,-1.3739 3.88427,-1.71817 5.92756,-1.03283 2.06865,0.68952 4.05622,2.35835 5.9627,5.0065 l 6.43824,8.94311 -3.48404,2.50819 -6.02287,-8.36613 c -0.79882,-1.10955 -1.62574,-1.80579 -2.48076,-2.0887 -0.85509,-0.2829 -1.67466,-0.14211 -2.45872,0.42236 -0.81371,0.58578 -1.24011,1.31952 -1.27918,2.20121 -0.0285,0.8965 0.37265,1.92171 1.20342,3.07566 l 6.02287,8.36613 -9.71981,6.99739"
       id="path3085"
       style="font-size:56px;font-style:normal;font-variant:normal;font-weight:bold;font-stretch:normal;text-align:start;line-height:125%;writing-mode:lr-tb;text-anchor:start;fill:#fddf27;fill-opacity:1;stroke:#fddf27;stroke-opacity:1;font-family:DejaVu Sans;-inkscape-font-specification:DejaVu Sans Bold" />
    <path
       d="m 766.97352,377.0897 4.90814,9.31317 -36.11575,19.03339 -13.2456,-25.13347 7.0393,-3.70979 8.33747,15.8203 29.07644,-15.3236"
       id="path3087"
       style="font-size:56px;font-style:normal;font-variant:normal;font-weight:bold;font-stretch:normal;text-align:start;line-height:125%;writing-mode:lr-tb;text-anchor:start;fill:#fddf27;fill-opacity:1;stroke:#fddf27;stroke-opacity:1;font-family:DejaVu Sans;-inkscape-font-specification:DejaVu Sans Bold" />
    <path
       d="m 763.25434,426.41465 -1.13603,-3.13654 c -1.30988,-3.61647 -2.071,-6.41379 -2.28338,-8.39198 -0.19528,-1.98441 0.0197,-3.82657 0.64482,-5.52648 0.55008,-1.47885 1.34283,-2.71599 2.37825,-3.71142 1.05251,-1.00163 2.37577,-1.79111 3.96978,-2.36845 1.67965,-0.60836 3.23584,-0.86179 4.66857,-0.76029 1.44981,0.0953 2.85949,0.53474 4.22906,1.3183 1.56248,0.88818 2.89247,2.15139 3.98996,3.78964 1.36637,2.00615 2.63932,4.63748 3.81885,7.894 l 1.13603,3.13655 -4.03637,1.46194 -1.81579,-5.01333 c -0.86293,-2.3824 -2.19695,-4.13854 -4.00208,-5.26842 -1.60601,-1.00815 -3.5145,-1.11181 -5.72548,-0.31101 -2.05678,0.74494 -3.40481,2.02809 -4.04409,3.84947 -0.64554,1.80422 -0.50272,3.9918 0.42848,6.56275 l 1.81579,5.01333 -4.03637,1.46194"
       id="path3089"
       style="font-size:56px;font-style:normal;font-variant:normal;font-weight:bold;font-stretch:normal;text-align:start;line-height:125%;writing-mode:lr-tb;text-anchor:start;fill:#fddf27;fill-opacity:1;stroke:#fddf27;stroke-opacity:1;font-family:DejaVu Sans;-inkscape-font-specification:DejaVu Sans Bold" />
    <path
       d="m 390.46346,726.54914 3.72763,-7.02987 12.63445,6.69949 c 3.80077,2.01539 7.19927,2.61041 10.19548,1.78505 3.01227,-0.81682 5.4706,-3.02094 7.37502,-6.61238 1.8958,-3.57532 2.34051,-6.82655 1.33414,-9.75369 -1.00646,-2.92711 -3.41811,-5.40264 -7.23498,-7.42659 l -12.63445,-6.69949 3.72763,-7.02987 9.808,5.20075 c 5.4757,2.90356 9.34105,5.45871 11.59609,7.66544 2.27959,2.19921 3.88236,4.74102 4.80829,7.62544 0.82846,2.5233 1.08977,5.06565 0.78393,7.62704 -0.30595,2.56141 -1.17197,5.18688 -2.59807,7.87643 -1.44328,2.72176 -3.14347,4.93586 -5.10058,6.64232 -1.94865,1.69033 -4.19974,2.90046 -6.75326,3.63041 -2.92326,0.8434 -5.94692,0.94233 -9.071,0.29681 -3.11559,-0.66166 -7.37903,-2.42717 -12.79032,-5.29654 l -9.808,-5.20075"
       id="path3046"
       style="font-size:56px;font-style:normal;font-variant:normal;font-weight:bold;font-stretch:normal;text-align:start;line-height:125%;writing-mode:lr-tb;text-anchor:start;fill:#fddf27;fill-opacity:1;stroke:#fddf27;stroke-opacity:1;font-family:DejaVu Sans;-inkscape-font-specification:DejaVu Sans Bold" />
    <path
       d="m 454.76275,752.36612 c 1.73039,-5.55314 1.63959,-10.00648 -0.2724,-13.36004 -1.89476,-3.34773 -5.41693,-5.88636 -10.56653,-7.61587 l -5.59892,-1.8804 6.93832,-20.65897 9.97956,3.35163 -4.50948,13.42704 c 4.51615,1.43986 8.6822,4.75239 12.49818,9.93761 3.81591,5.18524 4.656,10.95748 2.52027,17.31675 l -1.78463,5.31379 -9.97956,-3.35164 0.77519,-2.4799"
       id="path3049"
       style="font-size:56px;font-style:normal;font-variant:normal;font-weight:bold;font-stretch:normal;text-align:start;line-height:125%;writing-mode:lr-tb;text-anchor:start;fill:#fddf27;fill-opacity:1;stroke:#fddf27;stroke-opacity:1;font-family:DejaVu Sans;-inkscape-font-specification:DejaVu Sans Bold" />
    <path
       d="m 471.31742,759.82294 3.65409,-21.48444 16.12006,2.74171 c 2.01274,0.34235 3.64976,0.12152 4.91108,-0.66249 1.26432,-0.80194 2.04932,-2.10147 2.355,-3.8986 0.30562,-1.79709 -0.007,-3.27408 -0.93829,-4.431 -0.93122,-1.15686 -2.40319,-1.90647 -4.41592,-2.24883 l -16.12007,-2.74171 1.27916,-7.5209 17.22529,2.92969 c 5.12172,0.87115 8.85431,2.68016 11.19778,5.42705 2.36441,2.73203 3.18902,6.20065 2.47384,10.40586 -0.71833,4.22323 -2.64635,7.24217 -5.78407,9.05683 -3.11676,1.79978 -7.236,2.2641 -12.35773,1.39298 l -6.84699,-1.16454 -2.37492,13.96354 -10.37831,-1.76515"
       id="path3051"
       style="font-size:56px;font-style:normal;font-variant:normal;font-weight:bold;font-stretch:normal;text-align:start;line-height:125%;writing-mode:lr-tb;text-anchor:start;fill:#fddf27;fill-opacity:1;stroke:#fddf27;stroke-opacity:1;font-family:DejaVu Sans;-inkscape-font-specification:DejaVu Sans Bold" />
    <path
       d="m 511.90573,766.04837 0.12075,-24.47235 c 0.0285,-5.77855 1.49893,-10.07343 4.41128,-12.88465 2.91233,-2.81114 7.3307,-4.20212 13.25512,-4.17293 5.94261,0.0294 10.35616,1.46392 13.24065,4.30366 2.88442,2.83983 4.3124,7.149 4.28392,12.92755 l -0.12074,24.47236 -10.52722,-0.0519 0.12075,-24.47236 c 0.0166,-3.37233 -0.5275,-5.78129 -1.63233,-7.2269 -1.08657,-1.46367 -2.88764,-2.20174 -5.40321,-2.21418 -2.49738,-0.0123 -4.30564,0.70796 -5.42479,2.16076 -1.10085,1.43472 -1.65959,3.83824 -1.67622,7.21057 l -0.12074,24.47236 -10.52722,-0.052"
       id="path3053"
       style="font-size:56px;font-style:normal;font-variant:normal;font-weight:bold;font-stretch:normal;text-align:start;line-height:125%;writing-mode:lr-tb;text-anchor:start;fill:#fddf27;fill-opacity:1;stroke:#fddf27;stroke-opacity:1;font-family:DejaVu Sans;-inkscape-font-specification:DejaVu Sans Bold" />
    <path
       d="m 582.12151,733.55766 -19.21799,10.3255 21.59262,3.05527 -2.37463,-13.38077 m 15.11942,24.94896 -42.66634,-6.7858 -2.19307,-12.35769 37.72598,-21.05267 7.13343,40.19616"
       id="path3055"
       style="font-size:56px;font-style:normal;font-variant:normal;font-weight:bold;font-stretch:normal;text-align:start;line-height:125%;writing-mode:lr-tb;text-anchor:start;fill:#fddf27;fill-opacity:1;stroke:#fddf27;stroke-opacity:1;font-family:DejaVu Sans;-inkscape-font-specification:DejaVu Sans Bold" />
    <path
       d="m 604.18269,716.96546 6.98925,-2.69875 2.42296,6.27503 -6.98925,2.69874 -2.42296,-6.27502 m 42.61661,15.02494 2.86619,7.4229 -28.97734,11.18895 c -5.28872,2.04212 -9.70718,2.51713 -13.2554,1.42505 -3.5548,-1.10909 -6.14313,-3.76381 -7.76501,-7.96417 -1.43144,-3.70718 -1.33376,-7.04731 0.29306,-10.0204 1.62683,-2.97304 5.39069,-5.59883 11.29159,-7.87736 l 2.86619,7.4229 c -2.24474,0.86677 -3.65628,1.8417 -4.23463,2.9248 -0.58494,1.06614 -0.61475,2.27942 -0.0894,3.63984 0.65662,1.70056 1.68417,2.81821 3.08266,3.35295 1.3919,0.51777 3.04016,0.40893 4.94479,-0.3265 l 28.9773,-11.18896"
       id="path3057"
       style="font-size:56px;font-style:normal;font-variant:normal;font-weight:bold;font-stretch:normal;text-align:start;line-height:125%;writing-mode:lr-tb;text-anchor:start;fill:#fddf27;fill-opacity:1;stroke:#fddf27;stroke-opacity:1;font-family:DejaVu Sans;-inkscape-font-specification:DejaVu Sans Bold" />
    <path
       d="m 662.51293,710.27847 -2.89878,1.65092 c -3.34231,1.90356 -5.97028,3.12753 -7.88391,3.67193 -1.92265,0.52861 -3.77459,0.62883 -5.55583,0.30066 -1.55066,-0.29162 -2.90421,-0.86335 -4.06065,-1.71519 -1.16545,-0.86763 -2.16767,-2.03804 -3.00668,-3.51121 -0.88409,-1.55233 -1.39747,-3.0431 -1.54013,-4.47232 -0.15167,-1.44499 0.0426,-2.90874 0.58287,-4.39125 0.61067,-1.69035 1.63033,-3.2151 3.05899,-4.57424 1.7457,-1.68645 4.12338,-3.38674 7.13304,-5.10086 l 2.89878,-1.65093 2.12455,3.7304 -4.6333,2.63877 c -2.2018,1.25403 -3.70658,2.86626 -4.51435,4.83669 -0.72153,1.75358 -0.50041,3.65205 0.66335,5.69542 1.08258,1.90086 2.57554,3.01205 4.47888,3.33357 1.8875,0.33059 4.01927,-0.18074 6.39533,-1.53398 l 4.63329,-2.63878 2.12455,3.7304"
       id="path3059"
       style="font-size:56px;font-style:normal;font-variant:normal;font-weight:bold;font-stretch:normal;text-align:start;line-height:125%;writing-mode:lr-tb;text-anchor:start;fill:#fddf27;fill-opacity:1;stroke:#fddf27;stroke-opacity:1;font-family:DejaVu Sans;-inkscape-font-specification:DejaVu Sans Bold" />
    <path
       d="m 675.09511,674.75648 c -0.90331,0.78085 -1.6045,1.67006 -2.10355,2.66767 -0.49906,0.99764 -0.79253,2.10068 -0.88044,3.30913 -0.0879,1.20848 0.0454,2.35225 0.39986,3.43133 0.34851,1.07221 0.9102,2.05651 1.68505,2.95292 0.7689,0.88953 1.65859,1.58429 2.66907,2.08427 1.00452,0.4931 2.11101,0.7836 3.31948,0.87149 1.20845,0.0879 2.34534,-0.0394 3.41064,-0.38198 1.05933,-0.34943 2.04065,-0.91456 2.94398,-1.69539 0.9102,-0.78677 1.61483,-1.67897 2.1139,-2.67661 0.49998,-1.01045 0.79392,-2.11993 0.88183,-3.32841 0.087,-1.19559 -0.0477,-2.32008 -0.40406,-3.37348 -0.34946,-1.05931 -0.91459,-2.04064 -1.6954,-2.94398 -0.79275,-0.91709 -1.68793,-1.62516 -2.68554,-2.12424 -1.0036,-0.50593 -2.09974,-0.80536 -3.28845,-0.89831 -1.20847,-0.0879 -2.34582,0.0459 -3.41204,0.40126 -1.05935,0.34946 -2.04412,0.91758 -2.95433,1.70433 m -0.92089,-1.06536 c 1.04812,-0.90596 2.18775,-1.55974 3.41889,-1.96133 1.23804,-0.4075 2.55771,-0.5603 3.95902,-0.45841 1.40129,0.10195 2.67853,0.44364 3.83172,1.02507 1.15317,0.58147 2.18872,1.40315 3.10664,2.46504 0.90598,1.04815 1.5632,2.1848 1.97168,3.40995 0.40248,1.21831 0.55278,2.52811 0.45086,3.92939 -0.10193,1.40132 -0.44409,2.68499 -1.02646,3.85101 -0.5755,1.16009 -1.38731,2.19312 -2.43542,3.0991 -1.04813,0.906 -2.19121,1.56276 -3.42924,1.97028 -1.23114,0.40157 -2.54737,0.55139 -3.94867,0.44946 -1.4013,-0.10191 -2.67557,-0.44016 -3.82279,-1.01472 -1.15317,-0.58144 -2.18275,-1.39623 -3.08875,-2.44436 -0.9179,-1.0619 -1.58109,-2.20545 -1.98956,-3.43064 -0.40846,-1.22517 -0.56173,-2.53841 -0.4598,-3.93973 0.10193,-1.40128 0.44063,-2.68197 1.01612,-3.84207 0.58239,-1.16601 1.39764,-2.20202 2.44576,-3.10804 m 3.42217,4.52353 -1.27222,1.0997 2.46763,2.85476 1.27223,-1.09971 c 0.7585,-0.65563 1.19363,-1.21848 1.30536,-1.68857 0.11863,-0.476 -0.0456,-0.97259 -0.49261,-1.48978 -0.45299,-0.52404 -0.92358,-0.76182 -1.41176,-0.71334 -0.49414,0.0416 -1.11701,0.38727 -1.86863,1.03694 m -0.84848,-1.12794 c 1.21361,-1.04902 2.29918,-1.62596 3.25673,-1.73081 0.95158,-0.1117 1.78797,0.24962 2.50919,1.08396 0.5126,0.59304 0.75306,1.24057 0.72139,1.94261 -0.0248,0.69611 -0.3175,1.38887 -0.87815,2.07828 0.21316,-0.0879 0.54977,-0.0957 1.00979,-0.0235 0.46094,0.0594 1.06756,0.20367 1.81988,0.43285 l 3.41081,1.08168 -1.77905,1.5378 -3.20289,-1.0084 c -0.97905,-0.31028 -1.67065,-0.44137 -2.07479,-0.39323 -0.40321,0.0353 -0.791,0.21388 -1.16335,0.53573 l -0.68266,0.59009 3.18289,3.68222 -1.60322,1.38581 -7.47442,-8.64702 2.94785,-2.54809"
       id="path3043"
       style="font-size:28px;font-style:normal;font-variant:normal;font-weight:normal;font-stretch:normal;text-align:start;line-height:125%;writing-mode:lr-tb;text-anchor:start;fill:#fddf27;fill-opacity:1;stroke:none;font-family:DejaVu Sans;-inkscape-font-specification:DejaVu Sans" />
  </g>
</svg>
