<?xml version="1.0" encoding="UTF-8" standalone="no"?>
<!-- Created with Inkscape (http://www.inkscape.org/) -->

<svg
   xmlns:i="http://ns.adobe.com/AdobeIllustrator/10.0/"
   xmlns:dc="http://purl.org/dc/elements/1.1/"
   xmlns:cc="http://creativecommons.org/ns#"
   xmlns:rdf="http://www.w3.org/1999/02/22-rdf-syntax-ns#"
   xmlns:svg="http://www.w3.org/2000/svg"
   xmlns="http://www.w3.org/2000/svg"
   xmlns:xlink="http://www.w3.org/1999/xlink"
   xmlns:sodipodi="http://sodipodi.sourceforge.net/DTD/sodipodi-0.dtd"
   xmlns:inkscape="http://www.inkscape.org/namespaces/inkscape"
   width="599.97601"
   height="599.97601"
   id="svg2"
   sodipodi:version="0.32"
   inkscape:version="0.48.3.1 r9886"
   version="1.0"
   sodipodi:docname="ares_ca.pdf"
   inkscape:output_extension="org.inkscape.output.svg.inkscape"
   inkscape:export-filename="/home/couch/Desktop/ares_ca.png"
   inkscape:export-xdpi="96"
   inkscape:export-ydpi="96">
  <defs
     id="defs4" />
  <sodipodi:namedview
     id="base"
     pagecolor="#ffffff"
     bordercolor="#666666"
     borderopacity="1.0"
     gridtolerance="10000"
     guidetolerance="10"
     objecttolerance="10"
     inkscape:pageopacity="0.0"
     inkscape:pageshadow="2"
     inkscape:zoom="1.2067149"
     inkscape:cx="299.98801"
     inkscape:cy="299.98801"
     inkscape:document-units="px"
     inkscape:current-layer="layer1"
     showgrid="false"
     showguides="true"
     inkscape:guide-bbox="true"
     inkscape:window-width="1400"
     inkscape:window-height="963"
     inkscape:window-x="0"
     inkscape:window-y="27"
     borderlayer="true"
     inkscape:window-maximized="1" />
  <metadata
     id="metadata7">
    <rdf:RDF>
      <cc:Work
         rdf:about="">
        <dc:format>image/svg+xml</dc:format>
        <dc:type
           rdf:resource="http://purl.org/dc/dcmitype/StillImage" />
        <dc:title></dc:title>
        <dc:creator>
          <cc:Agent>
            <dc:title>Tyler Tidman VA3DGN</dc:title>
          </cc:Agent>
        </dc:creator>
      </cc:Work>
    </rdf:RDF>
  </metadata>
  <g
     inkscape:groupmode="layer"
     id="layer2"
     inkscape:label="French"
     style="display:none"
     transform="translate(-105.5893,-104.08536)">
    <g
       id="g2885">
      <path
         id="path3037-3-4"
         d="M 135.87651,228.30672 C 233.11874,79.496734 432.58347,37.692844 581.3935,134.93509 730.20348,232.17733 772.00738,431.64202 674.76508,580.45197 577.52291,729.26203 378.05817,771.06595 229.2482,673.82374 80.43818,576.58148 38.63427,377.11672 135.87651,228.30672 z"
         style="fill:none;stroke:#fd1627;stroke-width:1.21367157;stroke-miterlimit:4;stroke-opacity:1" />
      <path
         id="path3037-3"
         d="M 169.58254,684.83184 C 323.91254,815.90358 555.27635,797.04903 686.34809,642.719 817.41978,488.38906 798.56524,257.02524 644.23516,125.95361 489.90524,-5.118178 258.54149,13.736344 127.46978,168.06633 -3.60196,322.39635 15.25255,553.76012 169.58254,684.83184 z"
         style="fill:none;stroke:#fd1627;stroke-width:1.38239872;stroke-miterlimit:4;stroke-opacity:1" />
      <path
         id="circle3016-5"
         d="M 406.3125,6 C 185.22956,6 6,185.22956 6,406.3125 6,627.39544 185.22956,806.625 406.3125,806.625 627.39544,806.625 806.625,627.39544 806.625,406.3125 806.625,185.22956 627.39544,6 406.3125,6 z M 405.75,110.625 c 162.36509,0 293.96875,131.60366 293.96875,293.96875 0,162.36509 -131.60366,294 -293.96875,294 -162.36509,0 -294,-131.63491 -294,-294 0,-162.36509 131.63491,-293.96875 294,-293.96875 z"
         style="fill:#000000;fill-opacity:1;stroke:#ffdf27;stroke-width:12.00000095;stroke-miterlimit:4;stroke-opacity:1;stroke-dasharray:none" />
      <text
         sodipodi:linespacing="125%"
         id="text2886"
         style="font-size:56px;font-style:normal;font-variant:normal;font-weight:bold;font-stretch:normal;text-align:start;line-height:125%;writing-mode:lr-tb;text-anchor:start;fill:#fddf27;fill-opacity:1;stroke:#fddf27;stroke-opacity:1;font-family:DejaVu Sans;-inkscape-font-specification:DejaVu Sans Bold"
         xml:space="preserve"
         transform="translate(0.27751646,-1.2285062)"><textPath
           id="textPath2991"
           xlink:href="#path3037-3-4">SERVICE D'URGENCE</textPath></text>
      <text
         sodipodi:linespacing="125%"
         id="text2886-8"
         style="font-size:56px;font-style:normal;font-variant:normal;font-weight:bold;font-stretch:normal;text-align:start;line-height:125%;writing-mode:lr-tb;text-anchor:start;fill:#fddf27;fill-opacity:1;stroke:#fddf27;stroke-opacity:1;font-family:DejaVu Sans;-inkscape-font-specification:DejaVu Sans Bold"
         xml:space="preserve"
         transform="translate(-0.85583378,-3.4952067)"><textPath
           id="textPath2983"
           xlink:href="#path3037-3"><tspan
   id="tspan2915">RADIO AMATEUR</tspan></textPath></text>
      <text
         transform="matrix(0.68135514,-0.73195298,0.73195298,0.68135514,0,0)"
         sodipodi:linespacing="125%"
         id="text2955-4-1"
         y="915.52686"
         x="-48.07336"
         style="font-size:28px;font-style:normal;font-variant:normal;font-weight:normal;font-stretch:normal;text-align:start;line-height:125%;writing-mode:lr-tb;text-anchor:start;fill:#fddf27;fill-opacity:1;stroke:none;display:inline;font-family:DejaVu Sans;-inkscape-font-specification:DejaVu Sans"
         xml:space="preserve"><tspan
           y="915.52686"
           x="-48.07336"
           id="tspan2957-7-7"
           sodipodi:role="line">®</tspan></text>
    </g>
  </g>
  <g
     inkscape:label="Layer 1"
     inkscape:groupmode="layer"
     id="layer1"
     transform="translate(-231.11366,-199.38194)"
     style="display:inline">
    <g
       id="g3850">
      <path
         id="path3037"
         d="M 277.7419,579.41076 C 321.10166,719.3146 469.66617,797.57905 609.57001,754.21929 749.47385,710.85953 827.73827,562.29502 784.37851,422.3912 741.01875,282.48735 592.45429,204.22292 452.55045,247.58268 312.6466,290.94245 234.38215,439.50692 277.7419,579.41076 z"
         style="fill:none;stroke:#fd1627;stroke-width:1;stroke-miterlimit:4;stroke-opacity:1"
         inkscape:connector-curvature="0" />
      <path
         transform="matrix(-2.7968594,-1.2631021,1.2631021,-2.7968594,1303.8349,1599.1589)"
         d="m 450.19121,223.02762 a 73.218826,73.218826 0 1 1 -146.43765,0 73.218826,73.218826 0 1 1 146.43765,0 z"
         sodipodi:ry="73.218826"
         sodipodi:rx="73.218826"
         sodipodi:cy="223.02762"
         sodipodi:cx="376.97238"
         id="path3037-6"
         style="fill:none;stroke:#fd1627;stroke-width:0.27608338;stroke-miterlimit:4;stroke-opacity:1;stroke-dasharray:none"
         sodipodi:type="arc" />
      <circle
         transform="matrix(4.3109275,0,0,4.3109275,226.22425,194.49253)"
         style="fill:#000000;fill-opacity:1;stroke:#ffdf27;stroke-width:2.7836237;stroke-miterlimit:4;stroke-opacity:1;stroke-dasharray:none;display:inline"
         sodipodi:ry="68.195999"
         sodipodi:rx="68.195999"
         sodipodi:cy="70.722"
         sodipodi:cx="70.722"
         i:knockout="Off"
         cx="70.722"
         cy="70.722"
         r="68.195999"
         id="circle3016"
         d="m 138.918,70.722 c 0,37.66361 -30.53239,68.196 -68.196,68.196 -37.66361,0 -68.195999,-30.53239 -68.195999,-68.196 0,-37.66361 30.532389,-68.195999 68.195999,-68.195999 37.66361,0 68.196,30.532389 68.196,68.195999 z" />
      <path
         style="fill:#ffffff;stroke:#db0029;stroke-width:5.05159998"
         i:knockout="Off"
         id="path3018"
         d=""
         inkscape:connector-curvature="0" />
      <path
         d=""
         id="path3030"
         i:knockout="Off"
         style="fill:none;stroke:#ffffff;stroke-width:1.06799972;stroke-linecap:square"
         inkscape:connector-curvature="0" />
      <path
         d=""
         id="path3042"
         i:knockout="Off"
         style="fill:none;stroke:#ffffff;stroke-width:1.06799972"
         inkscape:connector-curvature="0" />
      <path
         d=""
         id="path3044"
         i:knockout="Off"
         style="fill:none;stroke:#ffffff;stroke-width:1.06799972"
         inkscape:connector-curvature="0" />
      <path
         d=""
         id="path3048"
         i:knockout="Off"
         style="fill:none;stroke:#ffffff;stroke-width:1.06799972"
         inkscape:connector-curvature="0" />
      <path
         d=""
         id="path3052"
         i:knockout="Off"
         style="fill:none;stroke:#ffffff;stroke-width:1.06799972"
         inkscape:connector-curvature="0" />
      <path
         d=""
         id="path3080"
         i:knockout="Off"
         style="fill:none;stroke:#ffffff;stroke-width:1.06799972"
         inkscape:connector-curvature="0" />
      <path
         d=""
         id="path3082"
         i:knockout="Off"
         style="fill:none;stroke:#ffffff;stroke-width:1.06799972"
         inkscape:connector-curvature="0" />
      <path
         d=""
         id="path3084"
         i:knockout="Off"
         style="fill:none;stroke:#ffffff;stroke-width:1.06799972"
         inkscape:connector-curvature="0" />
      <path
         d=""
         id="path3088"
         i:knockout="Off"
         style="fill:none;stroke:#ffffff;stroke-width:1.06799972;stroke-linejoin:round"
         inkscape:connector-curvature="0" />
      <path
         d=""
         id="path3090"
         i:knockout="Off"
         style="fill:none;stroke:#ffffff;stroke-width:1.06799972;stroke-linejoin:round"
         inkscape:connector-curvature="0" />
      <path
         style="fill:#0c2e82;stroke:#000000;stroke-width:0.42099991"
         i:knockout="Off"
         id="path3136"
         d=""
         inkscape:connector-curvature="0" />
      <path
         style="fill:#0c2e82;stroke:#000000;stroke-width:0.42099991"
         i:knockout="Off"
         id="path3174"
         d=""
         inkscape:connector-curvature="0" />
      <path
         sodipodi:nodetypes="ccccccccccccccccccccc"
         id="path3272"
         d="m 620.22931,460.54029 -17.99415,75.6453 -3.30036,0 0.13593,3.75052 13.91473,0.12271 -0.32741,-3.96979 -4.59682,-0.0965 3.70961,-20.06523 13.49232,-0.0965 4.50183,20.46284 -4.50183,0 0.20463,3.51961 32.45406,0 -0.0818,-3.60146 -4.82923,0 -17.43434,-75.5488 -15.34712,-0.12271 z m -2.07257,27.64842 5.99994,22.23998 -11.16823,0.10962 5.16829,-22.34961 z"
         style="fill:#fddf27;fill-opacity:1;fill-rule:evenodd;stroke:#fddf27;stroke-opacity:1;stroke-width:0.25;stroke-miterlimit:4;stroke-dasharray:none"
         inkscape:connector-curvature="0" />
      <path
         sodipodi:nodetypes="cccccccccccccccccccccscsc"
         id="path4287"
         d="m 579.01715,460.70399 c -17.12058,0.0682 -34.24115,0.13643 -51.36173,0.20463 5.33399,12.22313 10.66796,24.44628 16.00194,36.66941 -6.07065,14.05115 -12.14128,28.10229 -18.21193,42.15345 14.51497,0.0409 29.02996,0.0818 43.54493,0.12271 -0.31514,-1.07479 0.45749,-3.24996 -0.56285,-3.61139 -1.66769,-0.0376 -3.33536,-0.0752 -5.00305,-0.11289 0.0272,-12.49597 0.0546,-24.99194 0.0819,-37.48792 3.92235,1.04568 5.43584,4.86021 5.60211,8.71536 0.97592,8.05991 -0.37924,16.39765 1.8435,24.28296 1.86306,5.68517 6.74547,11.08551 13.13611,10.94464 4.74216,0.21729 9.65487,-1.67215 12.85455,-5.18634 1.43074,-1.53277 2.9136,-6.1033 1.34277,-6.60327 -1.71255,3.02025 -7.01885,3.70606 -5.76825,-0.90738 -0.19155,-6.1862 0.19105,-12.43675 -0.61681,-18.57839 -1.38695,-5.80076 -5.64934,-10.46012 -10.38669,-13.85442 4.48421,0.82979 7.70434,-3.2288 9.85163,-6.55503 2.86103,-5.71065 2.80597,-12.60995 1.21481,-18.68011 -1.75043,-6.13287 -7.23446,-10.75358 -13.5629,-11.51612 z m -15.59121,3.89092 c 2.4754,0.51781 4.53746,0.54367 5.64082,2.61768 1.32805,2.88608 0.55216,25.16916 -0.0583,25.84223 l -1.92022,2.11713 -3.45507,0.0341 c -0.36846,0.004 -0.21124,-21.13831 -0.20723,-30.61115 z"
         style="fill:#fddf27;fill-opacity:1;fill-rule:evenodd;stroke:#fddf27;stroke-opacity:1;stroke-width:0.25000000000000000;stroke-miterlimit:4;stroke-dasharray:none"
         inkscape:connector-curvature="0" />
      <path
         sodipodi:nodetypes="ccccccc"
         id="path4054"
         d="m 537.52232,546.91872 91.89868,54.7359 -14.11608,9.21869 68.56392,44.94105 -95.64379,-37.45088 19.01352,-18.72544 -69.71625,-52.71932 z"
         style="fill:#fddf27;fill-opacity:1;fill-rule:evenodd;stroke:#fddf27;stroke-opacity:1;stroke-width:0.25;stroke-miterlimit:4;stroke-dasharray:none"
         inkscape:connector-curvature="0" />
      <path
         sodipodi:nodetypes="ccccccc"
         id="path4056"
         d="m 529.16788,450.41068 83.83235,-65.10692 4.32127,16.70886 65.68309,-47.24573 -68.27585,74.61366 -11.52334,-24.77517 -74.03752,45.8053 z"
         style="fill:#fddf27;fill-opacity:1;fill-rule:evenodd;stroke:#fddf27;stroke-opacity:1;stroke-width:0.25;stroke-miterlimit:4;stroke-dasharray:none"
         inkscape:connector-curvature="0" />
      <path
         id="path4326"
         transform="translate(231.11366,199.38194)"
         d="M 199.5 188.8125 C 199.38436 188.96017 197.4567 193.48171 197.375 193.5625 C 197.78305 194.12531 217.16556 220.37585 217.78125 220.9375 C 217.72665 242.45076 217.52332 264.26799 217.46875 285.78125 L 182.5 275 L 193.15625 298.90625 L 155.71875 305.8125 L 188.84375 322.5625 L 181.65625 342.6875 C 193.55198 342.7694 205.44803 342.85565 217.34375 342.9375 C 217.30285 356.45662 217.25966 383.44346 217.21875 383.5 C 217.09774 383.4864 192.78965 383.75711 192.53125 383.46875 C 192.48085 383.76002 195.29781 388.90041 195.375 389.40625 C 195.76538 389.47645 244.15481 389.47242 244.5 389.59375 C 244.5308 389.48623 246.92435 383.97661 247.125 383.65625 C 246.34593 383.47672 221.81927 383.40677 221.8125 383.53125 C 221.7161 383.18634 221.89669 356.47025 221.9375 342.9375 C 225.78451 342.9647 229.62174 343.00395 233.46875 343.03125 L 222.875 361.125 L 261.34375 361.40625 C 270.19819 341.01664 278.84003 320.49647 287.15625 299.5625 C 275.99288 274.36744 265.56317 248.78957 255.03125 223.28125 C 252.99698 234.1653 251.06752 244.54146 249.03125 255.4375 L 222.53125 245.0625 L 236.65625 291.6875 L 222.03125 287.1875 C 222.08585 265.00578 222.16414 242.83797 222.21875 220.65625 C 228.83853 211.93137 235.47396 203.22488 242.09375 194.5 L 242.4375 194 C 241.69541 192.35882 240.9296 190.73492 240.1875 189.09375 C 226.68203 188.99825 213.00547 188.90799 199.5 188.8125 z M 202.4375 193.40625 L 217.65625 193.53125 C 217.64265 200.21578 217.6387 206.87796 217.625 213.5625 L 202.4375 193.40625 z M 222.25 193.5625 C 227.09288 193.5897 231.93837 193.62895 236.78125 193.65625 C 231.92474 200.10886 227.07526 207.07863 222.21875 213.53125 C 222.23235 207.05134 222.2363 200.04241 222.25 193.5625 z M 197.96875 395.90625 C 198.71167 398.03449 200.15332 400.13934 201.0625 401.65625 C 201.5251 401.7787 226.48242 401.80322 239.1875 401.75 C 240.19538 399.32438 241.51746 396.17704 241.40625 396.0625 C 227.93699 395.9833 211.962 395.9327 197.96875 395.90625 z M 219.25 407.40625 C 211.17147 407.41805 203.1263 407.4714 202.9375 407.4375 C 203.19378 407.92154 205.31703 413.19687 205.75 413.625 C 206.30366 413.9109 233.09702 413.91863 233.71875 413.78125 C 233.50422 413.24788 236.31291 408.20619 235.75 407.5625 C 235.43968 407.4124 227.32853 407.39485 219.25 407.40625 z M 219.34375 419.1875 C 214.29258 419.2115 209.26166 419.27435 208.8125 419.28125 C 209.06813 419.77635 211.15181 424.90721 211.53125 425.375 C 211.98473 425.62244 225.78749 425.36279 227.15625 425.5 C 227.76824 424.31986 229.5879 420.39889 230.0625 419.21875 C 229.47596 419.15685 224.39492 419.1634 219.34375 419.1875 z M 219.03125 431.84375 C 216.88841 431.86035 214.73288 431.875 214.3125 431.875 C 214.6088 432.41853 218.50032 440.68978 219.3125 440.875 C 219.84026 440.75373 223.92369 432.92876 223.8125 431.96875 C 223.32109 431.84696 221.1741 431.82705 219.03125 431.84375 z "
         style="fill:#fddf27;fill-opacity:1;fill-rule:evenodd;stroke:#fddf27;stroke-opacity:1;stroke-width:0.25;stroke-miterlimit:4;stroke-dasharray:none" />
      <path
         sodipodi:nodetypes="cccccccccc"
         id="path4419"
         d="m 451.2397,307.98763 c -27.93859,63.63943 -55.87718,126.26053 -83.81579,189.89996 27.93861,63.65303 55.8772,128.32442 83.81579,191.97747 27.95224,-63.65305 55.90448,-127.3061 83.85672,-190.95914 C 507.14418,435.26649 479.19194,371.62706 451.2397,307.98763 z m -0.24555,33.55906 c 24.20274,51.5448 44.17232,105.25766 67.27337,157.39535 -21.10103,53.11648 -44.29176,103.64004 -67.75967,155.83646 -23.29984,-51.28428 -44.92533,-104.28045 -67.78254,-155.86777 21.41503,-53.33408 44.9513,-104.73774 68.26884,-157.36404 z"
         style="fill:#fddf27;fill-opacity:1;fill-rule:evenodd;stroke:#fddf27;stroke-opacity:1;stroke-width:1;stroke-miterlimit:4;stroke-dasharray:none"
         inkscape:connector-curvature="0" />
      <path
         id="path3277"
         d="m 706.50323,513.72932 c -0.11892,2.96527 0.17732,5.98024 -0.74045,8.84991 -0.72873,3.09119 -1.13158,6.30271 -2.83943,9.06319 -2.25364,4.67139 -6.26281,8.54999 -10.97793,10.68778 -5.18585,1.4607 -10.72959,-0.12441 -15.18921,-2.90728 -4.64586,-2.87532 -9.28711,-6.5518 -11.53924,-11.67139 -2.25948,-6.05834 -4.37064,-12.26465 -4.83127,-18.75936 -1.05249,-7.77821 -1.38649,-15.8855 1.0071,-23.45853 0.56333,-3.55833 2.16453,-6.72728 3.8819,-9.83863 2.22264,-4.09084 4.30752,-8.62358 8.44562,-11.13626 2.1587,-2.06693 4.94121,-3.1311 7.66337,-4.18622 3.27014,-1.01013 6.54614,-0.82976 9.86707,-0.17941 3.6927,-0.92976 5.85373,5.01498 9.0427,3.15146 1.42716,-1.59475 2.55879,-4.8248 5.11877,-4.26449 1.71666,-0.48379 1.45892,0.948 1.41599,2.17137 0.0618,8.80398 0.12376,17.60795 0.18555,26.41192 -2.88829,0.36951 -3.67717,-0.56438 -3.4706,-3.31558 -0.41172,-3.28748 -1.85858,-6.41238 -3.37892,-9.3441 -1.19166,-3.40595 -3.79766,-5.85752 -6.51715,-8.0378 -2.46206,-2.14336 -6.2097,-0.0617 -7.86441,2.2526 -3.47369,4.08485 -3.85434,9.74982 -3.65167,14.8821 0.39125,10.51813 -0.31254,21.03767 -0.0549,31.5579 -0.0377,5.81191 0.0233,11.98614 3.33807,17.02708 1.04643,3.1992 4.7232,4.05413 7.63044,3.04469 2.90235,-1.48045 5.78585,-3.52586 7.03743,-6.66353 1.69226,-3.42493 2.53773,-7.25458 3.25041,-10.99665 0.55255,-2.19024 -0.50805,-5.21408 2.63219,-4.34077 0.17953,0 0.35905,0 0.53858,0 z"
         style="fill:#fddf27;fill-opacity:1;fill-rule:evenodd;stroke:#fddf27;stroke-opacity:1;stroke-width:0.25;stroke-miterlimit:4;stroke-dasharray:none"
         inkscape:connector-curvature="0" />
      <text
         sodipodi:linespacing="125%"
         id="text2870"
         style="font-size:56px;font-style:normal;font-variant:normal;font-weight:bold;font-stretch:normal;text-align:start;line-height:125%;writing-mode:lr-tb;text-anchor:start;fill:#fddf27;fill-opacity:1;stroke:#fddf27;stroke-opacity:1;font-family:DejaVu Sans;-inkscape-font-specification:DejaVu Sans Bold"
         xml:space="preserve"><textPath
           id="textPath3884"
           xlink:href="#path3037-6"><tspan
   id="tspan2872">AMATEUR RADIO</tspan></textPath></text>
      <text
         sodipodi:linespacing="125%"
         id="text2870-1-8"
         style="font-size:56px;font-style:normal;font-variant:normal;font-weight:bold;font-stretch:normal;text-align:start;line-height:125%;writing-mode:lr-tb;text-anchor:start;fill:#fddf27;fill-opacity:1;stroke:#fddf27;stroke-opacity:1;font-family:DejaVu Sans;-inkscape-font-specification:DejaVu Sans Bold"
         xml:space="preserve"><textPath
           id="textPath3890"
           xlink:href="#path3037"><tspan
   id="tspan2926">EMERGENCY SERVICE</tspan></textPath></text>
      <text
         transform="matrix(0.34153139,-0.93987037,0.93987037,0.34153139,0,0)"
         sodipodi:linespacing="125%"
         id="text2955-4"
         y="914.79791"
         x="-274.90222"
         style="font-size:28px;font-style:normal;font-variant:normal;font-weight:normal;font-stretch:normal;text-align:start;line-height:125%;writing-mode:lr-tb;text-anchor:start;fill:#fddf27;fill-opacity:1;stroke:none;font-family:DejaVu Sans;-inkscape-font-specification:DejaVu Sans"
         xml:space="preserve"><tspan
           y="914.79791"
           x="-274.90222"
           id="tspan2957-7"
           sodipodi:role="line">®</tspan></text>
    </g>
  </g>
</svg>
