<?xml version="1.0" encoding="UTF-8" standalone="no"?>
<!-- Created with Inkscape (http://www.inkscape.org/) -->

<svg
   xmlns:dc="http://purl.org/dc/elements/1.1/"
   xmlns:cc="http://creativecommons.org/ns#"
   xmlns:rdf="http://www.w3.org/1999/02/22-rdf-syntax-ns#"
   xmlns:svg="http://www.w3.org/2000/svg"
   xmlns="http://www.w3.org/2000/svg"
   version="1.0"
   width="599.97601"
   height="599.97601"
   id="svg2">
  <defs
     id="defs4" />
  <metadata
     id="metadata7">
    <rdf:RDF>
      <cc:Work
         rdf:about="">
        <dc:format>image/svg+xml</dc:format>
        <dc:type
           rdf:resource="http://purl.org/dc/dcmitype/StillImage" />
        <dc:title></dc:title>
        <dc:creator>
          <cc:Agent>
            <dc:title>Tyler Tidman VA3DGN</dc:title>
          </cc:Agent>
        </dc:creator>
      </cc:Work>
    </rdf:RDF>
  </metadata>
  <g
     transform="translate(-231.11366,-199.38194)"
     id="layer1"
     style="display:inline">
    <circle
       cx="70.722"
       cy="70.722"
       r="68.195999"
       transform="matrix(4.3109275,0,0,4.3109275,226.22425,194.49253)"
       id="circle3016"
       style="fill:#000000;fill-opacity:1;stroke:#ffdf27;stroke-width:2.7836237;stroke-miterlimit:4;stroke-opacity:1;stroke-dasharray:none;display:inline" />
    <path
       d="m 620.22931,460.54029 -17.99415,75.6453 -3.30036,0 0.13593,3.75052 13.91473,0.12271 -0.32741,-3.96979 -4.59682,-0.0965 3.70961,-20.06523 13.49232,-0.0965 4.50183,20.46284 -4.50183,0 0.20463,3.51961 32.45406,0 -0.0818,-3.60146 -4.82923,0 -17.43434,-75.5488 -15.34712,-0.12271 z m -2.07257,27.64842 5.99994,22.23998 -11.16823,0.10962 5.16829,-22.34961 z"
       id="path3272"
       style="fill:#fddf27;fill-opacity:1;fill-rule:evenodd;stroke:#fddf27;stroke-width:0.25;stroke-miterlimit:4;stroke-opacity:1;stroke-dasharray:none" />
    <path
       d="m 579.01715,460.70399 c -17.12058,0.0682 -34.24115,0.13643 -51.36173,0.20463 5.33399,12.22313 10.66796,24.44628 16.00194,36.66941 -6.07065,14.05115 -12.14128,28.10229 -18.21193,42.15345 14.51497,0.0409 29.02996,0.0818 43.54493,0.12271 -0.31514,-1.07479 0.45749,-3.24996 -0.56285,-3.61139 -1.66769,-0.0376 -3.33536,-0.0752 -5.00305,-0.11289 0.0272,-12.49597 0.0546,-24.99194 0.0819,-37.48792 3.92235,1.04568 5.43584,4.86021 5.60211,8.71536 0.97592,8.05991 -0.37924,16.39765 1.8435,24.28296 1.86306,5.68517 6.74547,11.08551 13.13611,10.94464 4.74216,0.21729 9.65487,-1.67215 12.85455,-5.18634 1.43074,-1.53277 2.9136,-6.1033 1.34277,-6.60327 -1.71255,3.02025 -7.01885,3.70606 -5.76825,-0.90738 -0.19155,-6.1862 0.19105,-12.43675 -0.61681,-18.57839 -1.38695,-5.80076 -5.64934,-10.46012 -10.38669,-13.85442 4.48421,0.82979 7.70434,-3.2288 9.85163,-6.55503 2.86103,-5.71065 2.80597,-12.60995 1.21481,-18.68011 -1.75043,-6.13287 -7.23446,-10.75358 -13.5629,-11.51612 z m -15.59121,3.89092 c 2.4754,0.51781 4.53746,0.54367 5.64082,2.61768 1.32805,2.88608 0.55216,25.16916 -0.0583,25.84223 l -1.92022,2.11713 -3.45507,0.0341 c -0.36846,0.004 -0.21124,-21.13831 -0.20723,-30.61115 z"
       id="path4287"
       style="fill:#fddf27;fill-opacity:1;fill-rule:evenodd;stroke:#fddf27;stroke-width:0.25;stroke-miterlimit:4;stroke-opacity:1;stroke-dasharray:none" />
    <path
       d="m 537.52232,546.91872 91.89868,54.7359 -14.11608,9.21869 68.56392,44.94105 -95.64379,-37.45088 19.01352,-18.72544 -69.71625,-52.71932 z"
       id="path4054"
       style="fill:#fddf27;fill-opacity:1;fill-rule:evenodd;stroke:#fddf27;stroke-width:0.25;stroke-miterlimit:4;stroke-opacity:1;stroke-dasharray:none" />
    <path
       d="m 529.16788,450.41068 83.83235,-65.10692 4.32127,16.70886 65.68309,-47.24573 -68.27585,74.61366 -11.52334,-24.77517 -74.03752,45.8053 z"
       id="path4056"
       style="fill:#fddf27;fill-opacity:1;fill-rule:evenodd;stroke:#fddf27;stroke-width:0.25;stroke-miterlimit:4;stroke-opacity:1;stroke-dasharray:none" />
    <path
       d="m 430.61366,388.19444 c -0.11564,0.14767 -2.0433,4.66921 -2.125,4.75 0.40805,0.56281 19.79056,26.81335 20.40625,27.375 -0.0546,21.51326 -0.25793,43.33049 -0.3125,64.84375 l -34.96875,-10.78125 10.65625,23.90625 -37.4375,6.90625 33.125,16.75 -7.1875,20.125 c 11.89573,0.0819 23.79178,0.16815 35.6875,0.25 -0.0409,13.51912 -0.0841,40.50596 -0.125,40.5625 -0.12101,-0.0136 -24.4291,0.25711 -24.6875,-0.0312 -0.0504,0.29127 2.76656,5.43166 2.84375,5.9375 0.39038,0.0702 48.77981,0.0662 49.125,0.1875 0.0308,-0.10752 2.42435,-5.61714 2.625,-5.9375 -0.77907,-0.17953 -25.30573,-0.24948 -25.3125,-0.125 -0.0964,-0.34491 0.0842,-27.061 0.125,-40.59375 3.84701,0.0272 7.68424,0.0664 11.53125,0.0937 l -10.59375,18.09375 38.46875,0.28125 c 8.85444,-20.38961 17.49628,-40.90978 25.8125,-61.84375 -11.16337,-25.19506 -21.59308,-50.77293 -32.125,-76.28125 -2.03427,10.88405 -3.96373,21.26021 -6,32.15625 l -26.5,-10.375 14.125,46.625 -14.625,-4.5 c 0.0546,-22.18172 0.13289,-44.34953 0.1875,-66.53125 6.61978,-8.72488 13.25521,-17.43137 19.875,-26.15625 l 0.34375,-0.5 c -0.74209,-1.64118 -1.5079,-3.26508 -2.25,-4.90625 -13.50547,-0.0955 -27.18203,-0.18576 -40.6875,-0.28125 z m 2.9375,4.59375 15.21875,0.125 c -0.0136,6.68453 -0.0175,13.34671 -0.0312,20.03125 l -15.1875,-20.15625 z m 19.8125,0.15625 c 4.84288,0.0272 9.68837,0.0665 14.53125,0.0937 -4.85651,6.45261 -9.70599,13.42238 -14.5625,19.875 0.0136,-6.47991 0.0175,-13.48884 0.0312,-19.96875 z m -24.28125,202.34375 c 0.74292,2.12824 2.18457,4.23309 3.09375,5.75 0.4626,0.12245 25.41992,0.14697 38.125,0.0937 1.00788,-2.42562 2.32996,-5.57296 2.21875,-5.6875 -13.46926,-0.0792 -29.44425,-0.1298 -43.4375,-0.15625 z m 21.28125,11.5 c -8.07853,0.0118 -16.1237,0.0652 -16.3125,0.0312 0.25628,0.48404 2.37953,5.75937 2.8125,6.1875 0.55366,0.2859 27.34702,0.29363 27.96875,0.15625 -0.21453,-0.53337 2.59416,-5.57506 2.03125,-6.21875 -0.31032,-0.1501 -8.42147,-0.16765 -16.5,-0.15625 z m 0.0937,11.78125 c -5.05117,0.024 -10.08209,0.0869 -10.53125,0.0937 0.25563,0.4951 2.33931,5.62596 2.71875,6.09375 0.45348,0.24744 14.25624,-0.0122 15.625,0.125 0.61199,-1.18014 2.43165,-5.10111 2.90625,-6.28125 -0.58654,-0.0619 -5.66758,-0.0553 -10.71875,-0.0312 z m -0.3125,12.65625 c -2.14284,0.0166 -4.29837,0.0312 -4.71875,0.0312 0.2963,0.54353 4.18782,8.81478 5,9 0.52776,-0.12127 4.61119,-7.94624 4.5,-8.90625 -0.49141,-0.12179 -2.6384,-0.1417 -4.78125,-0.125 z"
       id="path4326"
       style="fill:#fddf27;fill-opacity:1;fill-rule:evenodd;stroke:#fddf27;stroke-width:0.25;stroke-miterlimit:4;stroke-opacity:1;stroke-dasharray:none" />
    <path
       d="m 451.2397,307.98763 c -27.93859,63.63943 -55.87718,126.26053 -83.81579,189.89996 27.93861,63.65303 55.8772,128.32442 83.81579,191.97747 27.95224,-63.65305 55.90448,-127.3061 83.85672,-190.95914 C 507.14418,435.26649 479.19194,371.62706 451.2397,307.98763 z m -0.24555,33.55906 c 24.20274,51.5448 44.17232,105.25766 67.27337,157.39535 -21.10103,53.11648 -44.29176,103.64004 -67.75967,155.83646 -23.29984,-51.28428 -44.92533,-104.28045 -67.78254,-155.86777 21.41503,-53.33408 44.9513,-104.73774 68.26884,-157.36404 z"
       id="path4419"
       style="fill:#fddf27;fill-opacity:1;fill-rule:evenodd;stroke:#fddf27;stroke-width:1;stroke-miterlimit:4;stroke-opacity:1;stroke-dasharray:none" />
    <path
       d="m 706.50323,513.72932 c -0.11892,2.96527 0.17732,5.98024 -0.74045,8.84991 -0.72873,3.09119 -1.13158,6.30271 -2.83943,9.06319 -2.25364,4.67139 -6.26281,8.54999 -10.97793,10.68778 -5.18585,1.4607 -10.72959,-0.12441 -15.18921,-2.90728 -4.64586,-2.87532 -9.28711,-6.5518 -11.53924,-11.67139 -2.25948,-6.05834 -4.37064,-12.26465 -4.83127,-18.75936 -1.05249,-7.77821 -1.38649,-15.8855 1.0071,-23.45853 0.56333,-3.55833 2.16453,-6.72728 3.8819,-9.83863 2.22264,-4.09084 4.30752,-8.62358 8.44562,-11.13626 2.1587,-2.06693 4.94121,-3.1311 7.66337,-4.18622 3.27014,-1.01013 6.54614,-0.82976 9.86707,-0.17941 3.6927,-0.92976 5.85373,5.01498 9.0427,3.15146 1.42716,-1.59475 2.55879,-4.8248 5.11877,-4.26449 1.71666,-0.48379 1.45892,0.948 1.41599,2.17137 0.0618,8.80398 0.12376,17.60795 0.18555,26.41192 -2.88829,0.36951 -3.67717,-0.56438 -3.4706,-3.31558 -0.41172,-3.28748 -1.85858,-6.41238 -3.37892,-9.3441 -1.19166,-3.40595 -3.79766,-5.85752 -6.51715,-8.0378 -2.46206,-2.14336 -6.2097,-0.0617 -7.86441,2.2526 -3.47369,4.08485 -3.85434,9.74982 -3.65167,14.8821 0.39125,10.51813 -0.31254,21.03767 -0.0549,31.5579 -0.0377,5.81191 0.0233,11.98614 3.33807,17.02708 1.04643,3.1992 4.7232,4.05413 7.63044,3.04469 2.90235,-1.48045 5.78585,-3.52586 7.03743,-6.66353 1.69226,-3.42493 2.53773,-7.25458 3.25041,-10.99665 0.55255,-2.19024 -0.50805,-5.21408 2.63219,-4.34077 0.17953,0 0.35905,0 0.53858,0 z"
       id="path3277"
       style="fill:#fddf27;fill-opacity:1;fill-rule:evenodd;stroke:#fddf27;stroke-width:0.25;stroke-miterlimit:4;stroke-opacity:1;stroke-dasharray:none" />
    <path
       d="m 333.90054,376.59912 -8.17339,14.28839 5.16606,5.94777 -5.25433,9.1854 -27.92803,-33.39595 6.23187,-10.8943 42.94428,7.14518 -5.25433,9.1854 -7.73213,-1.46189 m -13.44455,8.24899 5.55302,-9.70756 -16.86823,-3.22286 11.31521,12.93042"
       id="path3083"
       style="font-size:56px;font-style:normal;font-variant:normal;font-weight:bold;font-stretch:normal;text-align:start;line-height:125%;writing-mode:lr-tb;text-anchor:start;fill:#fddf27;fill-opacity:1;stroke:#fddf27;stroke-opacity:1;font-family:DejaVu Sans;-inkscape-font-specification:DejaVu Sans Bold" />
    <path
       d="m 319.90444,336.73819 9.04273,-9.88672 22.39595,7.88502 -9.80995,-21.64571 9.02428,-9.86654 30.12422,27.55264 -6.71746,7.34442 -22.03325,-20.15237 9.8941,21.79679 -4.50291,4.92319 -22.59083,-7.91504 22.03325,20.15237 -6.73591,7.3646 -30.12422,-27.55265"
       id="path3085"
       style="font-size:56px;font-style:normal;font-variant:normal;font-weight:bold;font-stretch:normal;text-align:start;line-height:125%;writing-mode:lr-tb;text-anchor:start;fill:#fddf27;fill-opacity:1;stroke:#fddf27;stroke-opacity:1;font-family:DejaVu Sans;-inkscape-font-specification:DejaVu Sans Bold" />
    <path
       d="m 405.00185,304.08126 -13.4148,9.53968 2.19334,7.56661 -8.62381,6.13265 -11.33614,-42.0328 10.22823,-7.27361 35.98194,24.50641 -8.6238,6.13265 -6.40496,-4.57159 m -15.66508,1.84581 9.11404,-6.48128 -13.95879,-10.00381 4.84475,16.48509"
       id="path3087"
       style="font-size:56px;font-style:normal;font-variant:normal;font-weight:bold;font-stretch:normal;text-align:start;line-height:125%;writing-mode:lr-tb;text-anchor:start;fill:#fddf27;fill-opacity:1;stroke:#fddf27;stroke-opacity:1;font-family:DejaVu Sans;-inkscape-font-specification:DejaVu Sans Bold" />
    <path
       d="m 399.36639,267.96615 33.92851,-16.26335 3.43942,7.17529 -12.20539,5.85055 14.20679,29.63813 -9.49308,4.55043 -14.20679,-29.63813 -12.23005,5.86237 -3.43941,-7.17529"
       id="path3089"
       style="font-size:56px;font-style:normal;font-variant:normal;font-weight:bold;font-stretch:normal;text-align:start;line-height:125%;writing-mode:lr-tb;text-anchor:start;fill:#fddf27;fill-opacity:1;stroke:#fddf27;stroke-opacity:1;font-family:DejaVu Sans;-inkscape-font-specification:DejaVu Sans Bold" />
    <path
       d="m 445.01834,247.69272 27.32077,-7.7918 2.18231,7.65192 -17.1971,4.90456 2.08481,7.31008 16.17159,-4.61209 2.1823,7.65192 -16.17158,4.61209 2.56477,8.99298 17.7756,-5.06955 2.1823,7.65192 -27.89927,7.9568 -11.1965,-39.25883"
       id="path3091"
       style="font-size:56px;font-style:normal;font-variant:normal;font-weight:bold;font-stretch:normal;text-align:start;line-height:125%;writing-mode:lr-tb;text-anchor:start;fill:#fddf27;fill-opacity:1;stroke:#fddf27;stroke-opacity:1;font-family:DejaVu Sans;-inkscape-font-specification:DejaVu Sans Bold" />
    <path
       d="m 489.51801,236.38055 10.48303,-0.96485 2.24296,24.36965 c 0.30907,3.35822 1.07502,5.71329 2.29784,7.06523 1.23927,1.33214 3.10235,1.88376 5.58926,1.65486 2.50501,-0.23055 4.2361,-1.11297 5.19329,-2.64727 0.97361,-1.5541 1.30589,-4.01025 0.99683,-7.36847 l -2.24296,-24.36965 10.48304,-0.96485 2.24296,24.36965 c 0.52958,5.75434 -0.51925,10.17114 -3.14648,13.2504 -2.62731,3.07928 -6.89979,4.89125 -12.81746,5.4359 -5.89956,0.54299 -10.42193,-0.4595 -13.56712,-3.00749 -3.1452,-2.54797 -4.98262,-6.69912 -5.51223,-12.45346 l -2.24296,-24.36965"
       id="path3093"
       style="font-size:56px;font-style:normal;font-variant:normal;font-weight:bold;font-stretch:normal;text-align:start;line-height:125%;writing-mode:lr-tb;text-anchor:start;fill:#fddf27;fill-opacity:1;stroke:#fddf27;stroke-opacity:1;font-family:DejaVu Sans;-inkscape-font-specification:DejaVu Sans Bold" />
    <path
       d="m 555.98887,252.98604 c 2.19325,0.23414 3.80469,-0.006 4.83435,-0.72142 1.04773,-0.71311 1.67125,-2.00318 1.87057,-3.8702 0.19732,-1.84884 -0.14178,-3.22333 -1.0173,-4.12346 -0.85746,-0.89813 -2.38281,-1.46427 -4.57605,-1.69842 l -4.40467,-0.47016 -1.11156,10.41349 4.40466,0.47017 m -5.17667,6.76219 -1.63978,15.36194 -10.46788,-1.11737 4.33309,-40.59361 15.9873,1.70653 c 5.3472,0.57082 9.16668,1.88599 11.45845,3.94552 2.30983,2.06154 3.25773,5.03179 2.84371,8.91077 -0.28639,2.68269 -1.17402,4.81537 -2.66288,6.39803 -1.4708,1.58463 -3.55481,2.64547 -6.25201,3.18251 1.39711,0.47914 2.59568,1.35872 3.5957,2.63874 1.02002,1.26386 1.98529,3.12684 2.89581,5.58894 l 4.452,12.13483 -11.14761,-1.18993 -3.87171,-10.61544 c -0.78027,-2.13654 -1.64732,-3.63155 -2.60116,-4.48502 -0.93576,-0.85151 -2.25556,-1.36821 -3.9594,-1.5501 l -2.96363,-0.31634"
       id="path3095"
       style="font-size:56px;font-style:normal;font-variant:normal;font-weight:bold;font-stretch:normal;text-align:start;line-height:125%;writing-mode:lr-tb;text-anchor:start;fill:#fddf27;fill-opacity:1;stroke:#fddf27;stroke-opacity:1;font-family:DejaVu Sans;-inkscape-font-specification:DejaVu Sans Bold" />
    <path
       d="m 622.68735,269.33296 c 2.04422,0.82843 3.65965,1.04052 4.84629,0.63626 1.20348,-0.39738 2.15782,-1.46615 2.86304,-3.20631 0.6983,-1.72324 0.75039,-3.13797 0.15625,-4.24422 -0.57731,-1.09936 -1.88807,-2.06326 -3.93229,-2.8917 l -4.1054,-1.66369 -3.93328,9.70597 4.10539,1.66369 m -6.83713,5.07727 -5.80237,14.3182 -9.75665,-3.95383 15.33263,-37.83553 14.90107,6.03857 c 4.98388,2.01974 8.29421,4.33485 9.93102,6.94536 1.65362,2.6174 1.74788,5.73381 0.28278,9.34924 -1.01332,2.50042 -2.45337,4.30664 -4.32015,5.41868 -1.84997,1.1189 -4.14539,1.56553 -6.88627,1.33989 1.2114,0.84498 2.12177,2.02034 2.7311,3.52607 0.633,1.49569 1.04854,3.55232 1.24665,6.1699 l 0.94212,12.89135 -10.3902,-4.21057 -0.80218,-11.27094 c -0.16243,-2.26876 -0.58478,-3.94459 -1.26704,-5.02753 -0.66542,-1.07607 -1.79217,-1.93589 -3.38024,-2.57947 l -2.76227,-1.11939"
       id="path3097"
       style="font-size:56px;font-style:normal;font-variant:normal;font-weight:bold;font-stretch:normal;text-align:start;line-height:125%;writing-mode:lr-tb;text-anchor:start;fill:#fddf27;fill-opacity:1;stroke:#fddf27;stroke-opacity:1;font-family:DejaVu Sans;-inkscape-font-specification:DejaVu Sans Bold" />
    <path
       d="m 664.7351,309.11496 -13.80753,-8.96184 -6.22813,4.82437 -8.87627,-5.76118 34.90962,-26.0112 10.52767,6.83303 -9.5423,42.47598 -8.87627,-5.76119 1.89321,-7.63797 m -7.48202,-13.88601 9.38086,6.08869 4.16378,-16.66094 -13.54464,10.57225"
       id="path3099"
       style="font-size:56px;font-style:normal;font-variant:normal;font-weight:bold;font-stretch:normal;text-align:start;line-height:125%;writing-mode:lr-tb;text-anchor:start;fill:#fddf27;fill-opacity:1;stroke:#fddf27;stroke-opacity:1;font-family:DejaVu Sans;-inkscape-font-specification:DejaVu Sans Bold" />
    <path
       d="m 706.35772,310.15198 -17.45939,17.76754 2.69146,2.64478 c 3.0685,3.0153 6.15634,4.55448 9.26352,4.61754 3.12012,0.0758 6.1048,-1.33601 8.95404,-4.2355 2.83639,-2.8865 4.18952,-5.87603 4.05938,-8.9686 -0.13021,-3.09257 -1.73606,-6.15289 -4.81755,-9.18098 l -2.69146,-2.64478 m -1.93175,-13.05403 7.91835,7.78102 c 4.42072,4.3441 7.39725,7.89516 8.92961,10.6532 1.55804,2.75782 2.36966,5.65107 2.43488,8.67976 0.0747,2.65477 -0.39958,5.16612 -1.42294,7.53403 -1.02347,2.3679 -2.60203,4.63753 -4.73569,6.80892 -2.15931,2.19736 -4.42015,3.83488 -6.78253,4.91259 -2.34967,1.06466 -4.85233,1.58283 -7.50798,1.55452 -3.0424,-0.025 -5.96879,-0.79213 -8.7792,-2.30149 -2.79768,-1.5224 -6.38088,-4.43008 -10.74961,-8.72304 l -7.91836,-7.78102 28.61347,-29.11849"
       id="path3101"
       style="font-size:56px;font-style:normal;font-variant:normal;font-weight:bold;font-stretch:normal;text-align:start;line-height:125%;writing-mode:lr-tb;text-anchor:start;fill:#fddf27;fill-opacity:1;stroke:#fddf27;stroke-opacity:1;font-family:DejaVu Sans;-inkscape-font-specification:DejaVu Sans Bold" />
    <path
       d="m 740.36096,335.49836 6.31594,8.42222 -32.66072,24.49273 -6.31594,-8.42222 32.66072,-24.49273"
       id="path3103"
       style="font-size:56px;font-style:normal;font-variant:normal;font-weight:bold;font-stretch:normal;text-align:start;line-height:125%;writing-mode:lr-tb;text-anchor:start;fill:#fddf27;fill-opacity:1;stroke:#fddf27;stroke-opacity:1;font-family:DejaVu Sans;-inkscape-font-specification:DejaVu Sans Bold" />
    <path
       d="m 759.17988,377.06993 c -1.51371,-2.82882 -3.73239,-4.46374 -6.65606,-4.90476 -2.92373,-0.44101 -6.28218,0.35332 -10.07534,2.38301 -3.77714,2.02108 -6.29331,4.37018 -7.54853,7.0473 -1.25525,2.6771 -1.12603,5.43006 0.38765,8.2589 1.52225,2.84487 3.74523,4.48782 6.66896,4.92886 2.92367,0.441 6.27408,-0.34904 10.05123,-2.3701 3.79315,-2.02971 6.31736,-4.3831 7.57264,-7.0602 1.25519,-2.67713 1.12167,-5.43813 -0.40055,-8.28301 m 6.72648,-3.59926 c 3.09608,5.78622 3.86588,11.20459 2.30941,16.25514 -1.55658,5.05051 -5.25206,9.13674 -11.08646,12.2587 -5.8184,3.11331 -11.26032,3.91638 -16.32577,2.40923 -5.0655,-1.50721 -9.1463,-5.15391 -12.24242,-10.94011 -3.08754,-5.77016 -3.85734,-11.18854 -2.30941,-16.25513 1.55652,-5.05054 5.24397,-9.13247 11.06235,-12.24581 5.83441,-3.12192 11.28437,-3.9293 16.34988,-2.42212 5.07404,1.52326 9.15484,5.16996 12.24242,10.9401"
       id="path3105"
       style="font-size:56px;font-style:normal;font-variant:normal;font-weight:bold;font-stretch:normal;text-align:start;line-height:125%;writing-mode:lr-tb;text-anchor:start;fill:#fddf27;fill-opacity:1;stroke:#fddf27;stroke-opacity:1;font-family:DejaVu Sans;-inkscape-font-specification:DejaVu Sans Bold" />
    <path
       d="m 317.00052,569.60234 10.3215,26.46892 -7.41334,2.89081 -6.49688,-16.6609 -7.08215,2.76168 6.10945,15.66735 -7.41334,2.89082 -6.10945,-15.66736 -8.71258,3.39745 6.71543,17.22136 -7.41333,2.89081 -10.54005,-27.02938 38.03474,-14.83156"
       id="path3049"
       style="font-size:56px;font-style:normal;font-variant:normal;font-weight:bold;font-stretch:normal;text-align:start;line-height:125%;writing-mode:lr-tb;text-anchor:start;fill:#fddf27;fill-opacity:1;stroke:#fddf27;stroke-opacity:1;font-family:DejaVu Sans;-inkscape-font-specification:DejaVu Sans Bold" />
    <path
       d="m 327.85416,598.84068 6.99573,11.42707 -13.77894,19.3363 23.51586,-3.43169 6.98145,11.40375 -34.81758,21.31556 -5.19683,-8.48868 25.46604,-15.59048 -23.68433,3.47071 -3.48359,-5.69021 13.86176,-19.51526 -25.46604,15.59049 -5.21111,-8.512 34.81758,-21.31556"
       id="path3051"
       style="font-size:56px;font-style:normal;font-variant:normal;font-weight:bold;font-stretch:normal;text-align:start;line-height:125%;writing-mode:lr-tb;text-anchor:start;fill:#fddf27;fill-opacity:1;stroke:#fddf27;stroke-opacity:1;font-family:DejaVu Sans;-inkscape-font-specification:DejaVu Sans Bold" />
    <path
       d="m 354.07786,639.65814 18.90111,21.21049 -5.94057,5.29377 -11.89733,-13.35098 -5.67519,5.05728 11.18786,12.55481 -5.94058,5.29377 -11.18785,-12.55482 -6.9817,6.22154 12.29754,13.80009 -5.94057,5.29377 -19.30132,-21.65962 30.4786,-27.1601"
       id="path3053"
       style="font-size:56px;font-style:normal;font-variant:normal;font-weight:bold;font-stretch:normal;text-align:start;line-height:125%;writing-mode:lr-tb;text-anchor:start;fill:#fddf27;fill-opacity:1;stroke:#fddf27;stroke-opacity:1;font-family:DejaVu Sans;-inkscape-font-specification:DejaVu Sans Bold" />
    <path
       d="m 375.54097,686.98969 c 1.70224,1.40268 3.17999,2.08888 4.43323,2.0586 1.26725,-0.0187 2.49789,-0.75254 3.69194,-2.20159 1.18239,-1.43497 1.65582,-2.76915 1.42029,-4.00257 -0.22153,-1.2218 -1.18341,-2.53404 -2.88565,-3.93673 l -3.41862,-2.81694 -6.65981,8.08229 3.41862,2.81694 m -8.04397,2.79635 -9.82453,11.92296 -8.1245,-6.69459 25.9611,-31.50616 12.40832,10.22446 c 4.15013,3.41976 6.61508,6.62009 7.39485,9.60101 0.79375,2.99252 -0.0497,5.99409 -2.53045,9.00473 -1.71572,2.08212 -3.63065,3.3741 -5.74481,3.87595 -2.10016,0.51343 -4.42398,0.25204 -6.97145,-0.78418 0.90271,1.16903 1.41924,2.56309 1.54961,4.1822 0.15595,1.61662 -0.0636,3.7033 -0.65858,6.26004 l -2.9623,12.58171 -8.65206,-7.12931 2.61048,-10.99377 c 0.52456,-2.21325 0.62354,-3.93865 0.29696,-5.17621 -0.31257,-1.22598 -1.13006,-2.38381 -2.45246,-3.47349 l -2.30018,-1.89535"
       id="path3055"
       style="font-size:56px;font-style:normal;font-variant:normal;font-weight:bold;font-stretch:normal;text-align:start;line-height:125%;writing-mode:lr-tb;text-anchor:start;fill:#fddf27;fill-opacity:1;stroke:#fddf27;stroke-opacity:1;font-family:DejaVu Sans;-inkscape-font-specification:DejaVu Sans Bold" />
    <path
       d="m 416.63569,737.53295 c -2.91169,-0.20285 -5.75119,-0.7322 -8.51849,-1.58805 -2.76736,-0.85588 -5.45463,-2.03372 -8.06181,-3.53351 -5.89388,-3.39048 -9.61781,-7.71982 -11.1718,-12.98803 -1.54493,-5.28402 -0.69487,-10.74655 2.55018,-16.3876 3.28137,-5.70423 7.61679,-9.18282 13.00626,-10.43578 5.38942,-1.25291 11.13378,-0.12506 17.2331,3.38355 2.35434,1.35439 4.47876,2.8709 6.37326,4.54952 1.91021,1.68774 3.57134,3.51607 4.98341,5.48498 l -4.21309,7.32387 c -1.32984,-2.25809 -2.81533,-4.22723 -4.4565,-5.90741 -1.62545,-1.67107 -3.41784,-3.07017 -5.37715,-4.19731 -3.63432,-2.09062 -7.02533,-2.68487 -10.17302,-1.78274 -3.12287,0.89544 -5.77051,3.23141 -7.94293,7.00789 -2.15429,3.7449 -2.86964,7.18191 -2.14604,10.31103 0.72355,3.12913 2.83137,5.69811 6.32347,7.70694 0.94805,0.54538 1.85683,0.99455 2.72635,1.34753 0.89435,0.34625 1.73818,0.5793 2.5315,0.69917 l 3.95404,-6.87354 -5.56994,-3.20413 3.51773,-6.11508 14.22111,8.18076 -9.78964,17.01794"
       id="path3057"
       style="font-size:56px;font-style:normal;font-variant:normal;font-weight:bold;font-stretch:normal;text-align:start;line-height:125%;writing-mode:lr-tb;text-anchor:start;fill:#fddf27;fill-opacity:1;stroke:#fddf27;stroke-opacity:1;font-family:DejaVu Sans;-inkscape-font-specification:DejaVu Sans Bold" />
    <path
       d="m 438.22785,705.65797 26.54748,10.11774 -2.83375,7.43533 -16.71034,-6.36862 -2.70715,7.10317 15.71385,5.98885 -2.83374,7.43533 -15.71386,-5.98884 -3.33038,8.73844 17.27246,6.58286 -2.83374,7.43533 -27.1096,-10.33197 14.53877,-38.14762"
       id="path3059"
       style="font-size:56px;font-style:normal;font-variant:normal;font-weight:bold;font-stretch:normal;text-align:start;line-height:125%;writing-mode:lr-tb;text-anchor:start;fill:#fddf27;fill-opacity:1;stroke:#fddf27;stroke-opacity:1;font-family:DejaVu Sans;-inkscape-font-specification:DejaVu Sans Bold" />
    <path
       d="m 467.93861,717.03082 11.51474,2.37843 8.87671,30.42461 5.664,-27.42114 9.77413,2.0189 -8.25814,39.98025 -11.51474,-2.37844 -8.87671,-30.42461 -5.66399,27.42115 -9.77414,-2.01891 8.25814,-39.98024"
       id="path3061"
       style="font-size:56px;font-style:normal;font-variant:normal;font-weight:bold;font-stretch:normal;text-align:start;line-height:125%;writing-mode:lr-tb;text-anchor:start;fill:#fddf27;fill-opacity:1;stroke:#fddf27;stroke-opacity:1;font-family:DejaVu Sans;-inkscape-font-specification:DejaVu Sans Bold" />
    <path
       d="m 538.30037,764.38235 c -1.96796,0.93071 -4.00879,1.61247 -6.1225,2.04529 -2.11377,0.43281 -4.30919,0.60722 -6.58626,0.52325 -6.79488,-0.25059 -12.10806,-2.34366 -15.93957,-6.27921 -3.83085,-3.95375 -5.62636,-9.18232 -5.38652,-15.68573 0.24051,-6.52158 2.41626,-11.6037 6.52727,-15.24636 4.11165,-3.66082 9.56491,-5.36595 16.35979,-5.1154 2.27707,0.084 4.45367,0.41967 6.52982,1.00696 2.07609,0.58737 4.06116,1.4176 5.95523,2.4907 l -0.31139,8.44348 c -1.90019,-1.40168 -3.78612,-2.44716 -5.65779,-3.13643 -1.87173,-0.6892 -3.85505,-1.07245 -5.94995,-1.14975 -3.75268,-0.13836 -6.74813,0.95512 -8.98637,3.28042 -2.23828,2.32537 -3.43534,5.60119 -3.59119,9.82746 -0.1552,4.20809 0.79765,7.55407 2.85857,10.03795 2.06088,2.48389 4.96766,3.79503 8.72034,3.93342 2.0949,0.0773 4.10105,-0.15885 6.01847,-0.70836 1.91736,-0.5495 3.87517,-1.45322 5.87344,-2.71116 l -0.31139,8.44347"
       id="path3063"
       style="font-size:56px;font-style:normal;font-variant:normal;font-weight:bold;font-stretch:normal;text-align:start;line-height:125%;writing-mode:lr-tb;text-anchor:start;fill:#fddf27;fill-opacity:1;stroke:#fddf27;stroke-opacity:1;font-family:DejaVu Sans;-inkscape-font-specification:DejaVu Sans Bold" />
    <path
       d="m 536.54887,726.25379 11.43142,-1.35732 10.9472,13.34924 7.51685,-15.54158 11.45857,-1.36053 -12.66451,25.29467 2.02791,17.07925 -10.45391,1.24125 -2.02791,-17.07925 -18.23562,-21.62573"
       id="path3065"
       style="font-size:56px;font-style:normal;font-variant:normal;font-weight:bold;font-stretch:normal;text-align:start;line-height:125%;writing-mode:lr-tb;text-anchor:start;fill:#fddf27;fill-opacity:1;stroke:#fddf27;stroke-opacity:1;font-family:DejaVu Sans;-inkscape-font-specification:DejaVu Sans Bold" />
    <path
       d="m 619.59376,708.92017 2.90214,8.13867 c -2.4487,-0.19123 -4.76321,-0.16907 -6.94354,0.0665 -2.18036,0.23562 -4.16338,0.6718 -5.94907,1.30851 -2.36949,0.84497 -4.00452,1.79572 -4.90508,2.85224 -0.90058,1.0566 -1.10596,2.27169 -0.61614,3.64527 0.36736,1.03024 1.03287,1.70254 1.99653,2.0169 0.9747,0.29113 2.53998,0.28454 4.69584,-0.0198 l 4.52694,-0.65625 c 4.58149,-0.666 8.08594,-0.44478 10.51334,0.66367 2.42736,1.1085 4.21658,3.27674 5.36767,6.50471 1.51227,4.24105 1.37683,7.85038 -0.40631,10.82799 -1.77216,2.95434 -5.24233,5.35297 -10.41054,7.19589 -2.43818,0.86942 -4.96759,1.5101 -7.58822,1.92205 -2.62066,0.41195 -5.3209,0.60068 -8.10073,0.5662 l -2.9848,-8.37047 c 2.92065,0.4294 5.64219,0.57176 8.16462,0.42707 2.53345,-0.16796 4.86473,-0.63155 6.99385,-1.39077 2.16343,-0.77144 3.69177,-1.72285 4.58504,-2.85424 0.89323,-1.13135 1.10107,-2.36666 0.62353,-3.70596 -0.42861,-1.20189 -1.15415,-1.98826 -2.17662,-2.3591 -1.00534,-0.37693 -2.76741,-0.40661 -5.28622,-0.0891 l -4.14061,0.51849 c -4.14001,0.54733 -7.42431,0.23793 -9.85288,-0.9282 -2.41141,-1.17221 -4.16203,-3.28647 -5.25187,-6.34279 -1.36535,-3.82892 -1.17914,-7.21444 0.55864,-10.15656 1.73779,-2.94205 4.92466,-5.23965 9.56061,-6.89282 2.11193,-0.75304 4.34212,-1.36444 6.69058,-1.8342 2.34232,-0.48683 4.82009,-0.83815 7.4333,-1.05396"
       id="path3067"
       style="font-size:56px;font-style:normal;font-variant:normal;font-weight:bold;font-stretch:normal;text-align:start;line-height:125%;writing-mode:lr-tb;text-anchor:start;fill:#fddf27;fill-opacity:1;stroke:#fddf27;stroke-opacity:1;font-family:DejaVu Sans;-inkscape-font-specification:DejaVu Sans Bold" />
    <path
       d="m 624.6374,705.35271 25.06318,-13.37811 3.7469,7.01962 -15.77606,8.42087 3.57952,6.70603 14.83528,-7.9187 3.7469,7.01962 -14.83528,7.9187 4.40357,8.24987 16.30675,-8.70414 3.7469,7.01962 -25.59388,13.66138 -19.22378,-36.01476"
       id="path3069"
       style="font-size:56px;font-style:normal;font-variant:normal;font-weight:bold;font-stretch:normal;text-align:start;line-height:125%;writing-mode:lr-tb;text-anchor:start;fill:#fddf27;fill-opacity:1;stroke:#fddf27;stroke-opacity:1;font-family:DejaVu Sans;-inkscape-font-specification:DejaVu Sans Bold" />
    <path
       d="m 675.67332,695.63701 c 1.76292,-1.32561 2.77668,-2.6011 3.0413,-3.82647 0.27918,-1.23625 -0.14545,-2.60473 -1.27389,-4.10543 -1.11749,-1.48607 -2.30336,-2.25932 -3.5576,-2.31977 -1.23967,-0.0713 -2.74097,0.55582 -4.5039,1.88143 l -3.54041,2.66224 6.29408,8.37025 3.54042,-2.66225 m 0.83093,8.47553 9.285,12.34776 -8.41395,6.32695 -24.53542,-32.62867 12.8504,-9.66298 c 4.29804,-3.2319 7.98739,-4.87715 11.06805,-4.93574 3.09522,-0.0694 5.8151,1.45474 8.15964,4.57259 1.62144,2.15635 2.42805,4.32096 2.41985,6.49385 0.006,2.16201 -0.79299,4.35963 -2.39799,6.59285 1.34819,-0.60321 2.82453,-0.77824 4.42903,-0.52508 1.60808,0.22771 3.585,0.9307 5.93077,2.10898 l 11.53544,5.83165 -8.96032,6.73779 -10.07438,-5.11707 c -2.02839,-1.0292 -3.6824,-1.53026 -4.96205,-1.50316 -1.26509,0.0162 -2.5824,0.5392 -3.95194,1.56901 l -2.38213,1.79127"
       id="path3071"
       style="font-size:56px;font-style:normal;font-variant:normal;font-weight:bold;font-stretch:normal;text-align:start;line-height:125%;writing-mode:lr-tb;text-anchor:start;fill:#fddf27;fill-opacity:1;stroke:#fddf27;stroke-opacity:1;font-family:DejaVu Sans;-inkscape-font-specification:DejaVu Sans Bold" />
    <path
       d="m 678.44786,671.52466 7.30812,-7.65316 29.27078,12.97906 -14.33352,-28.62156 7.30812,-7.65316 19.08211,39.12975 -8.66777,9.07701 -39.96784,-17.25794"
       id="path3073"
       style="font-size:56px;font-style:normal;font-variant:normal;font-weight:bold;font-stretch:normal;text-align:start;line-height:125%;writing-mode:lr-tb;text-anchor:start;fill:#fddf27;fill-opacity:1;stroke:#fddf27;stroke-opacity:1;font-family:DejaVu Sans;-inkscape-font-specification:DejaVu Sans Bold" />
    <path
       d="m 707.56581,639.57895 6.29834,-8.43538 32.71178,24.4245 -6.29835,8.43539 -32.71177,-24.42451"
       id="path3075"
       style="font-size:56px;font-style:normal;font-variant:normal;font-weight:bold;font-stretch:normal;text-align:start;line-height:125%;writing-mode:lr-tb;text-anchor:start;fill:#fddf27;fill-opacity:1;stroke:#fddf27;stroke-opacity:1;font-family:DejaVu Sans;-inkscape-font-specification:DejaVu Sans Bold" />
    <path
       d="m 767.07347,618.09056 c -0.10096,2.17461 -0.45597,4.29682 -1.06502,6.36663 -0.60909,2.06987 -1.48468,4.09067 -2.62678,6.06239 -3.40808,5.88372 -7.74854,9.5947 -13.02137,11.13294 -5.28861,1.52913 -10.74857,0.66275 -16.3799,-2.59914 -5.64708,-3.271 -9.11519,-7.57611 -10.40436,-12.91534 -1.3049,-5.34832 -0.25332,-10.96434 3.15472,-16.84808 1.14214,-1.97171 2.4594,-3.73667 3.9518,-5.29489 1.49243,-1.55813 3.15668,-2.92198 4.99275,-4.09154 l 7.31125,4.23496 c -2.12914,1.02087 -3.93699,2.1962 -5.42356,3.526 -1.48654,1.32988 -2.75519,2.90181 -3.80595,4.71578 -1.88219,3.24948 -2.32128,6.4079 -1.31729,9.47527 1.00403,3.06744 3.33582,5.66102 6.99537,7.78076 3.64381,2.11065 7.04586,2.83833 10.20619,2.18305 3.16032,-0.65524 5.68158,-2.60759 7.56379,-5.85706 1.05074,-1.81398 1.78307,-3.69656 2.197,-5.64774 0.41392,-1.95112 0.53395,-4.1041 0.36011,-6.45895 l 7.31125,4.23496"
       id="path3077"
       style="font-size:56px;font-style:normal;font-variant:normal;font-weight:bold;font-stretch:normal;text-align:start;line-height:125%;writing-mode:lr-tb;text-anchor:start;fill:#fddf27;fill-opacity:1;stroke:#fddf27;stroke-opacity:1;font-family:DejaVu Sans;-inkscape-font-specification:DejaVu Sans Bold" />
    <path
       d="m 734.6787,596.20173 10.43631,-26.42386 7.40072,2.92297 -6.56915,16.63253 7.0701,2.79239 6.17741,-15.64068 7.40071,2.92297 -6.17741,15.64069 8.69775,3.43524 6.79013,-17.19204 7.40072,2.92297 -10.6573,26.98336 -37.96999,-14.99654"
       id="path3079"
       style="font-size:56px;font-style:normal;font-variant:normal;font-weight:bold;font-stretch:normal;text-align:start;line-height:125%;writing-mode:lr-tb;text-anchor:start;fill:#fddf27;fill-opacity:1;stroke:#fddf27;stroke-opacity:1;font-family:DejaVu Sans;-inkscape-font-specification:DejaVu Sans Bold" />
    <path
       d="m 752.92674,551.19339 c -0.40777,1.12223 -0.58624,2.2405 -0.53538,3.35482 0.0509,1.11434 0.33263,2.22043 0.84525,3.31828 0.51266,1.09789 1.18684,2.0314 2.02257,2.80057 0.82716,0.76608 1.79757,1.35145 2.91121,1.75611 1.10509,0.40158 2.22063,0.57421 3.34663,0.51787 1.11744,-0.0594 2.22509,-0.34545 3.32296,-0.8581 1.09786,-0.51263 2.02828,-1.17825 2.79122,-1.99686 0.75439,-0.8217 1.33548,-1.79366 1.74327,-2.91589 0.4109,-1.13077 0.59092,-2.25331 0.54006,-3.36766 -0.0563,-1.12598 -0.3408,-2.23792 -0.85343,-3.3358 -0.50719,-1.08617 -1.1732,-2.00218 -1.99802,-2.74802 -0.82171,-0.75436 -1.79368,-1.33544 -2.91589,-1.74327 -1.13935,-0.41398 -2.26618,-0.59556 -3.38051,-0.54472 -1.12289,0.0478 -2.22586,0.32097 -3.30895,0.81956 -1.09786,0.51266 -2.02554,1.18412 -2.78305,2.01437 -0.75438,0.82174 -1.33702,1.79798 -1.74794,2.92874 m -1.32352,-0.48094 c 0.47317,-1.30209 1.14923,-2.42865 2.02817,-3.37968 0.88207,-0.95954 1.95963,-1.73655 3.23268,-2.33102 1.27307,-0.59442 2.55475,-0.91904 3.84506,-0.97387 1.29031,-0.0548 2.59509,0.15753 3.91433,0.63689 1.30212,0.47319 2.43023,1.14496 3.38435,2.01532 0.94555,0.86729 1.71555,1.93746 2.30999,3.2105 0.59444,1.27308 0.92179,2.56061 0.98205,3.86257 0.0634,1.29345 -0.14154,2.59121 -0.6147,3.89331 -0.47317,1.30212 -1.15078,2.43296 -2.03283,3.39252 -0.87896,0.95102 -1.95497,1.72374 -3.22802,2.31817 -1.27306,0.59446 -2.55047,0.92064 -3.83221,0.97854 -1.29031,0.0548 -2.58651,-0.15438 -3.88864,-0.62754 -1.31923,-0.47939 -2.45591,-1.15427 -3.41004,-2.02466 -0.95411,-0.87038 -1.72839,-1.9421 -2.32284,-3.21517 -0.59443,-1.27304 -0.92334,-2.55629 -0.98672,-3.84973 -0.0602,-1.30197 0.14622,-2.60402 0.61937,-3.90615 m 5.19373,2.28006 -0.57433,1.58052 3.54654,1.28875 0.57434,-1.58052 c 0.34242,-0.9423 0.44778,-1.64588 0.31606,-2.11076 -0.12858,-0.47342 -0.51412,-0.82686 -1.15661,-1.06035 -0.65106,-0.23656 -1.17785,-0.21464 -1.58039,0.0658 -0.41109,0.27733 -0.78629,0.88286 -1.12561,1.81659 m -1.29084,-0.57089 c 0.54789,-1.50769 1.21423,-2.5408 1.99903,-3.09933 0.77626,-0.5616 1.68266,-0.65409 2.7192,-0.27745 0.73673,0.26774 1.26246,0.71577 1.5772,1.34409 0.31785,0.61981 0.40018,1.36735 0.24696,2.24264 0.14322,-0.18068 0.43328,-0.35167 0.8701,-0.51298 0.43137,-0.17295 1.03132,-0.34285 1.79988,-0.50969 l 3.5052,-0.71914 -0.80313,2.21016 -3.28795,0.68172 c -1.00605,0.20661 -1.67375,0.42947 -2.00309,0.66859 -0.33479,0.22748 -0.58624,0.5725 -0.75434,1.03508 l -0.30818,0.84808 4.57453,1.6623 -0.72375,1.99171 -10.74243,-3.90359 1.33077,-3.66219"
       id="path3046"
       style="font-size:28px;font-style:normal;font-variant:normal;font-weight:normal;font-stretch:normal;text-align:start;line-height:125%;writing-mode:lr-tb;text-anchor:start;fill:#fddf27;fill-opacity:1;stroke:none;font-family:DejaVu Sans;-inkscape-font-specification:DejaVu Sans" />
  </g>
</svg>
