<?xml version="1.0" encoding="UTF-8" standalone="no"?>
<!-- Created with Inkscape (http://www.inkscape.org/) -->

<svg
   xmlns:dc="http://purl.org/dc/elements/1.1/"
   xmlns:cc="http://creativecommons.org/ns#"
   xmlns:rdf="http://www.w3.org/1999/02/22-rdf-syntax-ns#"
   xmlns:svg="http://www.w3.org/2000/svg"
   xmlns="http://www.w3.org/2000/svg"
   version="1.0"
   width="812.625"
   height="812.625"
   id="svg2">
  <defs
     id="defs4" />
  <metadata
     id="metadata7">
    <rdf:RDF>
      <cc:Work
         rdf:about="">
        <dc:format>image/svg+xml</dc:format>
        <dc:type
           rdf:resource="http://purl.org/dc/dcmitype/StillImage" />
        <dc:title></dc:title>
        <dc:creator>
          <cc:Agent>
            <dc:title>Tyler Tidman VA3DGN</dc:title>
          </cc:Agent>
        </dc:creator>
      </cc:Work>
    </rdf:RDF>
  </metadata>
  <g
     id="layer2"
     style="display:inline">
    <path
       d="M 406.3125,6 C 185.22956,6 6,185.22956 6,406.3125 6,627.39544 185.22956,806.625 406.3125,806.625 627.39544,806.625 806.625,627.39544 806.625,406.3125 806.625,185.22956 627.39544,6 406.3125,6 z M 405.75,110.625 c 162.36509,0 293.96875,131.60366 293.96875,293.96875 0,162.36509 -131.60366,294 -293.96875,294 -162.36509,0 -294,-131.63491 -294,-294 0,-162.36509 131.63491,-293.96875 294,-293.96875 z"
       id="circle3016-5"
       style="fill:#ffffff;fill-opacity:1;stroke:#000000;stroke-width:12.00000095;stroke-miterlimit:4;stroke-opacity:1;stroke-dasharray:none" />
    <path
       d="m 192.70398,151.75097 -12.28187,10.95984 3.01379,7.27883 -7.89549,7.04561 -15.89895,-40.52762 9.36442,-8.35642 38.46332,20.3921 -7.89549,7.04561 -6.86973,-3.83795 m -15.36628,3.5608 8.34433,-7.44614 -14.97616,-8.40469 6.63183,15.85083"
       id="path3038"
       style="font-size:56px;font-style:normal;font-variant:normal;font-weight:bold;font-stretch:normal;text-align:start;line-height:125%;writing-mode:lr-tb;text-anchor:start;fill:#000000;fill-opacity:1;stroke:#000000;stroke-opacity:1;font-family:DejaVu Sans;-inkscape-font-specification:DejaVu Sans Bold" />
    <path
       d="m 189.556,110.86719 11.24631,-7.28276 19.67892,13.28502 -4.02589,-23.421434 11.22336,-7.2679 22.19013,34.266814 -8.3544,5.41005 -16.23016,-25.0632 4.06917,23.58888 -5.6002,3.62651 -19.85991,-13.36328 16.23016,25.06321 -8.37736,5.42491 -22.19013,-34.26682"
       id="path3040"
       style="font-size:56px;font-style:normal;font-variant:normal;font-weight:bold;font-stretch:normal;text-align:start;line-height:125%;writing-mode:lr-tb;text-anchor:start;fill:#000000;fill-opacity:1;stroke:#000000;stroke-opacity:1;font-family:DejaVu Sans;-inkscape-font-specification:DejaVu Sans Bold" />
    <path
       d="m 278.78506,98.966454 -14.98648,6.809406 0.7117,7.84587 -9.63416,4.37747 -3.12114,-43.422598 11.42657,-5.191891 30.65443,30.912299 -9.63417,4.37747 -5.41675,-5.708026 m -15.72984,-1.172249 10.18184,-4.626325 -11.79739,-12.479812 1.61555,17.106137"
       id="path3042"
       style="font-size:56px;font-style:normal;font-variant:normal;font-weight:bold;font-stretch:normal;text-align:start;line-height:125%;writing-mode:lr-tb;text-anchor:start;fill:#000000;fill-opacity:1;stroke:#000000;stroke-opacity:1;font-family:DejaVu Sans;-inkscape-font-specification:DejaVu Sans Bold" />
    <path
       d="m 278.08823,63.003259 35.87603,-11.338035 2.3978,7.587155 -12.90599,4.078726 9.9043,31.339382 -10.03798,3.172342 -9.9043,-31.339381 -12.93206,4.086966 -2.3978,-7.587155"
       id="path3044"
       style="font-size:56px;font-style:normal;font-variant:normal;font-weight:bold;font-stretch:normal;text-align:start;line-height:125%;writing-mode:lr-tb;text-anchor:start;fill:#000000;fill-opacity:1;stroke:#000000;stroke-opacity:1;font-family:DejaVu Sans;-inkscape-font-specification:DejaVu Sans Bold" />
    <path
       d="m 324.01814,49.430689 27.91311,-5.291101 1.48191,7.817818 -17.56994,3.33049 1.41571,7.468568 16.5222,-3.131883 1.48191,7.817818 -16.52219,3.131883 1.74163,9.187951 18.16098,-3.442526 1.48192,7.817818 -28.50414,5.403135 -7.6031,-40.109971"
       id="path3046"
       style="font-size:56px;font-style:normal;font-variant:normal;font-weight:bold;font-stretch:normal;text-align:start;line-height:125%;writing-mode:lr-tb;text-anchor:start;fill:#000000;fill-opacity:1;stroke:#000000;stroke-opacity:1;font-family:DejaVu Sans;-inkscape-font-specification:DejaVu Sans Bold" />
    <path
       d="m 366.9872,42.078806 10.50979,-0.607745 1.41281,24.431841 c 0.19467,3.366785 0.88007,5.746548 2.0562,7.139295 1.19325,1.373517 3.03649,1.988183 5.52974,1.843999 2.51141,-0.145219 4.27152,-0.968254 5.28033,-2.469108 1.02591,-1.520084 1.44153,-3.963515 1.24687,-7.330301 l -1.41281,-24.431841 10.50979,-0.607746 1.41281,24.431842 c 0.33356,5.769021 -0.86488,10.147589 -3.59533,13.135716 -2.73052,2.988138 -7.06216,4.653741 -12.99492,4.996814 -5.91462,0.342021 -10.40027,-0.813708 -13.45698,-3.46719 -3.05673,-2.653475 -4.75189,-6.864715 -5.08549,-12.633735 L 366.9872,42.078806"
       id="path3048"
       style="font-size:56px;font-style:normal;font-variant:normal;font-weight:bold;font-stretch:normal;text-align:start;line-height:125%;writing-mode:lr-tb;text-anchor:start;fill:#000000;fill-opacity:1;stroke:#000000;stroke-opacity:1;font-family:DejaVu Sans;-inkscape-font-specification:DejaVu Sans Bold" />
    <path
       d="m 431.53384,59.523096 c 2.19881,0.174228 3.8031,-0.110111 4.81287,-0.853016 1.02789,-0.741422 1.61599,-2.048012 1.76431,-3.919775 0.14682,-1.853539 -0.22964,-3.218263 -1.12939,-4.094175 -0.88164,-0.874413 -2.42186,-1.398738 -4.62067,-1.572976 l -4.41585,-0.349854 -0.82713,10.439942 4.41586,0.349854 m -4.99031,6.900863 -1.22017,15.40096 -10.49445,-0.831443 3.22427,-40.696694 16.0279,1.269839 c 5.36077,0.424758 9.2147,1.635263 11.5618,3.631519 2.36519,1.997766 3.39376,4.941057 3.0857,8.829882 -0.21312,2.689513 -1.04225,4.845606 -2.48739,6.468285 -1.42703,1.624159 -3.48133,2.741443 -6.16288,3.351855 1.40966,0.440855 2.63177,1.287416 3.66634,2.539686 1.05411,1.235566 2.06983,3.07152 3.04717,5.507868 l 4.78132,12.008889 -11.17592,-0.885433 -4.1598,-10.505887 c -0.83825,-2.114464 -1.74576,-3.585263 -2.72252,-4.4124 -0.95864,-0.825673 -2.29204,-1.306182 -4.00021,-1.44153 l -2.97116,-0.235396"
       id="path3050"
       style="font-size:56px;font-style:normal;font-variant:normal;font-weight:bold;font-stretch:normal;text-align:start;line-height:125%;writing-mode:lr-tb;text-anchor:start;fill:#000000;fill-opacity:1;stroke:#000000;stroke-opacity:1;font-family:DejaVu Sans;-inkscape-font-specification:DejaVu Sans Bold" />
    <path
       d="m 497.41667,70.949481 c 2.12398,0.594853 3.753,0.625129 4.88704,0.09082 1.15154,-0.529354 1.9805,-1.698059 2.48688,-3.506116 0.5014,-1.790465 0.3951,-3.202164 -0.31892,-4.235102 -0.69652,-1.027974 -2.10677,-1.839392 -4.23074,-2.434256 l -4.26557,-1.194592 -2.82426,10.084649 4.26557,1.194592 m -6.22706,5.809367 -4.16632,14.876832 -10.13731,-2.838999 11.00942,-39.311698 15.48244,4.335926 c 5.17832,1.450256 8.7266,3.381026 10.64482,5.792315 1.93569,2.41626 2.37755,5.502629 1.32556,9.259116 -0.72761,2.597976 -1.95684,4.553782 -3.68769,5.867424 -1.71338,1.318584 -3.94453,2.018877 -6.69346,2.10088 1.29822,0.704343 2.33421,1.770626 3.10795,3.198853 0.79615,1.415603 1.43887,3.412931 1.92819,5.99199 l 2.37652,12.705377 -10.79558,-3.023349 -2.05642,-11.110753 c -0.41489,-2.2364 -1.02182,-3.854559 -1.82081,-4.854484 -0.78148,-0.994993 -1.99723,-1.723546 -3.64726,-2.185661 l -2.87005,-0.803769"
       id="path3052"
       style="font-size:56px;font-style:normal;font-variant:normal;font-weight:bold;font-stretch:normal;text-align:start;line-height:125%;writing-mode:lr-tb;text-anchor:start;fill:#000000;fill-opacity:1;stroke:#000000;stroke-opacity:1;font-family:DejaVu Sans;-inkscape-font-specification:DejaVu Sans Bold" />
    <path
       d="m 543.90839,104.08284 -15.11032,-6.52998 -5.33495,5.79677 -9.71377,-4.197846 30.07521,-31.476117 11.52099,4.978844 -2.31439,43.473069 -9.71378,-4.19785 0.59101,-7.84689 m -9.69604,-12.441407 10.26598,4.436486 1.32277,-17.122337 -11.58875,12.685851"
       id="path3054"
       style="font-size:56px;font-style:normal;font-variant:normal;font-weight:bold;font-stretch:normal;text-align:start;line-height:125%;writing-mode:lr-tb;text-anchor:start;fill:#000000;fill-opacity:1;stroke:#000000;stroke-opacity:1;font-family:DejaVu Sans;-inkscape-font-specification:DejaVu Sans Bold" />
    <path
       d="m 583.87877,96.281972 -12.98661,21.257088 3.22006,1.96723 c 3.67116,2.24284 7.02717,3.04346 10.06804,2.40187 3.05637,-0.6321 5.64421,-2.68262 7.76354,-6.15157 2.10975,-3.4534 2.75139,-6.67156 1.92491,-9.65449 -0.82655,-2.98291 -3.08318,-5.60054 -6.76988,-7.852892 l -3.22006,-1.967236 m -4.83521,-12.278439 9.47352,5.787666 c 5.28895,3.231232 8.99175,6.016747 11.10839,8.356555 2.14161,2.333786 3.58681,4.968376 4.33559,7.903766 0.67346,2.56902 0.77965,5.12255 0.31858,7.6606 -0.46117,2.53806 -1.48528,5.106 -3.07232,7.70383 -1.60615,2.62894 -3.43786,4.73553 -5.49514,6.31979 -2.04785,1.56868 -4.36837,2.63966 -6.96156,3.21294 -2.96915,0.66404 -5.99323,0.57889 -9.07226,-0.25546 -3.06958,-0.84993 -7.21774,-2.87148 -12.44449,-6.06467 l -9.47353,-5.78766 21.28322,-34.837357"
       id="path3056"
       style="font-size:56px;font-style:normal;font-variant:normal;font-weight:bold;font-stretch:normal;text-align:start;line-height:125%;writing-mode:lr-tb;text-anchor:start;fill:#000000;fill-opacity:1;stroke:#000000;stroke-opacity:1;font-family:DejaVu Sans;-inkscape-font-specification:DejaVu Sans Bold" />
    <path
       d="m 621.58472,111.68013 8.35861,6.39988 -24.81823,32.41407 -8.35862,-6.39988 24.81824,-32.41407"
       id="path3058"
       style="font-size:56px;font-style:normal;font-variant:normal;font-weight:bold;font-stretch:normal;text-align:start;line-height:125%;writing-mode:lr-tb;text-anchor:start;fill:#000000;fill-opacity:1;stroke:#000000;stroke-opacity:1;font-family:DejaVu Sans;-inkscape-font-specification:DejaVu Sans Bold" />
    <path
       d="m 650.35829,144.90462 c -2.32817,-2.20752 -4.94908,-3.05979 -7.86273,-2.5568 -2.91371,0.50301 -5.85059,2.31541 -8.81066,5.43722 -2.94758,3.1086 -4.59507,6.13104 -4.94249,9.06733 -0.34746,2.93629 0.64288,5.5082 2.97104,7.71574 2.34134,2.22006 4.96886,3.07859 7.88257,2.57561 2.91365,-0.50301 5.84426,-2.3088 8.79185,-5.41738 2.96006,-3.12182 4.61382,-6.15088 4.96131,-9.08717 0.34739,-2.93629 -0.64957,-5.51447 -2.99089,-7.73455 m 5.24915,-5.53594 c 4.76205,4.51541 7.20045,9.41496 7.31521,14.69866 0.11466,5.2837 -2.1045,10.32643 -6.65748,15.12823 -4.54053,4.78853 -9.45193,7.26593 -14.73423,7.4322 -5.28236,0.16623 -10.30457,-2.00834 -15.06664,-6.52372 -4.74888,-4.50287 -7.18728,-9.40242 -7.31521,-14.69866 -0.11472,-5.2837 2.09817,-10.31983 6.63866,-15.10839 4.55301,-4.80176 9.47069,-7.28577 14.75305,-7.45204 5.29552,-0.15369 10.31773,2.02088 15.06664,6.52372"
       id="path3060"
       style="font-size:56px;font-style:normal;font-variant:normal;font-weight:bold;font-stretch:normal;text-align:start;line-height:125%;writing-mode:lr-tb;text-anchor:start;fill:#000000;fill-opacity:1;stroke:#000000;stroke-opacity:1;font-family:DejaVu Sans;-inkscape-font-specification:DejaVu Sans Bold" />
    <path
       d="m 147.91869,601.15444 18.29066,21.73911 -6.08862,5.12279 -11.51308,-13.68371 -5.81663,4.89394 10.82652,12.86771 -6.08862,5.12279 -10.82652,-12.86771 -7.1557,6.0206 11.90036,14.14402 -6.08862,5.12279 -18.67795,-22.19941 31.2382,-26.28292"
       id="path3005"
       style="font-size:56px;font-style:normal;font-variant:normal;font-weight:bold;font-stretch:normal;text-align:start;line-height:125%;writing-mode:lr-tb;text-anchor:start;fill:#000000;fill-opacity:1;stroke:#000000;stroke-opacity:1;font-family:DejaVu Sans;-inkscape-font-specification:DejaVu Sans Bold" />
    <path
       d="m 169.06245,626.66201 9.86372,9.06781 -7.94186,22.37585 21.67055,-9.75495 9.84359,9.04931 -27.62905,30.05415 -7.32734,-6.73608 20.20826,-21.98201 -21.82185,9.83871 -4.91173,-4.51539 7.97238,-22.57066 -20.20826,21.98201 -7.34747,-6.75459 27.62906,-30.05416"
       id="path3007"
       style="font-size:56px;font-style:normal;font-variant:normal;font-weight:bold;font-stretch:normal;text-align:start;line-height:125%;writing-mode:lr-tb;text-anchor:start;fill:#000000;fill-opacity:1;stroke:#000000;stroke-opacity:1;font-family:DejaVu Sans;-inkscape-font-specification:DejaVu Sans Bold" />
    <path
       d="m 206.84821,660.19536 23.21624,16.37509 -4.58629,6.50233 -14.61349,-10.30732 -4.3814,6.21185 13.74204,9.69266 -4.58628,6.50234 -13.74204,-9.69267 -5.39007,7.64192 15.10508,10.65405 -4.58629,6.50233 -23.70782,-16.72181 23.53032,-33.36077"
       id="path3009"
       style="font-size:56px;font-style:normal;font-variant:normal;font-weight:bold;font-stretch:normal;text-align:start;line-height:125%;writing-mode:lr-tb;text-anchor:start;fill:#000000;fill-opacity:1;stroke:#000000;stroke-opacity:1;font-family:DejaVu Sans;-inkscape-font-specification:DejaVu Sans Bold" />
    <path
       d="m 238.92264,702.56008 c 1.93297,1.06243 3.51239,1.46248 4.73825,1.20016 1.24177,-0.25353 2.31485,-1.20302 3.21925,-2.84848 0.89556,-1.62947 1.11317,-3.02834 0.65285,-4.19662 -0.44442,-1.15947 -1.63311,-2.27042 -3.56608,-3.33285 l -3.88199,-2.13361 -5.04427,9.1778 3.88199,2.1336 m -7.38532,4.24053 -7.44129,13.53904 -9.22572,-5.07061 19.66344,-35.77662 14.09018,7.74421 c 4.71266,2.5902 7.7287,5.27752 9.04811,8.06195 1.33529,2.79324 1.06347,5.89921 -0.81546,9.3179 -1.29953,2.36435 -2.94144,3.98925 -4.92575,4.87472 -1.96841,0.89425 -4.30036,1.06864 -6.99588,0.52317 1.10397,0.98119 1.87023,2.25519 2.2988,3.82198 0.45324,1.5596 0.62477,3.65077 0.51457,6.27352 l -0.57602,12.91289 -9.82479,-5.39987 0.52498,-11.28725 c 0.10473,-2.27215 -0.1182,-3.98595 -0.66877,-5.14141 -0.53465,-1.14668 -1.5528,-2.1327 -3.05445,-2.95805 l -2.61195,-1.43557"
       id="path3011"
       style="font-size:56px;font-style:normal;font-variant:normal;font-weight:bold;font-stretch:normal;text-align:start;line-height:125%;writing-mode:lr-tb;text-anchor:start;fill:#000000;fill-opacity:1;stroke:#000000;stroke-opacity:1;font-family:DejaVu Sans;-inkscape-font-specification:DejaVu Sans Bold" />
    <path
       d="m 288.11258,746.37834 c -2.91126,0.20908 -5.79699,0.0847 -8.65722,-0.373 -2.86029,-0.45777 -5.68661,-1.24556 -8.47897,-2.36337 -6.31249,-2.52697 -10.60882,-6.28894 -12.889,-11.28592 -2.27343,-5.0139 -2.20085,-10.54169 0.21773,-16.5834 2.44565,-6.10938 6.24818,-10.16366 11.40758,-12.16288 5.15936,-1.99915 11.00529,-1.69123 17.53781,0.92378 2.52156,1.00946 4.83832,2.21178 6.95027,3.60697 2.12878,1.40202 4.03077,2.97828 5.70595,4.72879 l -3.14007,7.84406 c -1.63448,-2.0484 -3.3824,-3.78879 -5.24376,-5.2212 -1.84452,-1.42559 -3.81602,-2.55842 -5.9145,-3.39851 -3.89244,-1.55816 -7.33334,-1.6691 -10.32268,-0.33283 -2.96571,1.32617 -5.25812,4.01161 -6.87725,8.05631 -1.60563,4.01089 -1.82999,7.51438 -0.67308,10.51047 1.15686,2.9961 3.60536,5.24275 7.34548,6.73996 1.01538,0.40648 1.97835,0.72325 2.8889,0.95029 0.93419,0.2169 1.80243,0.32884 2.60472,0.33583 l 2.947,-7.36174 -5.96554,-2.38808 2.62181,-6.54941 15.23117,6.09724 -7.29635,18.22664"
       id="path3013"
       style="font-size:56px;font-style:normal;font-variant:normal;font-weight:bold;font-stretch:normal;text-align:start;line-height:125%;writing-mode:lr-tb;text-anchor:start;fill:#000000;fill-opacity:1;stroke:#000000;stroke-opacity:1;font-family:DejaVu Sans;-inkscape-font-specification:DejaVu Sans Bold" />
    <path
       d="m 306.60367,712.48975 27.40989,7.47227 -2.09282,7.67688 -17.25319,-4.70343 -1.99932,7.33392 16.22434,4.42296 -2.09282,7.67688 -16.22433,-4.42296 -2.4596,9.02231 17.83358,4.86166 -2.09281,7.67688 -27.99027,-7.6305 10.73735,-39.38687"
       id="path3015"
       style="font-size:56px;font-style:normal;font-variant:normal;font-weight:bold;font-stretch:normal;text-align:start;line-height:125%;writing-mode:lr-tb;text-anchor:start;fill:#000000;fill-opacity:1;stroke:#000000;stroke-opacity:1;font-family:DejaVu Sans;-inkscape-font-specification:DejaVu Sans Bold" />
    <path
       d="m 339.0413,721.25462 11.62479,1.76368 10.47965,29.91037 4.20002,-27.68321 9.86754,1.49708 -6.12366,40.36233 -11.62478,-1.76368 -10.47965,-29.91037 -4.20002,27.68321 -9.86755,-1.49708 6.12366,-40.36233"
       id="path3017"
       style="font-size:56px;font-style:normal;font-variant:normal;font-weight:bold;font-stretch:normal;text-align:start;line-height:125%;writing-mode:lr-tb;text-anchor:start;fill:#000000;fill-opacity:1;stroke:#000000;stroke-opacity:1;font-family:DejaVu Sans;-inkscape-font-specification:DejaVu Sans Bold" />
    <path
       d="m 411.86117,766.64574 c -1.96264,0.9419 -3.99956,1.63526 -6.11077,2.08009 -2.11127,0.44482 -4.30566,0.63173 -6.58317,0.56071 -6.7962,-0.21193 -12.1212,-2.27473 -15.97504,-6.18842 -3.85329,-3.93189 -5.67851,-9.15016 -5.47567,-15.65483 0.2034,-6.52284 2.3502,-11.61726 6.44042,-15.28325 4.09076,-3.68415 9.53423,-5.42028 16.33042,-5.20839 2.27751,0.0711 4.45599,0.39432 6.53545,0.96979 2.07939,0.57555 4.06915,1.39447 5.9693,2.45678 l -0.26335,8.44511 c -1.90813,-1.39085 -3.79998,-2.42557 -5.67554,-3.10418 -1.87562,-0.67855 -3.86109,-1.05051 -5.95639,-1.11588 -3.75341,-0.11701 -6.7426,0.99349 -8.96757,3.33149 -2.22501,2.33807 -3.40341,5.62064 -3.53521,9.84773 -0.13126,4.2089 0.84061,7.54941 2.91563,10.02152 2.07498,2.47213 4.98916,3.76671 8.74257,3.88375 2.09531,0.0653 4.10009,-0.18219 6.01435,-0.74259 1.91419,-0.5604 3.86683,-1.47524 5.85792,-2.74454 l -0.26335,8.44511"
       id="path3019"
       style="font-size:56px;font-style:normal;font-variant:normal;font-weight:bold;font-stretch:normal;text-align:start;line-height:125%;writing-mode:lr-tb;text-anchor:start;fill:#000000;fill-opacity:1;stroke:#000000;stroke-opacity:1;font-family:DejaVu Sans;-inkscape-font-specification:DejaVu Sans Bold" />
    <path
       d="m 411.63606,728.33515 11.47497,-0.9191 10.42863,13.75817 8.10576,-15.24271 11.50223,-0.92128 -13.62269,24.79179 1.37319,17.14431 -10.49374,0.84051 -1.37319,-17.14432 -17.39516,-22.30737"
       id="path3021"
       style="font-size:56px;font-style:normal;font-variant:normal;font-weight:bold;font-stretch:normal;text-align:start;line-height:125%;writing-mode:lr-tb;text-anchor:start;fill:#000000;fill-opacity:1;stroke:#000000;stroke-opacity:1;font-family:DejaVu Sans;-inkscape-font-specification:DejaVu Sans Bold" />
    <path
       d="m 498.18278,716.12464 2.08621,8.385 c -2.41795,-0.43155 -4.72338,-0.63752 -6.91631,-0.61793 -2.19297,0.0197 -4.20931,0.25836 -6.04904,0.71605 -2.44121,0.60742 -4.16195,1.39245 -5.16223,2.35512 -1.00029,0.96273 -1.32438,2.15167 -0.97227,3.56683 0.26407,1.06142 0.86011,1.79602 1.78811,2.20378 0.94128,0.38574 2.49959,0.5334 4.67495,0.44298 l 4.56957,-0.20707 c 4.62482,-0.2114 8.09042,0.35401 10.39681,1.69621 2.30633,1.34226 3.87324,3.67622 4.70071,7.00189 1.08708,4.36941 0.59671,7.94784 -1.47111,10.73529 -2.0546,2.76537 -5.7442,4.81045 -11.06882,6.13523 -2.51198,0.62498 -5.0922,1.01335 -7.74067,1.16511 -2.6485,0.15175 -5.3542,0.0735 -8.11711,-0.23464 l -2.14562,-8.62381 c 2.86414,0.71506 5.55841,1.12485 8.08282,1.22937 2.53768,0.0825 4.90329,-0.1492 7.09685,-0.69497 2.22891,-0.55455 3.84355,-1.35076 4.84394,-2.38863 1.00034,-1.03785 1.32887,-2.24668 0.9856,-3.6265 -0.30811,-1.23828 -0.95265,-2.0923 -1.93361,-2.56207 -0.96331,-0.47414 -2.71389,-0.67728 -5.25173,-0.60942 l -4.17155,0.10804 c -4.17379,0.13679 -7.41163,-0.49468 -9.7135,-1.8944 -2.28419,-1.40408 -3.818,-3.68053 -4.60143,-6.82935 -0.98148,-3.9448 -0.46263,-7.29551 1.55655,-10.05211 2.01919,-2.75653 5.41691,-4.72898 10.19318,-5.91737 2.17584,-0.54131 4.45542,-0.93002 6.83874,-1.16612 2.37889,-0.25371 4.8792,-0.35921 7.50096,-0.31651"
       id="path3023"
       style="font-size:56px;font-style:normal;font-variant:normal;font-weight:bold;font-stretch:normal;text-align:start;line-height:125%;writing-mode:lr-tb;text-anchor:start;fill:#000000;fill-opacity:1;stroke:#000000;stroke-opacity:1;font-family:DejaVu Sans;-inkscape-font-specification:DejaVu Sans Bold" />
    <path
       d="m 505.11205,712.69155 26.66942,-9.79177 2.74245,7.46949 -16.78711,6.16344 2.61994,7.13581 15.78604,-5.7959 2.74245,7.4695 -15.78605,5.79589 3.22309,8.77858 17.35181,-6.37077 2.74245,7.46949 -27.23413,9.9991 -14.07036,-38.32286"
       id="path3025"
       style="font-size:56px;font-style:normal;font-variant:normal;font-weight:bold;font-stretch:normal;text-align:start;line-height:125%;writing-mode:lr-tb;text-anchor:start;fill:#000000;fill-opacity:1;stroke:#000000;stroke-opacity:1;font-family:DejaVu Sans;-inkscape-font-specification:DejaVu Sans Bold" />
    <path
       d="m 558.19994,710.38576 c 1.97293,-0.98625 3.19993,-2.05818 3.68102,-3.21581 0.49737,-1.16571 0.32628,-2.5883 -0.51327,-4.26778 -0.83142,-1.66311 -1.85854,-2.63739 -3.08136,-2.92285 -1.20652,-0.29354 -2.79625,0.0528 -4.76919,1.03905 l -3.96218,1.98072 4.68279,9.36738 3.96219,-1.98071 m -0.70991,8.48652 6.90804,13.81874 -9.41631,4.70724 -18.25433,-36.51569 14.38126,-7.18925 c 4.81006,-2.40452 8.73547,-3.35804 11.77626,-2.86056 3.05707,0.48942 5.45778,2.47877 7.20213,5.96806 1.20634,2.41322 1.6097,4.68775 1.2101,6.82359 -0.38335,2.12776 -1.56559,4.14537 -3.54673,6.05283 1.43481,-0.35041 2.91853,-0.25654 4.45115,0.2816 1.54072,0.51375 3.35861,1.56146 5.45366,3.14314 l 10.2958,7.81481 -10.02775,5.01291 -8.98742,-6.84865 c -1.80973,-1.37786 -3.34638,-2.16876 -4.60996,-2.37268 -1.24731,-0.21204 -2.6373,0.065 -4.16999,0.83121 l -2.66591,1.3327"
       id="path3027"
       style="font-size:56px;font-style:normal;font-variant:normal;font-weight:bold;font-stretch:normal;text-align:start;line-height:125%;writing-mode:lr-tb;text-anchor:start;fill:#000000;fill-opacity:1;stroke:#000000;stroke-opacity:1;font-family:DejaVu Sans;-inkscape-font-specification:DejaVu Sans Bold" />
    <path
       d="m 566.78594,686.13037 8.84443,-5.80994 25.59418,19.23988 -7.51679,-31.11497 8.84443,-5.80993 9.77587,42.42283 -10.48991,6.89085 -35.05221,-25.81872"
       id="path3029"
       style="font-size:56px;font-style:normal;font-variant:normal;font-weight:bold;font-stretch:normal;text-align:start;line-height:125%;writing-mode:lr-tb;text-anchor:start;fill:#000000;fill-opacity:1;stroke:#000000;stroke-opacity:1;font-family:DejaVu Sans;-inkscape-font-specification:DejaVu Sans Bold" />
    <path
       d="m 603.66927,660.96942 8.26781,-6.51678 25.27156,32.06189 -8.26781,6.51678 -25.27156,-32.06189"
       id="path3031"
       style="font-size:56px;font-style:normal;font-variant:normal;font-weight:bold;font-stretch:normal;text-align:start;line-height:125%;writing-mode:lr-tb;text-anchor:start;fill:#000000;fill-opacity:1;stroke:#000000;stroke-opacity:1;font-family:DejaVu Sans;-inkscape-font-specification:DejaVu Sans Bold" />
    <path
       d="m 667.48921,656.34814 c -0.72778,2.05169 -1.68347,3.9795 -2.86707,5.78344 -1.18364,1.80398 -2.60807,3.48364 -4.27329,5.039 -4.96909,4.64126 -10.19979,6.93268 -15.69211,6.87429 -5.50477,-0.0717 -10.47823,-2.48552 -14.92039,-7.24147 -4.45458,-4.76923 -6.52386,-9.89562 -6.20784,-15.37918 0.30361,-5.49683 2.93994,-10.56587 7.90901,-15.20716 1.66525,-1.55533 3.43808,-2.86198 5.3185,-3.91996 1.88043,-1.05788 3.86889,-1.87997 5.96538,-2.46628 l 5.76734,6.17472 c -2.3338,0.35895 -4.40496,0.95896 -6.2135,1.80004 -1.80854,0.84117 -3.47882,1.97721 -5.01085,3.40811 -2.74431,2.5633 -4.08123,5.45831 -4.01075,8.68505 0.0705,3.2268 1.54913,6.38553 4.4359,9.47619 2.87434,3.07739 5.91874,4.76118 9.13321,5.05138 3.21445,0.29024 6.19384,-0.84628 8.93817,-3.40956 1.53201,-1.43092 2.77923,-3.0199 3.74167,-4.76695 0.9624,-1.74699 1.70216,-3.77245 2.21929,-6.07638 l 5.76733,6.17472"
       id="path3033"
       style="font-size:56px;font-style:normal;font-variant:normal;font-weight:bold;font-stretch:normal;text-align:start;line-height:125%;writing-mode:lr-tb;text-anchor:start;fill:#000000;fill-opacity:1;stroke:#000000;stroke-opacity:1;font-family:DejaVu Sans;-inkscape-font-specification:DejaVu Sans Bold" />
    <path
       d="m 644.05536,624.90752 18.54095,-21.52603 6.02895,5.1929 -11.67063,13.54959 5.75961,4.96091 10.97467,-12.74159 6.02895,5.1929 -10.97467,12.74158 7.08556,6.10299 12.06322,-14.00538 6.02895,5.19289 -18.93355,21.98183 -30.93201,-26.64259"
       id="path3035"
       style="font-size:56px;font-style:normal;font-variant:normal;font-weight:bold;font-stretch:normal;text-align:start;line-height:125%;writing-mode:lr-tb;text-anchor:start;fill:#000000;fill-opacity:1;stroke:#000000;stroke-opacity:1;font-family:DejaVu Sans;-inkscape-font-specification:DejaVu Sans Bold" />
    <path
       d="m 674.14394,584.86437 c -0.81354,0.87398 -1.41441,1.83384 -1.80263,2.87957 -0.38819,1.04578 -0.56061,2.1741 -0.51727,3.38496 0.0434,1.2109 0.2996,2.33354 0.76871,3.36794 0.46246,1.02821 1.12733,1.94597 1.99461,2.7533 0.86062,0.80113 1.82025,1.39556 2.87888,1.78329 1.05197,0.38155 2.1834,0.55064 3.39427,0.50727 1.21089,-0.0433 2.32732,-0.2929 3.34931,-0.74869 1.01532,-0.46198 1.92974,-1.12995 2.7433,-2.00392 0.81974,-0.88062 1.42372,-1.84381 1.81193,-2.88959 0.38773,-1.05862 0.55993,-2.19337 0.51659,-3.40428 -0.0429,-1.19798 -0.29845,-2.3013 -0.76663,-3.30996 -0.46201,-1.0153 -1.12998,-1.92973 -2.00393,-2.7433 -0.88731,-0.82594 -1.85384,-1.43302 -2.89959,-1.82125 -1.05243,-0.39439 -2.17454,-0.57349 -3.36632,-0.53729 -1.21088,0.0434 -2.32709,0.29938 -3.34862,0.76801 -1.01532,0.46202 -1.93285,1.13334 -2.75261,2.01394 m -1.03074,-0.95949 c 0.94396,-1.01403 2.00618,-1.78726 3.18666,-2.31968 1.18668,-0.53904 2.48207,-0.83371 3.88618,-0.884 1.40411,-0.0502 2.71082,0.15127 3.92013,0.60452 1.20931,0.45332 2.32766,1.15815 3.35508,2.11451 1.01404,0.94398 1.79038,2.00287 2.329,3.17665 0.53192,1.16761 0.82302,2.45346 0.8733,3.85755 0.0503,1.40412 -0.15103,2.71727 -0.60384,3.93945 -0.44662,1.21554 -1.14191,2.33033 -2.08586,3.34438 -0.94397,1.01407 -2.00929,1.79063 -3.19597,2.32968 -1.18048,0.5324 -2.47277,0.82374 -3.87687,0.874 -1.40411,0.0503 -2.70749,-0.14813 -3.91013,-0.59521 -1.20931,-0.45328 -2.321,-1.15191 -3.33506,-2.09587 -1.0274,-0.95638 -1.8104,-2.02146 -2.34901,-3.19528 -0.5386,-1.17379 -0.83303,-2.46274 -0.88331,-3.86687 -0.0503,-1.40409 0.14791,-2.7139 0.59452,-3.92944 0.45283,-1.22218 1.15122,-2.34031 2.09518,-3.35439 m 3.89145,4.12677 -1.14579,1.23088 2.76198,2.57106 1.14579,-1.23088 c 0.68313,-0.73385 1.05481,-1.34047 1.11504,-1.81988 0.0664,-0.48604 -0.15053,-0.96196 -0.65089,-1.42775 -0.50702,-0.47196 -1.00057,-0.65743 -1.48064,-0.55643 -0.48674,0.0948 -1.06857,0.50583 -1.74549,1.233 m -0.96553,-1.02953 c 1.09301,-1.17416 2.1098,-1.86514 3.05038,-2.07296 0.9339,-0.21399 1.80449,0.0547 2.61173,0.80615 0.57374,0.5341 0.88284,1.15182 0.9273,1.85316 0.0507,0.69471 -0.16539,1.41507 -0.64815,2.16109 0.20239,-0.11043 0.53618,-0.15461 1.00131,-0.13259 0.46466,0.009 1.08334,0.087 1.85603,0.23344 l 3.50781,0.70635 -1.60225,1.72123 -3.29319,-0.65599 c -1.00686,-0.20255 -1.70858,-0.25804 -2.10514,-0.16647 -0.39703,0.0787 -0.76322,0.2982 -1.09857,0.65844 l -0.61482,0.66048 3.56255,3.31627 -1.44389,1.55112 -8.36599,-7.78768 2.65489,-2.85204"
       id="path3002"
       style="font-size:28px;font-style:normal;font-variant:normal;font-weight:normal;font-stretch:normal;text-align:start;line-height:125%;writing-mode:lr-tb;text-anchor:start;fill:#000000;fill-opacity:1;stroke:none;font-family:DejaVu Sans;-inkscape-font-specification:DejaVu Sans" />
  </g>
</svg>
